<svg width="24" height="20" viewBox="0 0 24 20" fill="none" xmlns="http://www.w3.org/2000/svg">
<path d="M23.456 2.44292C23.079 2.61015 22.6914 2.75128 22.2953 2.86586C22.7642 2.33554 23.1217 1.71154 23.34 1.0287C23.3889 0.875645 23.3382 0.708109 23.2124 0.608006C23.0867 0.507825 22.9122 0.495826 22.7738 0.577813C21.9326 1.0767 21.0251 1.43523 20.0736 1.64488C19.115 0.708264 17.8132 0.175232 16.4673 0.175232C13.6264 0.175232 11.3151 2.48643 11.3151 5.32726C11.3151 5.551 11.3293 5.7735 11.3573 5.99291C7.83202 5.68339 4.55463 3.95066 2.30405 1.18997C2.22384 1.09157 2.10028 1.03854 1.97378 1.04868C1.8472 1.05859 1.73347 1.12997 1.66952 1.23967C1.21306 2.02292 0.97174 2.91874 0.97174 3.8302C0.97174 5.07162 1.41497 6.24948 2.19791 7.16984C1.95984 7.08739 1.72882 6.98434 1.50833 6.86194C1.38996 6.79606 1.24549 6.79706 1.12789 6.8645C1.01022 6.93193 0.936436 7.05595 0.93334 7.19152C0.932798 7.21435 0.932798 7.23719 0.932798 7.26034C0.932798 9.11337 1.93011 10.7817 3.45489 11.691C3.32389 11.6779 3.19298 11.6589 3.06291 11.6341C2.92882 11.6084 2.79094 11.6554 2.70051 11.7577C2.60993 11.8599 2.57997 12.0024 2.6217 12.1324C3.18609 13.8945 4.63917 15.1906 6.39582 15.5857C4.93886 16.4983 3.27272 16.9762 1.52366 16.9762C1.15871 16.9762 0.791662 16.9548 0.432436 16.9123C0.253985 16.8911 0.0833524 16.9964 0.0225782 17.1661C-0.038196 17.3359 0.0262169 17.5252 0.178036 17.6225C2.42498 19.0632 5.02309 19.8247 7.69135 19.8247C12.9368 19.8247 16.2182 17.3512 18.0473 15.2761C20.328 12.6887 21.6361 9.26388 21.6361 5.87995C21.6361 5.73859 21.634 5.59583 21.6296 5.45353C22.5295 4.77557 23.3042 3.95508 23.9346 3.01203C24.0304 2.86881 24.02 2.67952 23.9091 2.54767C23.7983 2.41575 23.6136 2.37309 23.456 2.44292Z" fill="white"/>
</svg>
