<svg width="29" height="23" viewBox="0 0 29 23" fill="none" xmlns="http://www.w3.org/2000/svg">
<path d="M24.0453 2.63952C22.2418 1.79568 20.334 1.19594 18.372 0.85614C18.1273 1.29752 17.8427 1.89289 17.6447 2.36452C15.5607 2.04689 13.4407 2.04689 11.3568 2.36452C11.1383 1.84915 10.8927 1.34565 10.6212 0.85614C8.65756 1.1965 6.74822 1.79765 4.9438 2.64364C1.35368 8.06939 0.380175 13.3604 0.866925 18.5758C2.96264 20.1581 5.31725 21.3645 7.8258 22.1411C8.38943 21.3655 8.88796 20.5446 9.3163 19.6868C8.50158 19.3763 7.71611 18.9939 6.96917 18.5441C7.1658 18.3984 7.3583 18.2458 7.54392 18.089C12.069 20.2051 16.9847 20.2051 21.4562 18.089C21.6446 18.2458 21.837 18.3984 22.0309 18.5441C21.287 18.9924 20.4992 19.3774 19.6797 19.6881C20.1073 20.5463 20.6059 21.3673 21.1702 22.1425C23.6807 21.3664 26.0369 20.159 28.1332 18.5744C28.7038 12.5299 27.1583 7.28702 24.0453 2.63952ZM9.9323 15.3679C8.5738 15.3679 7.46005 14.1001 7.46005 12.556C7.46005 11.0119 8.55043 9.74139 9.9323 9.74139C11.3142 9.74139 12.4279 11.0091 12.4045 12.556C12.4059 14.1001 11.3142 15.3679 9.9323 15.3679ZM19.0678 15.3679C17.7093 15.3679 16.5956 14.1001 16.5956 12.556C16.5956 11.0119 17.6859 9.74139 19.0678 9.74139C20.4497 9.74139 21.5634 11.0091 21.5401 12.556C21.5401 14.1001 20.4497 15.3679 19.0678 15.3679Z" fill="white"/>
</svg>
