<svg width="240" height="260" viewBox="0 0 240 260" fill="none" xmlns="http://www.w3.org/2000/svg">
<path d="M-144.799 0.901481C-142.47 1.52638 -136.961 2.26488 -132.531 2.54888C-127.476 2.88978 -122.421 3.62828 -118.786 4.53718C-100.838 9.13858 -79.9944 19.0799 -58.5254 33.4521C-46.1434 41.7459 -44.2693 42.3708 -30.0693 43.5069C-20.5273 44.3022 -18.9373 44.5863 -10.4743 47.1994C-1.61435 49.9829 0.373657 50.3238 8.43866 50.6078C15.3107 50.8918 15.5387 50.8918 13.4366 50.0397C10.9947 49.074 9.68765 48.1651 9.68765 47.4266C9.68765 46.2905 13.4366 44.7567 17.5827 44.075C25.3077 42.882 28.9426 39.7008 30.3056 32.884C30.9296 29.7596 31.3277 29.1347 33.3157 27.6577C35.5307 26.0103 35.5876 25.8399 36.2686 21.0113C36.6666 18.3414 36.8936 15.9555 36.7236 15.8418C36.5526 15.6714 35.4736 16.0691 34.3376 16.7508C33.2016 17.4324 32.1797 17.8869 32.0657 17.7733C31.9527 17.6597 31.6687 15.3874 31.4977 12.6607L31.1006 7.77518L33.1457 5.73008C35.7007 3.17378 38.3707 3.06018 42.6867 5.33248C45.1297 6.58218 46.3787 7.83198 48.8777 11.4109C50.5816 13.8536 52.6837 16.3531 53.5357 16.978C54.8987 18.0005 55.3526 18.0573 57.3407 17.4324C60.7487 16.4667 62.6796 14.4785 65.2926 9.53618C68.1886 3.85548 69.4387 2.66258 68.5867 6.24138C67.7917 9.87708 68.1886 10.5588 71.4267 10.5588H74.0957L66.2007 15.9555C61.8847 18.9094 58.7037 21.3521 59.2147 21.3521C59.7267 21.3521 71.4267 19.8183 85.2847 17.9437C99.0867 16.0691 110.503 14.6489 110.673 14.7625C110.787 14.9329 109.651 15.8987 108.117 17.0348C102.779 20.8977 93.3496 23.738 77.5036 26.1807C66.0876 27.9418 63.6447 28.5098 63.6447 29.5324C63.6447 30.7821 65.8606 31.9183 76.1976 35.838C88.1246 40.3825 94.7126 43.5069 96.4736 45.3816L97.8367 46.8017L93.8607 46.0632C85.9097 44.5294 76.9357 41.3482 60.8056 34.4178C50.5246 29.9868 47.5717 29.5892 42.9707 31.8047C38.9957 33.736 33.5426 39.5872 33.5426 41.8595C33.5426 43.1661 33.9406 43.5637 35.9286 44.3022C37.2917 44.8135 41.8347 45.7224 46.0947 46.3473C64.9516 49.074 81.0247 53.7322 84.0917 57.4247C84.7737 58.22 84.7166 58.3336 83.4677 58.0495C82.7287 57.8791 80.2867 57.5951 78.1286 57.4247C75.9137 57.1974 70.0636 56.5726 65.0647 56.0045C60.0667 55.3796 51.0927 54.3571 45.1867 53.7322C25.0237 51.5735 23.7737 52.2552 35.0197 59.4697C54.4436 71.9673 61.2027 79.5226 73.8117 103.154C74.0387 103.608 74.8907 104.404 75.6857 104.801C77.0497 105.597 78.1846 105.426 88.1246 103.268C103.347 99.973 106.357 99.576 115.842 99.859C123.169 100.086 124.589 100.314 128.11 101.677C132.427 103.381 133.108 103.381 143.161 101.166C150.374 99.576 160.427 100.2 180.647 103.495C197.061 106.165 198.935 106.733 196.095 108.039C195.584 108.323 184.793 108.664 172.127 108.835C147.307 109.119 147.307 109.119 162.188 111.391C174.456 113.266 192.176 119.174 206.489 126.161C216.088 130.876 235.569 143.43 234.547 144.282C234.433 144.339 219.382 139.738 201.094 134C182.805 128.32 167.64 123.661 167.356 123.775C167.072 123.889 168.663 125.593 170.821 127.638C174.001 130.535 176.955 132.41 185.531 136.897C191.438 140.022 197.913 143.601 199.958 144.907C203.593 147.236 209.386 152.406 208.932 152.917C208.761 153.031 205.524 152.235 201.605 151.099C197.743 149.963 184.566 146.271 172.411 142.862C160.2 139.454 149.92 136.5 149.522 136.386C148.046 135.875 149.977 138.204 157.304 145.93C161.393 150.19 165.766 155.019 167.072 156.666C169.742 160.018 172.866 165.926 172.582 167.062C172.354 168.198 158.894 159.848 147.989 151.724C142.991 148.032 134.982 141.556 130.211 137.352C125.44 133.148 121.408 129.853 121.294 129.91C121.181 130.024 119.477 134.739 117.432 140.363C114.252 149.281 111.923 157.973 112.548 158.484C112.661 158.598 116.58 160.132 121.294 161.949C128.848 164.903 133.051 166.948 129.814 166.039C125.157 164.733 102.154 162.801 84.6597 162.177C73.8687 161.836 63.9287 161.438 62.5097 161.268L59.9537 160.984L62.2256 163.029L64.4967 165.131L75.9697 164.96C84.6036 164.79 87.4996 164.96 87.4996 165.415C87.4996 165.869 86.0226 166.267 83.6376 166.494C81.5367 166.721 78.8096 167.062 77.5607 167.289L75.2887 167.687L81.2527 169.846C95.4517 175.072 108.629 181.945 124.986 192.796C136.516 200.465 143.388 206.713 145.66 211.656C146.455 213.36 146.967 214.837 146.853 214.95C146.739 215.064 140.719 211.883 133.449 207.85C122.714 201.942 67.6776 174.617 67.2236 174.958C67.1096 175.015 67.3367 175.981 67.6777 177.06C69.2117 182.343 69.8927 188.081 69.9497 195.863C69.9497 203.248 69.2677 212.621 68.4156 216.768L68.0757 218.188L66.3717 216.2C65.4627 215.121 62.9637 210.747 60.8616 206.543C54.2166 193.08 52.3997 190.978 46.6057 189.274C42.7437 188.194 30.1346 186.66 24.5686 186.66C21.2746 186.66 20.3656 186.831 20.0816 187.626C19.5706 188.99 21.8427 190.58 32.0657 195.863C51.8317 206.032 64.9516 216.711 70.4606 227.107C71.9377 229.834 72.1077 230.402 71.2557 229.948C70.6317 229.663 63.7587 226.028 55.9777 221.824C43.7097 215.291 9.68765 198.988 9.23364 199.442C9.17664 199.499 12.8116 206.145 17.3557 214.212L25.6477 228.925L27.2946 239.434C28.2607 245.229 29.1697 250.625 29.3397 251.421L29.6806 252.841L27.8627 251.137C25.3637 248.807 21.8997 243.808 17.3557 236.083C14.6866 231.538 12.2436 228.3 9.46063 225.573C5.03064 221.142 1.28265 218.586 0.884644 219.779C0.77063 220.12 0.259644 223.642 -0.251343 227.562C-0.762329 231.481 -1.33035 235.174 -1.50134 235.799C-1.72833 236.651 -1.38733 236.48 -0.194336 235.117C1.22568 233.583 2.02066 233.242 5.54166 232.731C7.75665 232.39 9.97165 232.106 10.3697 232.106C10.7677 232.106 8.38165 234.776 5.08765 237.957L-0.93335 243.752L-3.60236 256.533C-5.07935 263.577 -7.18039 271.871 -8.31638 274.996L-10.3044 280.676L-10.7583 295.844C-11.0423 304.194 -11.4403 312.772 -11.6104 314.874C-11.9514 318.339 -11.7243 319.646 -9.50934 327.542L-7.01038 336.404L-7.97534 339.642C-8.88434 342.766 -8.88434 343.278 -7.57834 353.333C-6.10135 365.092 -4.00037 372.647 -2.29636 372.193C-1.78537 372.022 2.41766 371.113 7.13266 370.147C14.4586 368.614 18.9457 367.137 20.6497 365.603C20.8767 365.433 16.4466 363.615 10.8236 361.626C5.20062 359.695 0.714661 357.934 0.827667 357.82C1.39566 357.252 18.6617 358.9 26.4436 360.206C37.1776 362.024 46.7197 364.24 49.7867 365.603C51.7747 366.455 52.5696 367.194 53.3076 369.011C54.3876 371.511 55.2957 371.795 57.9087 370.432C60.1237 369.295 64.0427 362.819 67.7917 354.185C68.5297 352.48 70.3476 349.754 71.7666 348.163C74.7776 344.698 75.7427 342.142 75.7427 337.483C75.7427 333.791 74.7206 331.178 72.2216 328.508L70.7447 326.86L72.1647 327.258C77.2767 328.451 78.6967 328.451 81.5367 327.145C83.0697 326.463 84.4327 325.952 84.5467 326.065C84.6597 326.179 83.6947 327.997 82.3876 330.042C80.5137 333.052 79.7187 335.098 78.6967 339.756C78.0146 343.051 77.5607 345.72 77.7877 345.664C77.9576 345.664 79.6617 343.846 81.5367 341.687C84.3757 338.392 94.0316 330.723 103.063 324.588C103.971 323.963 101.359 318.283 96.6436 310.841C93.0087 305.047 91.7596 302.377 88.2946 292.663C86.0797 286.357 82.7856 277.95 81.0247 273.916C79.2646 269.883 77.9016 266.531 78.0146 266.418C78.0717 266.304 81.8197 269.372 86.3067 273.178L94.4857 280.108L101.131 292.265L107.833 304.422L108.231 312.261C108.458 316.635 108.685 320.157 108.799 320.157C108.913 320.157 118.17 313.568 129.359 305.501C140.548 297.434 150.034 290.618 150.431 290.39C152.078 289.425 149.466 293.287 145.319 298.002C137.254 307.205 132.256 311.409 116.58 321.975C111.071 325.668 106.811 328.678 107.038 328.678C107.265 328.678 111.866 327.429 117.205 325.895C136.573 320.328 151.283 317.09 166.731 314.988C173.206 314.079 179.34 313.738 192.574 313.568C202.116 313.454 209.613 313.454 209.329 313.624C208.477 314.022 176.841 320.668 152.533 325.611C140.946 327.94 124.361 330.894 115.671 332.087C106.925 333.336 99.6547 334.586 99.4837 334.87C96.4737 339.699 94.2587 341.858 89.8857 344.357C85.1716 347.027 85.1717 347.027 82.9557 351.628C81.0247 355.775 80.0027 357.025 72.7897 364.183C68.4156 368.557 64.7807 372.306 64.7807 372.477C64.7807 372.704 66.2576 372.477 68.0186 372.079C69.8356 371.681 79.3206 369.579 89.1467 367.478L106.982 363.671L142.82 365.83C162.529 367.023 179.284 368.102 180.079 368.33C180.874 368.5 175.081 368.955 167.299 369.295C147.818 370.204 114.706 372.59 115.217 373.045C115.444 373.215 123.737 375.033 133.733 377.021L151.794 380.6L157.304 379.634C160.314 379.066 169.628 377.646 178.091 376.396C186.497 375.147 194.164 373.954 195.13 373.783C198.595 373.045 195.925 374.181 185.474 377.816C175.478 381.282 174.513 381.679 172.014 384.179L169.287 386.906L174.74 389.632C177.75 391.166 180.079 392.473 180.022 392.586C179.908 392.7 177.466 392.359 174.683 391.905C167.015 390.541 153.953 390.598 149.977 391.961C146.512 393.154 142.366 395.086 142.707 395.427C142.764 395.54 145.547 395.199 148.841 394.745C152.76 394.177 159.859 393.836 169.571 393.779L184.339 393.722L195.698 389.916C219.155 382.077 239.659 377.192 253.347 376.112L258.174 375.715L255.619 377.135C238.125 386.508 226.084 392.132 210.181 398.267C200.639 401.959 192.631 405.197 192.29 405.482C192.006 405.709 202.627 405.936 215.918 405.936C229.208 405.936 247.099 406.106 255.675 406.334L271.238 406.731L261.014 408.322C255.391 409.174 237.671 411.162 221.597 412.753C205.524 414.287 192.29 415.707 192.176 415.764C192.063 415.877 194.732 416.786 198.083 417.809C210.295 421.558 250.393 435.362 249.144 435.419C248.917 435.476 233.809 433.431 215.634 430.874C180.079 425.989 156.111 422.865 155.827 423.149C155.77 423.262 159.859 425.307 165.028 427.75C178.488 433.999 180.136 434.34 196.209 434.169C209.954 434.056 211.999 434.283 223.926 436.953C234.093 439.225 259.822 447.462 264.138 449.734L266.126 450.814L263.286 450.53C261.696 450.359 250.223 449.337 237.728 448.257C225.232 447.121 212.226 445.985 208.818 445.701C205.41 445.36 202.57 445.19 202.4 445.303C202.286 445.417 209.216 450.473 217.849 456.494C226.425 462.516 233.411 467.572 233.297 467.629C233.184 467.742 228.526 465.868 222.904 463.538C217.337 461.153 205.694 456.722 197.118 453.654C188.541 450.586 180.704 447.803 179.795 447.405C176.444 446.155 179.454 447.973 198.538 458.994L217.905 470.128L225.573 478.763C232.616 486.716 248.008 505.917 247.326 505.917C246.645 505.917 218.133 487.397 198.651 474.275C179.511 461.38 176.16 458.88 167.413 451.041L157.644 442.293L157.247 444.394C157.076 445.587 155.94 453.54 154.691 462.005C153.498 470.526 152.419 477.513 152.249 477.513C152.078 477.513 151.113 475.013 150.204 472.003L148.443 466.436L149.125 455.926C149.466 450.132 149.693 445.36 149.693 445.247C149.636 445.19 147.762 446.496 145.603 448.2C143.445 449.905 137.879 453.768 133.165 456.835C128.508 459.903 122.146 464.277 119.079 466.663C115.955 468.992 113.57 470.526 113.74 470.071C113.911 469.617 114.99 466.322 116.183 462.743L118.341 456.21L124.589 449.223L130.836 442.236L126.349 438.032C121.635 433.658 113.002 428.432 107.095 426.387L103.971 425.307L102.835 426.784C101.529 428.432 101.472 430.136 102.495 435.873L103.233 439.907L96.9846 461.721C93.5765 473.65 90.5667 483.705 90.3397 483.932C90.1127 484.159 88.8627 481.262 87.4996 477.399C85.3987 471.435 84.8306 468.878 83.7516 460.073C82.9556 453.313 82.6157 448.087 82.7857 445.019C83.0697 440.759 82.9557 440.191 81.9337 439.282C80.7977 438.259 80.6846 438.259 77.1627 439.793C74.7206 440.872 71.5966 443.145 67.2796 446.951C63.7587 450.018 60.8057 452.518 60.6347 452.518C60.4647 452.518 60.4647 452.063 60.6347 451.495C60.7487 450.927 60.4077 449.905 59.8397 449.166C58.8747 447.973 58.5907 447.916 56.2617 448.541C53.2517 449.28 51.6607 450.586 48.4237 454.847C46.4357 457.46 45.0726 458.539 39.9606 461.323C32.8046 465.129 28.8287 468.083 24.2847 472.912C19.1167 478.365 20.6497 480.581 28.0907 478.422C31.9527 477.286 32.1797 477.286 31.1577 478.479C29.3967 480.581 29.5667 480.637 36.2686 480.694C41.7216 480.751 43.5387 480.978 46.3217 482.058C50.0137 483.421 51.8886 484.671 49.4456 484.159C45.5836 483.307 33.8266 482.512 28.7717 482.796C22.3537 483.137 16.7876 484.784 13.3796 487.397C8.94962 490.806 10.8237 491.999 27.4087 496.316C42.0057 500.122 54.7847 504.042 68.1887 508.871C79.7756 513.017 82.8997 514.381 83.9787 515.744C84.8307 516.767 83.8647 516.653 71.0287 514.154C65.5767 513.074 57.1137 511.54 52.2857 510.745C39.7337 508.643 19.3436 504.894 13.4366 503.587C10.3127 502.906 6.84863 502.508 4.40564 502.622C0.884644 502.792 0.31665 502.963 -0.649353 504.269C-2.23935 506.428 -1.16034 508.189 3.95166 511.711C12.6417 517.619 19.1167 522.618 22.3537 525.742C27.6927 530.912 27.5787 531.139 20.9337 528.867C17.7537 527.787 14.9136 526.935 14.6866 526.935C14.4586 526.935 16.5036 529.832 19.2867 533.354C25.0797 540.739 28.8287 546.42 30.5897 550.624C31.2707 552.214 33.2017 558.293 34.9057 564.144C36.6096 569.995 38.4277 575.221 38.9957 575.846C40.8696 577.948 43.7667 577.266 54.2167 572.438C66.0877 566.927 71.0857 564.939 78.2987 562.78C86.8747 560.224 93.9747 558.861 124.077 553.862C126.804 553.407 129.189 553.123 129.303 553.237C129.416 553.35 115.955 559.031 99.4277 565.848C82.8997 572.722 69.4957 578.402 69.5517 578.516C69.6656 578.63 72.0506 578.346 74.7776 577.948C83.3537 576.698 112.548 577.039 127.826 578.516C141.855 579.936 146.512 580.618 147.364 581.47C147.762 581.868 146.683 582.038 144.297 582.038C142.252 582.038 131.802 582.663 121.01 583.458C110.219 584.254 94.4857 584.992 86.0797 585.219C69.0406 585.56 65.6897 586.015 61.9417 588.173L59.3857 589.707L61.3737 589.821C62.4527 589.934 70.5746 589.423 79.4346 588.685C93.7477 587.548 96.4167 587.435 103.176 588.06C107.436 588.457 110.957 588.855 111.128 588.969C111.412 589.309 102.438 590.843 91.7597 592.32C70.9147 595.161 62.0546 597.376 64.8376 599.137C66.0876 599.932 68.1887 599.762 72.7897 598.512C83.6377 595.558 90.3397 593.968 93.1797 593.684C96.1897 593.343 95.6217 593.684 80.6277 601.75C68.0757 608.453 63.0777 610.839 55.5237 613.566C50.3546 615.441 46.1517 617.031 46.2657 617.088C46.3217 617.202 50.2406 617.486 54.8987 617.827C66.2576 618.622 73.5276 619.758 80.6846 621.803C83.9787 622.769 92.3846 624.53 99.3137 625.78C123.68 630.154 133.278 632.085 143.729 634.641C155.145 637.425 176.387 644.242 180.931 646.514L183.771 647.934L179.795 647.594C177.58 647.423 170.707 646.514 164.516 645.605C158.269 644.696 143.445 643.049 131.575 641.97C92.6117 638.334 81.4227 636.459 62.5097 630.211C53.8757 627.313 53.5916 627.257 46.8896 627.257C32.0096 627.257 17.4696 628.109 13.0956 629.245C4.80362 631.46 -9.50937 639.584 -11.8383 643.447C-12.6334 644.753 -12.9174 646.912 -13.2014 654.354C-13.6554 665.033 -14.4503 672.475 -15.5863 676.906C-16.2113 679.349 -16.2683 680.258 -15.7003 681.394C-14.7343 683.382 -13.5414 683.496 -9.90634 681.791C-8.20334 680.996 -6.78336 680.542 -6.78336 680.712C-6.78336 681.28 -9.33936 684.575 -12.4623 688.04C-14.5074 690.312 -16.0974 692.755 -17.0063 695.141C-18.7104 699.515 -19.7894 700.197 -25.1284 700.197C-28.4794 700.197 -29.1613 700.026 -30.3533 698.777C-31.1493 698.038 -31.7733 696.902 -31.7733 696.277C-31.7733 695.709 -32.3983 693.835 -33.1934 692.13C-33.9884 690.483 -34.6133 688.551 -34.6133 687.87C-34.6133 687.188 -33.4203 684.916 -32.0003 682.871C-30.2403 680.258 -29.1044 677.758 -28.3654 674.918C-27.2863 670.771 -26.0944 661.511 -26.0944 658.046L-26.1504 656.171L-27.7973 658.103C-28.7063 659.182 -30.8083 662.591 -32.4554 665.658C-34.1024 668.783 -36.7714 673.27 -38.3054 675.656C-43.0193 682.814 -45.5183 687.018 -48.5284 692.755C-52.5044 700.367 -52.7883 700.481 -64.4313 700.481C-78.1763 700.481 -78.4604 700.197 -75.8484 688.324C-72.0994 671.112 -71.7583 665.772 -74.0873 659.182C-75.7343 654.467 -75.8484 653.047 -74.5984 650.718C-73.6894 648.9 -74.0303 646.571 -75.1093 646.969C-75.5074 647.082 -81.8113 648.9 -89.1383 651.002C-123.671 660.83 -134.519 664.465 -137.075 666.965C-139.233 669.18 -137.302 674.918 -129.861 687.927C-126.794 693.266 -124.352 697.868 -124.352 698.265C-124.352 700.595 -131.111 701.106 -135.03 699.118C-137.927 697.641 -138.949 696.22 -142.811 687.927C-146.901 679.292 -147.98 677.701 -152.467 674.35C-154.511 672.816 -156.158 671.453 -156.158 671.282C-156.158 671.168 -154.909 671.225 -153.319 671.453C-151.785 671.68 -150.479 671.737 -150.479 671.623C-150.479 671.509 -151.104 669.862 -151.842 667.93C-152.637 665.999 -154.398 660.375 -155.874 655.433C-162.009 634.528 -165.36 627.484 -173.481 618.338C-175.185 616.406 -176.662 614.418 -176.719 613.907C-176.719 613.396 -176.776 611.862 -176.832 610.442C-176.889 608.283 -177.116 607.829 -178.48 607.147C-181.603 605.67 -186.772 605.272 -195.632 605.84C-209.32 606.749 -218.465 607.033 -217.215 606.522C-216.59 606.238 -212.785 605.727 -208.696 605.386C-202.107 604.875 -196.484 603.568 -196.484 602.545C-196.484 602.375 -198.018 601.58 -199.949 600.841C-201.823 600.103 -203.243 599.421 -203.129 599.307C-203.016 599.194 -200.574 599.591 -197.62 600.216C-194.724 600.898 -192.111 601.296 -191.827 601.239C-191.089 600.955 -204.265 592.547 -208.071 590.9L-211.365 589.423L-221.134 591.411C-229.881 593.229 -233.8 593.684 -260.949 595.672C-277.533 596.922 -291.562 597.944 -292.187 597.944C-294.345 597.944 -291.846 596.865 -282.815 593.968C-269.468 589.764 -259.586 587.548 -247.317 586.015C-240.331 585.162 -225.905 584.31 -225.223 584.708C-224.939 584.935 -224.883 584.765 -225.11 584.424C-225.848 583.231 -230.506 583.061 -236.696 583.97C-245.898 585.39 -258.109 586.015 -276 585.958C-291.051 585.901 -292.073 585.844 -290.199 585.049C-283.44 582.095 -269.355 579.936 -253.281 579.368C-239.707 578.857 -242.603 578.232 -258.734 578.118C-271.343 578.062 -274.75 577.778 -346.939 571.245C-357.049 570.336 -365.398 569.484 -365.569 569.313C-365.682 569.2 -363.297 568.632 -360.23 568.064C-355.231 567.098 -351.596 566.984 -324.561 567.041C-291.335 567.041 -283.838 567.439 -259.813 570.393C-256.348 570.847 -255.099 571.983 -272.478 559.088C-280.089 553.521 -286.166 548.863 -286.11 548.749C-285.599 548.238 -256.859 559.429 -246.181 564.257L-233.686 569.995L-233.516 568.177C-233.402 567.041 -234.595 562.553 -236.526 556.929C-239.025 549.374 -239.707 546.477 -239.991 542.444C-240.388 536.592 -239.309 530.173 -237.151 525.458C-236.356 523.754 -235.788 522.391 -235.901 522.391C-235.958 522.391 -246.125 525.345 -258.45 528.923C-270.775 532.502 -281.055 535.456 -281.339 535.456C-282.304 535.456 -279.18 532.559 -275.829 530.23C-271.456 527.276 -260.778 522.107 -250.214 517.96C-240.729 514.21 -237.776 512.279 -238.06 510.063C-238.287 508.075 -240.445 506.598 -244.137 505.917C-248.51 505.121 -271.115 505.235 -291.619 506.201C-301.331 506.655 -312.293 506.996 -316.042 506.996L-322.857 506.939L-312.918 505.064C-307.465 504.042 -292.017 501.77 -278.556 500.009C-265.152 498.248 -253.735 496.714 -253.281 496.657C-252.827 496.543 -253.338 496.089 -254.417 495.578C-255.496 495.123 -257.2 494.385 -258.109 493.93C-259.302 493.419 -263.448 493.135 -271.626 492.965C-278.101 492.851 -283.383 492.51 -283.383 492.226C-283.383 491.658 -280.714 491.203 -276 490.976L-272.308 490.863L-274.864 489.556L-277.42 488.25L-273.444 488.59C-271.286 488.818 -268.843 489.102 -268.048 489.272C-266.572 489.556 -267.367 488.931 -275.829 483.591C-281.736 479.842 -282.986 477.286 -279.862 475.297C-278.726 474.616 -278.556 474.616 -277.988 475.525C-276.568 478.081 -272.706 481.66 -268.559 484.33C-263.221 487.738 -253.224 492.68 -250.612 493.192C-248.737 493.533 -248.737 493.533 -248.737 491.317C-248.737 487.284 -253.281 481.66 -260.154 477.172C-264.924 474.048 -273.103 470.696 -276.852 470.298C-280.998 469.844 -282.759 470.923 -285.031 475.354C-286.053 477.343 -288.268 480.637 -289.915 482.682C-291.619 484.727 -293.436 487.284 -294.061 488.306L-295.197 490.124L-295.538 488.477C-296.22 485.068 -296.958 479.16 -297.639 471.264L-298.321 463.027L-305.705 458.483C-310.021 455.813 -314.224 453.654 -315.871 453.313C-317.405 452.915 -319.279 452.461 -320.131 452.234L-321.608 451.893L-321.324 456.892C-321.04 461.607 -323.255 489.727 -323.936 490.408C-324.05 490.579 -325.47 489.499 -327.003 488.079C-331.036 484.33 -332.967 479.899 -334.785 470.696C-335.58 466.492 -337 460.244 -337.852 456.892L-339.442 450.757L-347.166 458.142C-352.96 463.766 -355.231 465.583 -356.311 465.583C-357.787 465.583 -358.015 465.186 -357.787 463.084C-357.56 460.641 -358.299 459.335 -360.002 459.335C-362.615 459.335 -370.51 461.834 -378.802 465.299C-390.73 470.298 -400.101 473.423 -400.896 472.684C-401.407 472.173 -396.296 467.288 -391.581 463.766C-385.22 458.937 -375.11 454.222 -364.66 451.098C-355.799 448.428 -352.335 446.78 -350.745 444.508C-350.233 443.77 -349.949 443.145 -350.006 443.088C-350.063 442.974 -356.14 443.656 -363.467 444.565C-370.794 445.531 -377.098 446.212 -377.382 446.212C-378.064 446.212 -351.483 438.884 -350.688 438.884C-350.347 438.884 -347.961 436.725 -345.349 434.112C-340.578 429.341 -340.578 429.284 -341.316 427.58C-341.714 426.614 -342.282 425.818 -342.623 425.818C-342.907 425.818 -348.813 426.955 -355.743 428.375C-366.818 430.59 -371.305 431.215 -393.456 433.203C-407.314 434.453 -419.242 435.476 -419.866 435.476C-420.832 435.419 -420.605 435.135 -418.844 434.226C-412.426 430.874 -399.533 427.352 -383.63 424.682C-374.145 423.092 -367.613 421.501 -368.181 420.933C-368.295 420.763 -380.165 419.399 -394.478 417.809C-414.073 415.707 -424.637 414.798 -437.189 414.343C-446.334 413.946 -453.433 413.435 -452.979 413.207C-451.673 412.469 -442.642 411.162 -431.907 410.14C-424.751 409.401 -416.686 409.117 -404.929 409.174C-380.222 409.174 -366.08 410.878 -346.371 416.161C-340.578 417.752 -334.841 419.002 -333.705 419.002C-330.014 419.002 -325.697 415.877 -327.06 414.23C-327.799 413.378 -332.513 412.469 -339.328 411.844C-341.543 411.674 -349.041 410.537 -356.083 409.288C-372.498 406.504 -382.835 405.027 -392.661 404.175C-401.294 403.38 -401.351 402.925 -392.888 402.016C-377.325 400.312 -354.55 400.71 -339.044 402.868C-331.661 403.948 -328.253 403.664 -328.253 402.016C-328.253 400.369 -330.07 399.176 -335.466 397.131C-340.748 395.199 -344.383 393.495 -344.043 393.154C-343.929 393.041 -340.691 393.666 -336.773 394.575C-332.91 395.483 -329.616 396.108 -329.503 395.995C-329.332 395.881 -330.298 394.461 -331.661 392.87C-332.967 391.337 -333.933 390.03 -333.762 390.03C-333.592 390.03 -331.206 391.053 -328.48 392.302L-323.482 394.631L-321.665 392.757C-319.449 390.428 -308.317 376.851 -308.544 376.624C-308.601 376.567 -317.859 379.123 -329.105 382.418C-346.428 387.417 -364.319 391.677 -365.057 390.939C-365.114 390.825 -363.126 388.951 -360.57 386.735C-356.254 383.043 -354.948 382.361 -339.385 375.374C-330.298 371.284 -321.097 367.137 -318.881 366.114L-314.906 364.296L-338.476 361.854C-351.426 360.547 -362.729 359.411 -363.637 359.411C-364.546 359.354 -365.171 359.013 -365.171 358.559C-365.171 357.991 -363.297 357.707 -356.538 357.423C-351.767 357.195 -343.872 356.798 -339.044 356.457C-327.855 355.832 -315.758 355.832 -309.226 356.514C-306.443 356.798 -304.114 356.968 -304.001 356.855C-303.887 356.798 -307.352 355.321 -311.611 353.673C-315.928 351.969 -319.677 350.435 -319.904 350.208C-320.983 349.356 -304.909 351.515 -298.321 353.162C-295.708 353.787 -290.937 355.321 -287.7 356.571C-281.168 359.013 -277.874 359.354 -274.41 357.877C-271.967 356.855 -269.411 354.582 -268.275 352.367C-265.436 346.913 -259.018 343.107 -245.216 338.62C-230.449 333.791 -221.304 331.859 -203.3 329.814C-183.251 327.542 -179.104 326.236 -168.256 318.907C-161.157 314.136 -157.181 312.318 -144.231 307.944C-134.348 304.592 -134.292 304.933 -144.799 303.456L-150.195 302.717L-146.957 301.24L-143.72 299.82L-138.608 301.468C-135.768 302.377 -133.212 303.115 -132.929 303.115C-132.588 303.115 -133.042 301.638 -133.837 299.877C-135.03 297.321 -135.371 295.503 -135.598 291.186C-135.825 285.732 -135.03 277.381 -133.894 273.462C-133.269 271.303 -130.373 267.383 -129.861 267.895C-129.691 268.065 -128.498 275.45 -127.249 284.369C-125.942 293.287 -124.693 301.013 -124.466 301.524C-124.125 302.377 -123.216 302.036 -117.253 298.798C-111.573 295.673 -108.733 294.537 -100.214 292.095L-89.9904 289.141L-90.0473 285.164C-90.1603 281.244 -90.1603 281.188 -95.8403 271.587L-101.577 261.93L-101.917 254.545C-102.315 246.081 -104.132 235.458 -105.496 233.072C-106.404 231.481 -106.575 231.481 -109.585 231.822C-111.289 232.049 -116.741 233.47 -121.683 235.06C-126.681 236.594 -130.827 237.787 -130.941 237.673C-131.054 237.56 -127.93 235.231 -124.068 232.504C-117.025 227.562 -108.563 220.802 -108.506 220.12C-108.392 219.097 -118.843 215.064 -133.326 210.519C-154.171 203.93 -155.079 203.362 -137.983 207.509C-133.44 208.645 -128.158 209.667 -126.283 209.781C-123.273 210.065 -122.648 209.951 -121.569 208.872L-120.376 207.679L-115.151 210.804C-112.311 212.508 -109.926 213.871 -109.869 213.814C-109.812 213.701 -109.528 212.508 -109.244 211.088C-108.733 208.929 -108.96 207.168 -110.494 200.124C-111.459 195.522 -113.106 189.842 -114.129 187.513C-115.946 183.366 -116.003 183.309 -117.764 183.65C-121.967 184.502 -127.419 186.092 -135.03 188.762C-139.46 190.353 -143.095 191.546 -143.095 191.489C-143.095 191.148 -127.135 179.332 -121.683 175.64L-115.946 171.72L-117.877 167.232C-118.956 164.733 -119.808 162.631 -119.808 162.574C-119.808 162.517 -120.604 161.893 -121.512 161.211L-123.216 159.904L-132.19 166.096C-137.075 169.505 -141.391 172.459 -141.789 172.629C-142.13 172.856 -139.915 168.653 -136.791 163.313C-133.667 157.973 -131.225 153.485 -131.281 153.372C-131.395 153.315 -135.655 153.599 -140.766 154.053L-150.024 154.848L-157.919 159.734C-164.508 163.824 -170.358 166.608 -192.565 176.265C-207.276 182.684 -219.43 187.74 -219.601 187.569C-219.828 187.399 -217.783 185.127 -215.17 182.514C-211.933 179.276 -207.616 175.924 -201.88 172.175C-184.614 160.927 -179.502 157.462 -179.672 157.234C-179.786 157.121 -186.204 158.371 -193.872 160.075L-207.844 163.086L-209.945 166.494C-215.398 175.413 -216.477 176.435 -232.834 189.046C-241.411 195.636 -253.622 205.52 -259.983 210.974C-266.344 216.371 -271.683 220.745 -271.797 220.574C-272.251 220.12 -270.434 212.962 -268.843 209.27C-263.675 196.772 -248.794 179.389 -235.958 170.754C-232.607 168.539 -229.994 166.608 -230.108 166.494C-230.222 166.38 -233.97 166.835 -238.4 167.573C-242.83 168.255 -246.295 168.653 -246.068 168.425C-245.784 168.198 -243.626 167.176 -241.183 166.153C-238.798 165.187 -236.867 164.222 -236.98 164.108C-237.094 163.994 -241.638 165.471 -247.09 167.403C-252.543 169.277 -260.551 172.118 -264.924 173.652C-278.613 178.423 -343.702 195.806 -344.61 194.954C-345.406 194.102 -334.444 188.649 -322.403 183.877C-317.007 181.718 -307.011 177.628 -300.139 174.731C-272.251 162.972 -259.586 159.791 -237.094 158.825C-225.678 158.314 -220.793 157.746 -219.941 156.894C-219.714 156.723 -220.452 156.553 -221.475 156.553C-222.554 156.553 -231.074 156.041 -240.502 155.417C-259.586 154.167 -313.315 151.44 -319.393 151.44C-330.468 151.44 -313.94 148.032 -293.891 146.214C-281.964 145.134 -245.898 145.305 -233.629 146.498C-228.29 147.009 -223.69 147.464 -223.406 147.464C-223.122 147.464 -229.426 143.998 -237.378 139.738L-251.861 132.069L-248.169 132.41C-243.058 132.921 -232.153 135.25 -227.098 136.954C-224.769 137.75 -219.771 139.908 -215.966 141.84C-208.355 145.703 -204.947 146.441 -201.596 145.078C-198.813 143.885 -189.669 137.863 -189.669 137.181C-189.669 136.102 -192.679 135.534 -201.198 135.136C-211.649 134.682 -210.399 134.341 -193.36 132.978L-180.865 132.012L-165.246 126.104C-156.67 122.866 -146.333 119.23 -142.243 117.981C-137.245 116.447 -134.519 115.311 -133.837 114.459C-133.269 113.777 -133.042 113.038 -133.269 112.811C-134.519 111.675 -143.095 110.482 -155.874 109.687C-163.712 109.176 -172.516 108.551 -175.469 108.323L-180.865 107.926L-177.173 107.244C-170.585 106.051 -162.86 105.426 -153.035 105.369C-147.752 105.369 -143.777 105.199 -144.231 104.972C-144.685 104.801 -157.635 100.995 -172.914 96.508L-200.744 88.328L-193.36 88.612C-189.328 88.782 -181.263 89.407 -175.469 90.032C-157.238 92.077 -152.807 92.361 -148.207 91.736C-142.073 90.884 -138.551 88.896 -138.551 86.169C-138.551 83.67 -149.286 70.3198 -152.978 68.2747C-154.284 67.5362 -157.067 66.0024 -159.169 64.8095C-161.327 63.6734 -162.974 62.6509 -162.86 62.5941C-162.747 62.5373 -160.816 62.5941 -158.601 62.7645C-156.329 62.9918 -154.455 63.0486 -154.455 62.9918C-154.455 62.8782 -157.408 58.8448 -160.986 53.9594C-166.836 46.0064 -172.459 40.0985 -174.163 40.0985C-176.037 40.0985 -191.997 48.6764 -204.72 56.4589C-212.842 61.458 -219.601 65.4912 -219.657 65.3776C-220.339 64.6959 -215.909 58.3904 -211.592 53.8458C-204.322 46.2905 -183.478 27.9986 -175.753 22.5451L-172.346 20.1024L-175.469 20.4432C-190.521 22.0906 -248.397 26.5216 -253.395 26.4648C-254.985 26.408 -250.612 24.0221 -246.011 22.3747C-238.684 19.8183 -220.907 15.8418 -203.868 13.0015C-195.178 11.5245 -189.839 11.2973 -160.305 11.1269C-159.225 11.1269 -157.976 10.6724 -157.294 9.99068C-156.329 9.02488 -156.215 8.40008 -156.499 5.61648C-156.783 2.71938 -156.726 2.20808 -155.647 1.24238C-153.943 -0.29142 -149.854 -0.405019 -144.799 0.901481ZM-122.307 20.0456C-117.423 26.1807 -116.401 27.6577 -112.254 34.5882C-109.812 38.5647 -107.881 41.9731 -107.881 42.0867C-107.881 42.2004 -113.334 39.1328 -119.979 35.2131L-132.02 28.169L-132.417 31.7478C-132.588 33.6793 -132.815 37.0877 -132.929 39.36C-133.042 43.0525 -132.872 43.6773 -131.225 46.3473L-129.407 49.3012L-130.089 53.3914C-130.713 56.9702 -130.657 58.1631 -129.521 64.1846C-128.782 68.1043 -127.192 73.5579 -125.772 77.2504L-123.33 83.556L-117.48 83.329C-114.242 83.215 -106.348 82.5901 -99.9864 81.9084L-88.3434 80.7156L-73.0083 82.1926L-57.6163 83.67L-52.2203 80.9995C-46.6543 78.216 -41.5994 77.023 -31.8304 76.1142L-27.6844 75.7166L-23.0833 66.4002C-20.5844 61.2876 -18.6533 57.027 -18.7673 56.9134C-18.8803 56.7998 -23.3673 58.1064 -28.6494 59.7538C-33.9883 61.3444 -43.5303 64.2982 -49.9483 66.2298C-56.3663 68.1611 -63.8643 70.4335 -66.7033 71.3424C-69.4863 72.2513 -71.8723 72.8762 -71.9854 72.8194C-72.0424 72.7057 -65.1133 67.9908 -56.4803 62.3101C-47.9044 56.6294 -40.8614 51.9144 -40.8614 51.8008C-40.8614 51.5735 -56.9913 51.744 -88.1733 52.2552C-95.6133 52.3688 -101.577 52.3688 -101.463 52.1984C-101.293 52.0848 -98.9073 51.3463 -96.1244 50.551C-91.6944 49.3012 -55.5714 43.5069 -52.3914 43.5069C-50.2324 43.5069 -50.8574 42.7116 -54.9464 40.3257C-61.9893 36.1788 -65.5674 34.7586 -91.4103 26.3512C-107.597 21.1249 -119.24 17.8869 -123.727 17.4324C-124.125 17.4324 -123.5 18.5686 -122.307 20.0456ZM-154.625 25.0446C-155.761 25.8399 -156.726 26.692 -156.726 26.9192C-156.726 30.2141 -154 40.2689 -149.911 52.1984C-144.969 66.5138 -144.742 66.9115 -140.766 72.4786C-138.495 75.6029 -136.564 78.0456 -136.507 77.9887C-136.393 77.9319 -137.529 73.1033 -139.006 67.3091C-141.334 58.1064 -141.959 56.2885 -144.004 53.3914L-146.333 50.0397L-145.253 47.313C-144.345 44.9271 -144.288 44.075 -144.856 40.4961C-145.708 35.0995 -148.548 27.1465 -150.365 25.1582C-151.16 24.3061 -151.955 23.6244 -152.183 23.6244C-152.353 23.6244 -153.432 24.2493 -154.625 25.0446ZM-167.518 33.2816C-169.222 34.9859 -168.881 37.0877 -166.268 41.8027C-164.053 45.836 -158.601 52.028 -157.294 52.028C-156.329 52.028 -157.181 48.1651 -158.771 45.4384C-159.509 44.1318 -161.441 41.9163 -163.088 40.4393C-166.041 37.883 -166.098 37.8262 -164.451 37.8262C-162.52 37.8262 -160.702 36.406 -160.702 34.929C-160.702 32.2591 -165.36 31.123 -167.518 33.2816ZM4.23566 60.9467C2.53165 63.7871 -2.35233 78.5569 -2.12534 80.1475C-2.01233 80.9995 -1.50134 81.2837 -0.251343 81.2837C1.22565 81.2837 1.50967 80.9995 2.41766 78.5001C2.98566 77.0231 4.74664 74.2963 6.28064 72.5921C11.6756 66.5137 12.5276 62.6509 9.34766 58.4472C7.92764 56.5726 7.87064 56.5158 6.73465 57.5383C6.10965 58.1064 4.97366 59.6401 4.23566 60.9467ZM18.0937 68.8997C16.9017 70.1495 16.5607 71.2856 16.2197 74.4668C16.0497 76.6255 15.4816 79.9202 15.0266 81.7949C14.5157 83.613 14.3456 85.317 14.6296 85.601C14.8566 85.828 18.0377 87.135 21.6727 88.498C27.5227 90.657 54.2167 104.233 53.7057 104.745C53.5917 104.858 47.2877 103.665 39.6767 102.131C20.0816 98.042 20.1386 98.099 14.5726 97.928L9.51764 97.758L8.21164 102.018C6.84863 106.392 6.84863 109.403 8.26865 109.403C8.66565 109.403 11.6197 109.119 14.7997 108.835C17.9807 108.494 20.7066 108.323 20.8206 108.437C20.9906 108.551 18.7186 109.516 15.8226 110.539C9.06366 112.925 6.05264 114.629 5.20065 116.617C4.00867 119.514 2.81564 127.751 2.47464 135.648C2.07764 144.396 2.47467 145.646 5.88266 147.18C6.90466 147.634 12.4146 150.133 18.2077 152.803C29.5107 157.973 32.0656 158.768 34.1676 157.689C38.5406 155.417 39.3356 152.747 37.5186 146.839C36.8936 144.623 36.4397 142.692 36.6096 142.521C36.7807 142.351 37.8027 142.749 38.8817 143.373C40.9837 144.623 41.4947 144.51 41.4947 142.692C41.4947 140.988 46.5497 136.5 50.7527 134.455C52.8537 133.489 54.7276 132.694 54.8987 132.694C55.0686 132.694 53.5356 135.136 51.4906 138.09C49.5026 141.044 47.9697 143.487 48.0827 143.487C48.2537 143.487 53.8197 139.795 60.4077 135.307L72.4487 127.127L91.3056 119.287C101.699 114.97 110.105 111.334 109.992 111.277C109.481 110.766 65.7466 117.583 43.7666 121.616C41.4377 122.014 39.4497 122.298 39.3927 122.241C39.2796 122.184 45.9247 118.833 54.1597 114.799C62.3387 110.823 69.1546 107.415 69.2677 107.358C69.3817 107.244 68.0186 104.915 66.2007 102.188C63.0207 97.36 62.5096 96.849 48.6507 86.226C36.2126 76.6823 22.3537 67.5363 20.1387 67.4227C19.8547 67.3659 18.8897 68.0476 18.0937 68.8997ZM-46.8243 89.293C-47.9603 90.486 -48.0173 90.43 -43.1333 97.814C-39.4413 103.438 -34.9543 108.835 -33.9883 108.835C-33.3643 108.835 -30.6374 102.188 -29.9564 99.064C-29.3314 96.11 -29.6154 92.815 -30.5814 91.282C-32.1143 88.839 -44.7803 87.305 -46.8243 89.293ZM-97.0903 92.077C-101.633 92.815 -107.995 93.611 -111.289 93.781C-119.752 94.236 -120.831 94.463 -121.228 95.826C-121.853 97.758 -119.468 99.632 -111.459 103.552C-103.678 107.358 -100.384 108.267 -98.3394 107.187C-96.6353 106.278 -85.7303 91.736 -85.7303 90.373C-85.7303 90.259 -86.4124 90.259 -87.3214 90.373C-88.1733 90.543 -92.5463 91.282 -97.0903 92.077ZM-11.3264 95.145C-12.1223 95.713 -13.8823 98.099 -15.3023 100.427C-16.7224 102.756 -19.6194 106.676 -21.7773 109.176C-28.5934 117.015 -29.7853 121.503 -25.9233 125.138C-24.2193 126.786 -19.9033 129.285 -18.7673 129.285C-18.4833 129.285 -17.0633 125.763 -15.5863 121.446C-12.2353 111.561 -12.4063 111.789 -10.5313 113.038C-9.28235 113.834 -8.65735 113.891 -6.78336 113.379C-5.53336 113.038 -3.82935 112.186 -2.97736 111.391C-1.38736 110.084 -1.38733 110.028 -1.50134 103.722C-1.67136 96.508 -2.23935 94.974 -5.24936 94.122C-7.46436 93.497 -9.45236 93.838 -11.3264 95.145ZM-79.7673 103.154C-86.8093 107.187 -88.5703 108.607 -88.5703 110.198C-88.5703 111.561 -86.3553 112.811 -80.9034 114.515C-73.8033 116.731 -64.7154 123.661 -63.9774 127.524C-63.0684 132.012 -63.7504 136.613 -66.2494 143.033C-67.4994 146.327 -67.6123 147.009 -66.9313 147.804C-65.8513 149.111 -61.8194 148.6 -54.3784 146.157C-51.0844 145.021 -46.0864 143.714 -43.3604 143.203C-37.4533 142.124 -34.6133 141.044 -34.6133 139.851C-34.6133 138.772 -35.6924 137.579 -43.9283 130.081C-50.7433 123.832 -63.9774 108.096 -68.1234 101.393L-70.1114 98.212L-72.3833 99.178C-73.6333 99.746 -76.9843 101.507 -79.7673 103.154ZM107.379 104.006C94.0316 105.54 65.4626 112.073 63.3616 114.061C63.0206 114.402 63.0777 114.459 63.6447 114.288C66.5417 113.322 96.9277 106.903 105.675 105.426C111.468 104.461 116.41 103.608 116.751 103.438C118 102.984 114.138 103.211 107.379 104.006ZM96.7007 118.833C89.0897 121.844 77.2766 128.32 78.0146 129.115C78.1286 129.172 82.7287 127.467 88.2946 125.309C93.8606 123.093 100.109 121.048 102.154 120.707C105.675 120.139 106.13 119.855 108.401 117.299L110.787 114.572L105.618 115.992C102.779 116.731 98.7457 118.037 96.7007 118.833ZM-124.92 117.924C-132.758 119.514 -148.093 124.059 -149.911 125.366C-150.592 125.82 -150.536 125.877 -149.627 125.65C-147.469 125.082 -133.724 121.787 -120.376 118.719C-107.938 115.822 -107.37 115.652 -111.857 115.936C-114.526 116.106 -120.376 117.015 -124.92 117.924ZM129.303 117.129C127.94 118.492 128.167 121.162 129.814 122.809C133.392 126.388 139.242 127.865 152.817 128.49L161.052 128.831L159.064 127.297C156.281 125.195 149.238 121.673 141.798 118.719C134.926 116.049 130.893 115.538 129.303 117.129ZM-8.65735 119.117C-10.2473 120.367 -12.1223 124.059 -13.0873 127.922C-14.1093 131.955 -11.4973 137.068 -7.29434 139.283C-5.70435 140.079 -5.70435 140.079 -5.42035 138.261C-5.24936 137.238 -4.85236 132.694 -4.51135 128.149C-3.82935 120.026 -3.88635 119.912 -5.07935 118.946C-6.66934 117.64 -6.89636 117.697 -8.65735 119.117ZM-112.141 123.605C-114.356 124.286 -116.173 124.968 -116.287 125.025C-116.344 125.082 -115.889 126.331 -115.265 127.808L-114.129 130.478L-111.232 128.036C-107.881 125.195 -105.439 121.275 -107.484 122.014C-107.824 122.184 -109.983 122.866 -112.141 123.605ZM113.116 127.979C111.071 132.069 110.389 138.829 111.923 139.795C112.15 139.908 112.775 137.409 113.286 134.228C113.854 131.046 114.422 127.865 114.592 127.127C115.047 125.195 114.365 125.65 113.116 127.979ZM130.893 130.308C132.483 133.375 137.652 137.863 143.445 141.215C145.66 142.465 144.979 141.783 133.222 130.876C130.495 128.32 129.757 128.149 130.893 130.308ZM-145.026 131.558C-150.308 133.148 -154.739 134.512 -154.852 134.568C-154.966 134.682 -150.252 135.761 -144.401 136.897C-138.495 138.09 -131.622 139.511 -129.01 140.079C-124.352 141.044 -124.295 141.044 -123.5 139.851C-122.364 138.318 -122.364 138.318 -124.523 133.546C-126.113 129.853 -126.51 129.342 -128.044 129.115C-133.099 128.433 -135.712 128.831 -145.026 131.558ZM87.7267 130.649C77.5607 131.785 72.0507 133.205 65.6327 136.329C61.2597 138.431 54.0467 143.771 54.7277 144.396C54.8417 144.51 63.5887 143.828 74.1526 142.919C84.7737 141.953 93.6906 141.215 94.0316 141.272C94.3156 141.272 86.8187 143.942 77.2767 147.123L59.9537 152.974L70.4606 153.372C76.2536 153.599 83.7516 154.11 87.2157 154.564C95.1107 155.644 99.4836 155.644 100.847 154.621C101.813 153.94 101.927 153.144 101.813 146.839C101.756 142.976 101.927 138.886 102.211 137.806C102.551 136.727 103.119 134.739 103.46 133.432C104.085 131.501 104.028 130.933 103.403 130.137C102.495 129.058 102.381 129.058 87.7267 130.649ZM-92.2624 134.568C-93.5114 135.534 -96.9193 138.602 -99.8163 141.442C-106.404 147.918 -106.575 149.225 -101.065 152.008C-99.8734 152.633 -97.6583 154.508 -96.1813 156.269C-93.1713 159.734 -90.7283 160.87 -87.5483 160.245C-82.8344 159.393 -78.3474 155.644 -78.3474 152.69C-78.3474 151.838 -78.8583 150.077 -79.4833 148.77C-80.0513 147.464 -81.4713 143.373 -82.6064 139.738C-83.7423 136.102 -84.9354 132.466 -85.2194 131.728L-85.7303 130.308L-87.8893 131.614C-89.0253 132.296 -91.0124 133.659 -92.2624 134.568ZM-24.9583 134.966C-25.4124 135.761 -25.3553 136.613 -24.7303 138.034C-23.8224 140.249 -22.7993 140.931 -19.1083 141.783C-13.9393 142.919 -11.8383 140.249 -15.3023 136.954C-18.5963 133.773 -23.7654 132.751 -24.9583 134.966ZM-180.297 141.215C-185.863 142.635 -190.123 144.737 -193.133 147.464C-195.348 149.452 -195.462 149.736 -194.212 149.452C-192.224 149.054 -153.546 143.487 -152.751 143.487C-149.911 143.487 -158.033 140.704 -163.258 139.851C-166.439 139.397 -176.037 140.135 -180.297 141.215ZM-18.5963 152.122C-18.7104 152.917 -17.9724 156.382 -16.9493 159.791C-15.7574 163.881 -15.0183 167.744 -14.7914 171.493C-14.5644 175.526 -14.2234 177.174 -13.5984 177.571C-12.4064 178.31 -12.1783 178.31 -10.7583 177.117C-9.85034 176.378 -9.39536 175.129 -8.99835 172.175C-8.71436 169.959 -8.25934 167.176 -7.91934 165.926C-6.89633 161.722 -7.23734 156.95 -8.65735 154.792C-10.1903 152.463 -14.3933 150.19 -16.7224 150.418C-18.0854 150.531 -18.4833 150.872 -18.5963 152.122ZM1.84964 157.802C0.998627 158.655 0.94165 163.597 1.73666 165.131C2.75867 166.948 5.48465 168.028 8.21164 167.63C10.5966 167.232 10.7677 167.346 14.5157 170.698C18.6057 174.39 20.6497 175.072 22.2967 173.14C23.4897 171.777 25.5917 167.573 25.5917 166.494C25.5917 165.301 22.8647 163.71 17.3557 161.722C14.8567 160.756 11.2787 159.393 9.40366 158.598C5.71265 157.007 2.92963 156.723 1.84964 157.802ZM-44.2123 162.461C-46.5974 164.96 -52.2203 173.027 -52.2203 173.879C-52.2203 175.526 -49.7783 176.435 -45.4053 176.435C-41.4863 176.435 -40.9183 176.322 -39.6683 174.958C-38.3623 173.595 -38.3054 173.027 -38.1353 165.812L-37.9073 158.143L-40.2364 159.45C-41.4864 160.132 -43.2463 161.495 -44.2123 162.461ZM-103.905 161.665C-104.7 162.461 -105.041 163.54 -105.041 165.415C-105.041 167.801 -104.984 167.971 -103.792 167.63C-100.725 166.664 -98.7943 165.017 -98.7943 163.37C-98.7943 160.643 -101.861 159.62 -103.905 161.665ZM-70.1114 166.437C-71.7014 167.119 -73.2923 168.141 -73.6893 168.653C-75.5073 170.811 -73.1213 172.913 -68.2943 173.481C-66.1353 173.708 -65.6813 173.538 -63.8643 171.72C-61.8193 169.675 -61.4213 168.085 -62.4443 166.153C-63.2963 164.619 -66.5334 164.733 -70.1114 166.437ZM29.0556 171.436C28.0907 172.402 27.0117 174.106 26.6707 175.185C26.0457 177.003 26.1026 177.287 27.2386 178.196C30.1917 180.582 44.1637 183.195 45.1867 181.548C45.5837 180.923 41.5517 173.765 39.9606 172.345C38.0867 170.641 35.5877 169.618 33.2017 169.618C31.2707 169.618 30.4756 169.959 29.0556 171.436ZM1.50964 172.288C1.28265 173.481 0.998657 174.901 0.827667 175.469C0.543671 176.378 0.998657 176.492 6.22366 176.378C9.40366 176.322 11.9597 176.151 11.9597 175.924C11.9597 175.583 2.92966 170.3 2.24765 170.243C2.02066 170.186 1.67966 171.152 1.50964 172.288ZM-98.5663 176.492L-100.952 177.117L-101.577 181.548C-102.201 185.865 -102.201 186.32 -99.9864 195.863C-97.7714 205.577 -95.2153 212.792 -94.6473 211.088C-94.3633 210.349 -93.7393 206.316 -92.7163 198.249C-92.4323 195.92 -92.4323 195.863 -94.3073 195.466C-97.3174 194.841 -97.3174 194.67 -93.6823 192.228C-87.7184 188.251 -84.9354 182.57 -87.3773 179.276C-88.0023 178.367 -88.5703 177.344 -88.5703 177.06C-88.5703 176.776 -87.4344 175.697 -86.0143 174.674C-84.5943 173.652 -83.4583 172.629 -83.4583 172.402C-83.4583 172.175 -86.3553 172.856 -89.8763 173.936C-93.3413 175.015 -97.3174 176.151 -98.5663 176.492ZM-81.1873 182.002C-81.9824 182.627 -82.8344 183.763 -83.1743 184.672C-83.6293 185.979 -83.5153 186.376 -82.3793 187.285C-80.5623 188.762 -77.5524 188.649 -73.9734 187.001C-69.1464 184.729 -69.2024 181.548 -73.9734 180.525C-76.7003 179.957 -79.0854 180.469 -81.1873 182.002ZM-47.0523 190.694C-50.8573 191.262 -53.9243 192.568 -53.9243 193.534C-53.9243 193.818 -52.9593 194.5 -51.8233 195.011C-50.1753 195.693 -48.5284 195.806 -44.8373 195.579C-38.4753 195.125 -34.8973 194.045 -34.8973 192.625C-34.8973 190.239 -39.6683 189.444 -47.0523 190.694ZM-80.5623 193.534C-84.0263 194.102 -85.8443 195.125 -87.2073 197.17C-88.2863 198.817 -89.0253 205.407 -88.1163 205.407C-87.7753 205.407 -85.9573 203.703 -84.0833 201.544C-81.8683 199.101 -80.6194 198.079 -80.6194 198.704C-80.6194 199.499 -80.1643 199.726 -78.5173 199.726C-72.9513 199.726 -64.9433 197.738 -62.4443 195.75L-61.0244 194.613L-62.8983 194.954C-64.3184 195.238 -64.7153 195.125 -64.7153 194.386C-64.7153 192.512 -72.0424 192.057 -80.5623 193.534ZM-37.7943 204.952L-42.5083 208.418L-40.4633 212.167C-39.2704 214.212 -36.4873 218.87 -34.1593 222.449C-28.5933 231.027 -21.7773 243.581 -20.1303 248.296C-19.4483 250.341 -18.7103 252.216 -18.4833 252.386C-18.3123 252.614 -18.1423 242.104 -18.1423 229.039C-18.1423 207.111 -18.4833 202.282 -19.5623 208.02C-19.7324 209.156 -20.4143 211.712 -21.0393 213.701L-22.1754 217.393L-24.3904 215.803C-26.2073 214.496 -27.1733 212.962 -29.5583 207.793C-31.2054 204.327 -32.6254 201.43 -32.7964 201.43C-32.9094 201.43 -35.1813 203.021 -37.7943 204.952ZM-52.1074 212.621C-52.3344 214.212 -45.0074 225.176 -42.3943 227.164C-39.7823 229.152 -36.8853 230.572 -36.8853 229.834C-36.8853 228.186 -44.6093 215.916 -47.8474 212.337C-49.3803 210.633 -51.8794 210.804 -52.1074 212.621ZM-8.37335 221.426C-10.0204 233.981 -11.8943 251.023 -11.6104 251.307C-10.9864 251.932 -8.20334 240.968 -6.89633 232.617C-5.53333 223.812 -5.42035 222.108 -5.87436 217.166C-6.15836 214.155 -6.55536 211.656 -6.72635 211.656C-6.95334 211.656 -7.63535 216.087 -8.37335 221.426ZM-78.4604 219.722C-83.4583 221.029 -87.3214 223.301 -87.8323 225.176C-88.2863 226.994 -87.1503 230.97 -84.3103 237.503C-80.2783 246.819 -80.1074 248.126 -81.3004 258.806C-82.0954 266.134 -81.4144 269.883 -76.8704 283.914C-75.1664 289.141 -73.8033 293.912 -73.8033 294.424C-73.8033 294.992 -73.1783 296.753 -72.4403 298.4C-70.7363 302.036 -69.8843 302.263 -59.6043 301.865C-50.6873 301.468 -49.0963 300.843 -49.1534 297.889L-49.2104 295.787L-44.0984 299.252L-39.0433 302.774L-30.9783 298.571C-26.6053 296.298 -22.6864 294.196 -22.2884 293.912C-21.9474 293.628 -21.4933 291.924 -21.2664 290.163C-20.9824 287.664 -21.5504 283.289 -23.7654 270.451L-26.6053 253.977L-29.8423 247.387L-33.0804 240.741L-47.3363 235.571C-55.1743 232.731 -63.1823 229.891 -65.1703 229.209C-67.1584 228.527 -68.6913 227.902 -68.5783 227.789C-68.4643 227.675 -63.2393 228.868 -57.0483 230.345C-42.3373 233.924 -41.9973 234.038 -41.9973 233.356C-41.9973 231.936 -46.8243 226.937 -50.3463 224.608C-59.8883 218.302 -67.7263 216.939 -78.4604 219.722ZM-97.6584 296.923C-99.3624 297.662 -102.713 299.479 -105.041 301.07C-107.37 302.661 -110.664 304.478 -112.311 305.16L-115.265 306.353L-109.301 309.023C-102.713 311.92 -102.088 312.034 -101.065 310.784C-100.157 309.705 -98.2263 309.705 -98.2263 310.784C-98.2263 311.239 -98.9073 312.886 -99.7593 314.363C-101.179 316.919 -101.236 317.317 -100.611 319.362C-99.6464 322.6 -97.0904 325.383 -93.1714 327.485L-89.7064 329.303L-89.1953 327.997C-88.9113 327.258 -88.5133 325.099 -88.2863 323.168C-87.8893 319.362 -86.5823 317.09 -84.4243 316.408C-82.8344 315.954 -81.1873 314.533 -81.1873 313.624C-81.1873 313.284 -82.2094 311.579 -83.4583 309.932C-85.6173 307.092 -85.7303 306.637 -85.7303 303.001C-85.7303 299.025 -86.2983 297.207 -87.9453 295.844C-89.1953 294.821 -93.7953 295.333 -97.6584 296.923ZM-26.7184 303.626C-29.5583 304.876 -32.3413 306.296 -32.9663 306.864C-34.8403 308.569 -34.3293 310.443 -31.2054 313.454C-28.0254 316.522 -27.2303 316.806 -27.2303 314.761C-27.2303 313.17 -25.0714 311.466 -23.4814 311.75C-22.6863 311.863 -22.3453 311.409 -22.0613 309.648C-21.3233 305.217 -20.9254 301.411 -21.2094 301.411C-21.3794 301.411 -23.8794 302.433 -26.7184 303.626ZM-54.0944 308.569C-59.3204 309.762 -64.8293 312.261 -66.0793 313.965C-67.4424 315.897 -67.2154 317.487 -64.9994 322.43C-63.9203 324.815 -61.7054 330.837 -60.1154 335.836C-58.5254 340.778 -56.8213 345.607 -56.3663 346.516C-54.8903 349.356 -52.8453 350.833 -50.3463 350.833H-48.1313L-48.4724 353.787C-49.4944 363.16 -49.4944 363.558 -48.3014 366.285C-47.6764 367.818 -46.8243 369.011 -46.4273 369.011C-46.0293 369.011 -42.2243 369.409 -38.0213 369.807C-33.8183 370.261 -27.6273 370.772 -24.2763 371L-18.1423 371.397V365.66C-18.1423 360.888 -18.5963 357.877 -20.6983 348.447C-22.1183 342.142 -23.2543 335.666 -23.2543 334.018C-23.2543 328.167 -23.4243 327.883 -29.2744 324.304C-32.2284 322.486 -34.6133 320.839 -34.6133 320.668C-34.6133 320.441 -33.8753 320.157 -32.9093 319.93C-31.9443 319.76 -31.2054 319.248 -31.2054 318.794C-31.2054 316.465 -38.7023 309.364 -42.2813 308.285C-45.0074 307.489 -49.6644 307.603 -54.0944 308.569ZM-124.466 309.307C-126.226 309.648 -130.373 311.182 -133.724 312.772C-137.075 314.363 -143.152 316.862 -147.298 318.283C-151.387 319.646 -156.272 321.464 -158.146 322.316L-161.554 323.85L-158.998 324.134C-156.613 324.418 -157.067 324.588 -165.246 326.633C-175.129 329.133 -214.659 342.596 -228.574 348.22C-236.924 351.572 -237.492 351.912 -235.674 352.196C-234.595 352.367 -221.532 353.162 -206.708 353.957C-179.502 355.434 -164.678 356.627 -161.554 357.593L-159.85 358.048L-161.554 358.786C-162.52 359.184 -167.745 359.695 -174.049 359.979C-180.013 360.263 -197.507 361.513 -212.955 362.763C-228.404 364.012 -244.705 365.319 -249.135 365.717C-255.78 366.228 -257.143 366.455 -256.632 367.08C-256.291 367.534 -250.612 370.545 -243.966 373.897C-232.664 379.577 -228.404 382.134 -221.872 387.303C-217.499 390.712 -212.331 393.325 -207.73 394.518C-205.288 395.143 -198.359 395.995 -191.316 396.563C-178.48 397.529 -172.516 398.494 -168.54 400.198L-166.098 401.221L-170.358 401.619C-172.686 401.846 -182.967 402.471 -193.19 403.096C-210.059 404.118 -225.678 405.822 -228.574 407.015C-229.37 407.356 -228.745 407.64 -226.019 408.151C-211.195 411.049 -185.182 418.945 -170.982 424.966C-159.282 429.909 -140.255 439.623 -140.937 440.361C-141.05 440.418 -152.012 438.089 -165.246 435.135C-189.953 429.625 -203.697 426.784 -215.284 424.682C-222.27 423.433 -241.524 420.706 -241.751 420.933C-241.808 420.99 -233.402 426.33 -223.065 432.806C-212.671 439.282 -204.379 444.565 -204.606 444.565C-204.89 444.565 -210.456 442.804 -217.101 440.645C-231.017 436.101 -252.884 429 -254.985 428.375L-256.405 427.977L-254.985 429.511C-254.19 430.306 -251.691 432.408 -249.476 434.112C-247.204 435.817 -243.398 438.6 -241.07 440.361C-235.958 444.224 -228.972 451.382 -225.167 456.778C-222.384 460.641 -217.272 470.128 -217.726 470.526C-218.124 470.923 -222.497 468.481 -229.426 464.163C-242.092 456.153 -245.216 454.563 -248.056 454.563C-250.612 454.506 -250.725 454.62 -251.407 456.494C-251.748 457.574 -252.088 460.244 -252.088 462.402C-252.145 467.231 -251.407 468.481 -245.67 473.196C-241.581 476.547 -230.96 486.659 -231.244 486.886C-231.358 486.943 -234.425 486.148 -238.173 485.068C-241.865 483.989 -244.989 483.25 -245.102 483.364C-245.216 483.478 -245.443 484.33 -245.614 485.239C-245.841 486.659 -245.443 487.397 -242.376 490.692L-238.798 494.555L-233.402 493.987C-230.449 493.703 -218.067 492.908 -205.856 492.226C-182.455 490.976 -176.321 491.09 -161.611 493.135L-156.045 493.93L-148.264 489.954L-140.539 485.977L-145.083 486.318C-147.582 486.488 -152.978 486.886 -157.01 487.17C-166.268 487.909 -199.154 488.818 -214.83 488.874C-225.678 488.874 -226.643 488.818 -226.473 487.909C-226.246 486.545 -221.248 485.012 -202.448 480.353C-174.447 473.423 -157.465 470.412 -142.357 469.73C-137.756 469.56 -134.178 469.162 -134.405 468.935C-136.052 467.288 -145.197 463.709 -161.27 458.483C-181.831 451.779 -184.102 450.927 -183.819 450.018C-182.967 447.348 -157.238 451.098 -131.509 457.63C-127.817 458.539 -124.182 459.335 -123.387 459.335C-121.456 459.335 -119.411 457.006 -118.956 454.449C-117.309 444.792 -114.47 438.657 -109.642 434.226L-106.461 431.329L-105.893 440.077C-105.325 448.314 -105.212 448.996 -103.678 451.211C-102.769 452.575 -101.917 453.654 -101.804 453.654C-100.781 453.654 -97.2603 451.098 -92.8874 447.178C-87.3773 442.179 -76.9273 434.567 -69.5433 430.079C-67.0443 428.545 -64.9434 427.239 -64.8293 427.182C-64.6024 427.068 -63.5803 413.15 -63.7503 412.98C-63.8073 412.923 -66.9314 414.003 -70.6794 415.423C-84.9923 420.763 -86.4124 421.217 -85.7303 420.422C-85.3904 419.967 -81.6414 417.297 -77.3813 414.4C-69.2593 408.833 -66.6473 406.561 -65.7953 404.402C-65.0563 402.357 -65.1703 397.074 -66.0223 396.392C-69.1463 393.893 -81.1303 395.938 -114.583 404.743C-119.979 406.163 -125.602 407.413 -134.576 409.117C-138.211 409.799 -121.967 401.903 -111.005 397.699C-102.315 394.347 -95.2154 392.132 -82.6064 388.837C-70.9063 385.826 -66.1353 383.895 -65.5114 381.963C-64.4883 378.612 -69.0323 377.873 -92.3763 377.873C-101.122 377.816 -108.222 377.646 -108.108 377.419C-107.256 375.999 -97.7144 374.067 -82.6634 372.136C-76.1324 371.34 -69.9413 370.318 -68.9753 369.863C-65.7383 368.557 -65.6813 366.228 -68.9183 360.661C-69.9413 358.843 -72.1563 354.81 -73.8604 351.685C-78.0063 344.016 -83.9133 337.881 -88.8543 336.12C-94.0233 334.245 -94.7614 333.734 -95.3293 331.689C-95.6703 330.496 -97.6583 327.883 -100.384 325.043C-103.167 322.089 -105.439 319.021 -106.404 316.976C-109.074 311.352 -110.835 310.159 -117.821 309.364C-119.695 309.137 -121.228 308.909 -121.228 308.853C-121.228 308.853 -122.705 309.023 -124.466 309.307ZM-82.3224 319.021C-84.8224 320.384 -85.6743 330.155 -83.6293 334.075C-82.1523 336.859 -78.1763 340.665 -74.9393 342.312L-72.5533 343.505L-72.9514 340.494C-73.4623 336.234 -74.7123 331.462 -76.4164 327.088C-77.2114 324.986 -78.1204 322.543 -78.4604 321.691C-79.0854 320.157 -80.3914 318.453 -80.9594 318.453C-81.1303 318.453 -81.7554 318.737 -82.3224 319.021ZM-263.505 378.328C-263.505 378.498 -262.539 380.373 -261.403 382.531C-259.813 385.372 -258.052 387.474 -254.928 390.2L-250.668 393.95L-234.368 394.12C-225.451 394.234 -218.294 394.12 -218.521 393.95C-218.749 393.779 -226.189 390.712 -235.106 387.133C-245.727 382.929 -253.224 380.259 -256.973 379.464C-263.505 378.044 -263.505 378.044 -263.505 378.328ZM69.8927 380.032C69.8927 380.146 72.2787 381.736 75.1177 383.497C78.0146 385.315 83.5807 389.121 87.3867 391.905C91.2487 394.688 96.4736 398.097 98.9156 399.46L103.46 401.903L108.685 399.744C113.002 398.04 132.143 387.303 131.234 387.133C131.063 387.133 117.375 385.485 100.847 383.554C84.2626 381.566 70.5746 379.918 70.2906 379.862C70.0636 379.862 69.8927 379.918 69.8927 380.032ZM-296.901 382.872C-303.774 386.394 -306.557 389.689 -305.761 393.382C-305.534 394.518 -305.364 396.96 -305.477 398.892C-305.648 402.755 -304.909 403.891 -302.297 403.55C-300.82 403.38 -300.706 403.152 -300.706 401.107C-300.706 399.858 -300.934 398.267 -301.161 397.529C-301.558 396.506 -301.445 396.279 -300.423 396.279C-296.276 396.279 -293.664 392.189 -293.607 385.599C-293.607 383.384 -293.72 381.509 -293.891 381.509C-294.061 381.509 -295.424 382.134 -296.901 382.872ZM15.8226 386.053L10.5396 388.894H12.9826C15.4246 388.894 17.0147 389.973 18.5487 392.586C19.0597 393.552 19.3436 392.984 20.1956 389.178C20.7066 386.678 21.3316 384.349 21.4447 383.952C21.8997 382.815 21.5016 382.986 15.8226 386.053ZM-284.122 383.724C-285.769 384.349 -289.347 389.632 -290.597 393.211C-291.051 394.631 -291.335 395.881 -291.221 395.995C-291.051 396.165 -288.836 395.483 -286.28 394.575C-281.793 392.927 -277.533 392.245 -276.738 393.041C-276.568 393.268 -276.965 394.063 -277.704 394.859C-279.067 396.336 -283.554 397.983 -286.166 397.983C-287.643 397.983 -291.335 401.051 -291.335 402.357C-291.335 403.777 -289.006 404.402 -285.087 404.005C-280.203 403.55 -271.172 401.278 -268.105 399.744C-263.959 397.585 -265.095 395.597 -274.523 388.553C-282.248 382.759 -281.964 382.929 -284.122 383.724ZM57.3977 396.392C58.4197 400.539 59.8396 405.141 60.5777 406.618L61.9417 409.288L67.1667 407.527C70.0637 406.561 72.5627 405.652 72.7327 405.538C72.8466 405.425 69.1547 401.505 64.4967 396.847C59.8397 392.189 55.9207 388.496 55.8076 388.61C55.6366 388.723 56.3747 392.245 57.3977 396.392ZM161.904 399.346C156.736 400.426 149.466 401.959 145.717 402.755C136.573 404.686 131.007 405.311 119.874 405.652C109.708 405.993 108.515 406.163 108.515 407.356C108.515 409.401 113.002 410.026 121.294 409.004C125.043 408.606 132.427 408.208 137.765 408.208C153.953 408.208 164.971 405.595 171.275 400.369C175.592 396.79 174.683 396.733 161.904 399.346ZM-24.6743 401.619C-26.4344 402.528 -27.9113 404.289 -31.0353 409.06C-36.6583 417.695 -38.8163 420.422 -41.5424 422.41C-42.8494 423.376 -43.9854 424.057 -44.0414 423.944C-44.1554 423.83 -43.9854 420.024 -43.5873 415.423C-43.2463 410.821 -43.1333 406.902 -43.3033 406.731C-43.9854 406.05 -48.2444 407.754 -49.3243 409.174C-50.7433 410.935 -50.9144 416.332 -49.8354 429.341L-49.2104 437.691L-46.4273 436.214C-43.4733 434.624 -22.6293 415.65 -19.1083 411.446C-16.6093 408.322 -15.8704 406.618 -15.8704 403.664C-15.8704 399.574 -19.3923 398.778 -24.6743 401.619ZM11.3916 405.879C8.09763 407.867 -4.00034 419.229 -4.34033 420.649C-4.51132 421.388 -4.34036 422.808 -3.94336 423.773C-2.63635 426.841 -2.69336 432.579 -4.17035 444.678C-5.76035 457.517 -6.04434 467.856 -4.90836 470.128C-3.94336 472.116 -1.44434 473.139 2.36166 473.196C6.96167 473.252 8.66562 471.491 11.1076 463.879C11.6756 462.175 13.4937 457.801 15.1407 454.222C18.2646 447.405 19.2296 444.565 18.4346 444.565C18.1507 444.565 15.1976 445.474 11.7896 446.496C8.4386 447.576 5.71265 448.257 5.71265 448.087C5.71265 447.86 8.94965 445.417 12.8116 442.633C23.7737 434.794 26.5567 431.215 27.8627 423.376C28.4877 419.286 28.6587 407.64 27.9767 407.64C27.7496 407.697 25.0797 410.935 21.9566 414.855L16.3336 422.012L15.3107 420.649C14.4026 419.513 14.2317 418.206 14.2317 412.014C14.2317 407.697 14.0046 404.8 13.6636 404.8C13.3796 404.8 12.3576 405.254 11.3916 405.879ZM70.8017 421.274C65.4626 423.319 63.3617 426.614 65.9167 428.943C66.5417 429.511 67.1096 429.852 67.2236 429.738C67.3367 429.625 68.7567 427.693 70.4606 425.534C74.7206 420.024 74.6066 420.138 74.2666 420.138C74.0387 420.138 72.5056 420.649 70.8017 421.274ZM-299.855 430.761C-303.774 436.328 -307.522 440.02 -309.226 440.02C-310.646 440.02 -311.782 435.646 -311.782 430.306V425.194L-315.928 428.432C-321.551 432.919 -324.788 436.044 -325.811 437.975C-326.549 439.395 -326.549 439.679 -325.811 440.418C-324.675 441.611 -304.796 446.269 -300.366 446.439C-295.481 446.61 -294.743 445.928 -292.471 439.225C-290.653 433.658 -290.426 431.897 -291.392 429.397C-291.96 427.864 -294.629 424.682 -295.254 424.682C-295.424 424.682 -297.526 427.409 -299.855 430.761ZM129.53 431.897C131.802 434.34 134.301 436.669 135.153 437.123C137.993 438.714 144.865 437.748 145.66 435.646C146.285 434.169 144.922 432.692 141.287 431.045C136.913 428.943 126.86 426.614 125.611 427.352C125.497 427.409 127.258 429.454 129.53 431.897ZM-30.2404 435.135C-36.3174 438.089 -41.8833 441.156 -44.4963 443.145C-46.8813 444.962 -48.8123 446.496 -48.8123 446.61C-48.8123 446.724 -48.0173 450.359 -47.0523 454.677C-45.7453 460.641 -45.4053 463.198 -45.6893 465.64L-46.0294 468.821L-42.7354 469.446C-40.5204 469.901 -36.2603 469.958 -29.7853 469.674L-20.1303 469.276L-19.3923 465.868C-18.5963 461.891 -18.4834 456.892 -18.9944 444.281C-19.2784 435.533 -19.7323 430.363 -20.0733 430.363C-20.1873 430.363 -24.7303 432.522 -30.2404 435.135ZM43.3687 433.26C40.3017 434.226 36.0417 435.93 33.9407 437.066C29.5667 439.282 28.2037 440.986 24.8527 448.2C23.6597 450.7 21.4447 455.017 19.8547 457.801C16.5037 463.766 14.2317 469.39 14.2317 471.832V473.593L16.0497 472.628C18.8896 471.151 23.1487 466.833 27.6927 460.868C31.7257 455.529 35.0767 452.461 37.6887 451.609C39.9607 450.87 43.0847 448.485 44.5047 446.383C49.9566 438.202 52.9106 433.09 52.6266 432.351C52.1727 431.045 49.5027 431.329 43.3687 433.26ZM56.3746 434.737C54.6716 436.214 47.1176 449.109 47.9697 449.109C48.5936 449.109 52.6267 447.178 55.6367 445.417C60.6347 442.463 63.0777 439.907 63.0777 437.464C63.0777 434.169 58.9877 432.522 56.3746 434.737ZM-66.5903 437.691C-69.8273 439.963 -72.7813 443.088 -79.1423 451.098C-82.5503 455.358 -84.5944 458.426 -84.5944 459.278C-84.5944 460.584 -84.4813 460.641 -81.0733 460.357C-76.3593 459.96 -69.5433 457.176 -66.9313 454.62C-64.8863 452.575 -63.6934 449.507 -63.5233 445.985C-63.3524 442.179 -63.5804 436.044 -63.9203 436.044C-64.0913 436.044 -65.2833 436.782 -66.5903 437.691ZM-267.878 441.554C-267.764 441.838 -266.912 445.076 -266.06 448.825L-264.47 455.642L-261.176 458.88L-257.938 462.061L-257.541 459.164C-256.178 449.393 -257.598 445.587 -263.789 442.406C-266.06 441.213 -268.332 440.759 -267.878 441.554ZM-85.5603 466.947C-92.6603 469.901 -98.7943 472.741 -99.2484 473.196C-102.713 476.604 -81.1304 478.422 -73.9734 475.297C-69.7704 473.423 -68.5783 471.889 -68.0663 467.742C-67.1584 459.846 -68.4073 459.789 -85.5603 466.947ZM-5.30637 479.842C-8.37335 483.478 -6.32834 487.681 -1.33035 488.136C1.33865 488.42 1.62265 488.306 3.04266 486.602C5.42865 483.819 4.91766 479.785 2.13367 478.649C1.45267 478.365 -0.194336 478.138 -1.50134 478.138C-3.43234 478.081 -4.11337 478.365 -5.30637 479.842ZM-38.1353 480.637C-45.5753 481.774 -46.5403 482.001 -46.5403 482.91C-46.5403 483.989 -42.4514 485.409 -37.3394 486.091C-31.8304 486.886 -22.4594 485.92 -20.8683 484.5C-19.5623 483.307 -19.5623 481.149 -20.8683 480.41C-22.3453 479.558 -31.6033 479.672 -38.1353 480.637ZM-71.1903 490.408C-70.9633 490.976 -70.6223 494.953 -70.4523 499.27C-70.1683 506.201 -69.9984 507.223 -69.0323 507.962C-67.8394 508.814 -66.0793 508.53 -64.7723 507.28C-63.8073 506.371 -63.2964 500.804 -63.8073 497.111C-64.2614 494.157 -66.3633 491.374 -68.9753 490.238C-71.3044 489.215 -71.7583 489.272 -71.1903 490.408ZM-129.464 500.577C-131.168 501.088 -133.212 502.224 -134.178 503.19L-135.882 504.837L-135.484 510.007C-135.314 512.847 -135.03 515.347 -134.86 515.46C-134.519 515.858 -101.633 510.347 -101.633 509.95C-101.69 508.984 -113.561 502.167 -118.105 500.463C-120.888 499.441 -125.829 499.497 -129.464 500.577ZM-47.3363 501.713C-49.5513 503.871 -47.7903 506.541 -43.3033 507.791C-39.2704 508.927 -31.6033 509.893 -26.8323 509.893C-21.7773 509.893 -22.1183 508.814 -28.0814 505.973C-37.5674 501.429 -45.3483 499.725 -47.3363 501.713ZM-186.318 507.109C-192.054 509.666 -217.613 518.982 -218.976 518.982C-219.089 518.982 -219.203 520.232 -219.203 521.709C-219.203 524.379 -219.033 524.663 -214.262 529.946C-211.479 532.9 -209.093 535.399 -208.923 535.399C-208.752 535.456 -209.434 532.445 -210.456 528.81C-211.479 525.117 -212.274 522.107 -212.217 521.993C-212.103 521.936 -210.399 522.902 -208.412 524.208L-204.777 526.481L-203.527 524.947L-202.334 523.413L-202.05 526.026C-201.88 527.446 -201.426 529.037 -201.028 529.491C-200.517 530.116 -200.346 532.957 -200.403 539.887L-200.46 549.374L-198.245 551.873L-196.087 554.43L-192.736 552.555C-189.101 550.51 -167.972 535.911 -168.256 535.683C-168.37 535.57 -172.743 536.763 -177.968 538.353C-183.251 539.887 -187.624 541.08 -187.737 540.967C-187.851 540.853 -184.443 538.353 -180.127 535.399L-172.346 530.06V527.617C-172.346 526.31 -172.175 525.231 -171.948 525.231C-171.664 525.231 -171.494 525.458 -171.494 525.685C-171.494 525.969 -171.153 526.594 -170.755 527.162C-170.017 528.185 -169.79 528.128 -166.836 526.253C-164.11 524.492 -163.258 523.413 -159.68 517.335C-157.465 513.585 -155.818 510.461 -155.988 510.461C-156.158 510.461 -162.236 512.733 -169.449 515.517C-181.319 520.118 -187.908 522.391 -189.214 522.391C-189.498 522.391 -189.214 521.425 -188.589 520.232C-187.965 519.039 -184.784 515.801 -181.149 512.733C-175.81 508.132 -172.63 504.61 -172.63 503.247C-172.63 503.076 -173.993 503.076 -175.64 503.303C-177.571 503.474 -181.547 504.951 -186.318 507.109ZM-228.12 505.121C-229.37 505.462 -229.37 505.519 -228.461 507.053L-227.552 508.643L-221.872 506.712C-218.749 505.632 -216.022 504.61 -215.852 504.44C-215.454 503.985 -226.246 504.61 -228.12 505.121ZM-44.1553 518.073C-47.1083 519.096 -47.1084 520.346 -44.0984 523.243C-41.0883 526.14 -30.8654 531.991 -28.0814 532.445C-26.4344 532.729 -25.8663 532.502 -24.5603 531.082C-22.5723 528.98 -19.8463 523.527 -19.8463 521.652C-19.8463 519.437 -22.1183 517.846 -26.1504 517.278C-30.7514 516.653 -41.3153 517.108 -44.1553 518.073ZM-2.40933 522.391C-4.22733 523.981 -4.34036 524.322 -4.90836 529.321C-5.24936 532.559 -5.24933 537.729 -4.96533 542.784L-4.45435 550.965L-0.0813599 555.566C2.30463 558.122 6.45065 562.837 9.06366 566.132C11.6757 569.427 14.1747 572.494 14.6296 572.949C15.3676 573.687 15.4247 572.722 15.0836 565.848C14.7426 557.952 14.6866 557.781 9.51764 540.398L4.34964 522.902L2.36166 521.823C-0.30835 520.402 -0.194336 520.402 -2.40933 522.391ZM-227.723 526.14C-228.12 527.219 -228.234 529.037 -228.006 530.173C-227.666 532.161 -223.236 543.807 -218.181 556.191C-214.546 565.053 -214.091 567.155 -214.489 572.722C-214.886 578.346 -214.262 580.277 -211.024 583.97L-208.582 586.753L-205.629 580.561C-203.186 575.505 -202.505 573.403 -201.937 569.086L-201.198 563.803L-208.752 553.407C-212.899 547.67 -216.817 541.591 -217.556 539.944C-219.033 536.422 -226.132 524.152 -226.7 524.095C-226.871 524.095 -227.382 525.004 -227.723 526.14ZM-127.362 527.276C-133.326 528.696 -141.846 531.025 -146.162 532.445L-154.057 535.059L-159.169 539.66C-161.952 542.159 -165.132 545 -166.211 545.909L-168.199 547.556L-167.802 544.773C-167.575 543.239 -167.518 542.103 -167.688 542.273C-171.096 545.625 -178.65 556.077 -182.001 561.985L-186.204 569.484L-185.011 573.631C-184.102 576.812 -182.569 579.766 -178.139 586.583C-170.528 598.342 -170.358 598.455 -174.277 589.764C-175.242 587.605 -175.981 585.787 -175.867 585.674C-175.753 585.56 -174.333 586.015 -172.686 586.753L-169.676 588.003L-167.177 585.276L-164.678 582.493V586.526C-164.678 588.741 -164.508 590.559 -164.337 590.559C-164.11 590.559 -162.236 589.139 -160.077 587.435C-157.976 585.731 -156.102 584.31 -155.931 584.31C-155.818 584.31 -157.635 588.571 -160.021 593.797C-162.349 599.023 -164.28 603.568 -164.28 603.909C-164.28 604.193 -163.201 606.295 -161.895 608.51C-160.475 611.01 -158.317 616.35 -156.442 622.087C-154.739 627.313 -150.365 638.675 -146.673 647.366L-140.028 663.159L-137.131 662.023C-133.553 660.602 -128.782 657.989 -117.309 651.116C-108.165 645.605 -99.3623 641.742 -84.7083 636.857C-81.1873 635.664 -77.6654 634.073 -76.8704 633.335C-75.5074 632.085 -75.4503 631.858 -76.2454 630.722C-76.7003 630.04 -78.0634 629.131 -79.2553 628.677C-81.2433 627.995 -83.6864 628.165 -104.473 630.495C-117.139 631.915 -127.59 632.994 -127.703 632.88C-127.76 632.767 -125.545 631.46 -122.648 630.04C-116.117 626.745 -99.5894 621.235 -90.2744 619.247C-81.3574 617.315 -79.0854 616.406 -78.0634 614.361C-76.9274 612.203 -76.9843 607.658 -78.2903 601.296C-78.9153 598.342 -79.7104 593.002 -80.0514 589.423C-80.5054 584.424 -81.1873 581.3 -82.8904 576.301C-84.1404 572.722 -85.1624 569.427 -85.1624 568.972C-85.1624 568.575 -84.4814 567.325 -83.6863 566.246C-81.3573 563.235 -81.2433 560.054 -83.2314 556.077C-85.5034 551.533 -94.0233 542.728 -97.9984 540.796C-103.451 538.126 -105.609 539.319 -113.39 549.431C-118.105 555.509 -127.59 564.655 -132.758 568.064C-135.03 569.597 -136.961 570.733 -137.075 570.62C-137.188 570.506 -135.087 563.746 -132.417 555.623L-127.646 540.853L-122.137 533.468C-116.06 525.345 -115.605 524.663 -116.117 524.663C-116.287 524.663 -121.342 525.856 -127.362 527.276ZM-70.1114 527.844L-71.6454 530.514L-71.3614 545.341C-71.0774 558.35 -70.9063 560.622 -69.8843 563.803L-68.6913 567.382L-69.9984 571.756C-71.1903 575.846 -71.2473 576.585 -70.7933 586.753C-70.4523 595.388 -69.9984 599.194 -68.4073 606.636L-66.5334 615.838L-66.4763 595.331L-66.4193 574.824L-64.4313 569.484C-62.4443 564.144 -62.4443 564.144 -62.4443 554.43C-62.4443 549.09 -62.7284 541.421 -63.0124 537.388L-63.6364 530.06L-66.0223 527.617C-67.2713 526.31 -68.4073 525.231 -68.4644 525.231C-68.5214 525.231 -69.2594 526.424 -70.1114 527.844ZM-45.5183 554.941C-41.9403 571.983 -41.6563 572.949 -40.4633 572.949C-39.4413 572.949 -39.1003 572.494 -38.8163 570.79C-38.2484 567.893 -38.2483 563.973 -38.7023 561.588C-39.1003 559.713 -38.9864 559.542 -36.3744 557.725C-33.7043 555.907 -33.6483 555.85 -32.3983 550.453C-31.7163 547.443 -31.2623 544.886 -31.3763 544.716C-31.7163 544.375 -49.0963 536.706 -49.2104 536.82C-49.2674 536.876 -47.6203 545.057 -45.5183 554.941ZM-23.8793 552.044C-24.2193 552.726 -24.6173 555.282 -24.7874 557.838C-25.0143 561.815 -25.3553 562.894 -27.0023 565.678C-28.0814 567.439 -30.2404 572.892 -31.8304 577.891C-35.9193 590.73 -39.6113 601.693 -41.2023 605.499C-44.7233 613.85 -43.6443 615.952 -35.1244 617.543C-26.7184 619.133 -23.7083 617.883 -24.6173 613.168C-25.6964 607.374 -25.6964 607.26 -23.5953 601.012C-21.3233 593.968 -20.6413 591.241 -19.5053 584.026C-18.5403 577.778 -17.8583 555.736 -18.5963 553.35C-19.1083 551.533 -21.1523 550.112 -22.5154 550.624C-22.9134 550.794 -23.5383 551.419 -23.8793 552.044ZM-5.53336 577.607C-5.64737 593.968 -5.53336 596.069 -4.51135 600.784L-3.37534 606.011L-5.64734 610.158C-7.86234 614.134 -7.91934 614.418 -7.91934 619.701V625.155L-4.11334 621.065C1.56564 615.043 5.82565 609.135 7.13266 605.443C7.81366 603.682 8.55264 602.261 8.89264 602.261C9.17664 602.318 10.1996 602.545 11.1646 602.716C12.7546 603.057 12.9826 602.943 13.6636 601.409C14.6866 598.853 14.0616 597.433 9.97165 592.547C3.32666 584.765 -2.75034 569.881 -2.80734 561.417C-2.80734 559.486 -2.97736 559.258 -4.11334 559.429L-5.36334 559.599L-5.53336 577.607ZM-196.598 580.334C-198.642 581.868 -200.63 586.867 -200.233 589.082C-200.006 590.105 -199.04 591.695 -198.018 592.661C-195.348 595.217 -186.374 600.841 -183.648 601.693C-181.263 602.432 -179.445 601.921 -179.445 600.557C-179.445 600.16 -181.433 596.638 -183.932 592.775C-186.374 588.855 -188.93 584.594 -189.612 583.345C-191.656 579.311 -194.042 578.289 -196.598 580.334ZM48.0827 602.602C45.4137 604.477 28.2037 617.827 25.9317 619.701L24.7397 620.781L26.4436 620.383C29.7377 619.701 35.0197 616.804 40.0747 612.998C42.8577 610.839 47.2307 607.829 49.7297 606.295C54.8987 603.114 55.4667 602.489 54.1597 601.466C52.6266 600.33 50.8657 600.671 48.0827 602.602ZM20.5927 601.75C16.6176 603.625 -1.10333 622.428 -1.10333 624.757C-1.10333 625.155 -0.0813599 625.211 1.56564 624.984L4.29266 624.587L-0.251343 627.143C-4.28433 629.472 -9.05536 633.676 -9.05536 634.926C-9.05536 635.607 -5.19235 633.903 -2.35236 631.972C1.22565 629.529 4.17865 628.109 8.21164 626.916C13.3226 625.325 14.6297 624.075 17.4127 617.997C18.8327 614.929 20.9337 611.578 22.3537 609.987C27.0677 604.931 27.9767 602.375 25.4207 601.353C23.6037 600.614 22.8647 600.671 20.5927 601.75ZM-39.6683 637.255C-43.5873 638.845 -46.9954 640.322 -47.2224 640.493C-47.3924 640.663 -47.3364 643.958 -46.9954 647.707L-46.4273 654.638L-49.0403 659.239C-51.4254 663.386 -51.8793 664.863 -54.2083 675.827C-55.6284 682.473 -56.7074 687.927 -56.5944 688.04C-56.5374 688.097 -54.4353 683.723 -51.9933 678.269C-47.5634 668.385 -47.5063 668.328 -43.1333 664.238C-37.8513 659.353 -30.5244 649.07 -27.2303 641.856C-25.1284 637.425 -25.0143 636.743 -25.5823 635.266C-26.2643 633.619 -26.3783 633.619 -29.3883 633.96C-31.0923 634.187 -35.6923 635.664 -39.6683 637.255Z" fill="white"/>
</svg>
