<svg width="340" height="467" viewBox="0 0 340 467" fill="none" xmlns="http://www.w3.org/2000/svg">
<path d="M54.9753 1.53655C52.6791 2.10105 47.2618 2.71135 42.912 2.89845C37.9484 3.12836 32.9766 3.74805 29.3936 4.56405C11.7001 8.70445 -8.9436 18.0196 -30.2913 31.6651C-42.603 39.5397 -44.4537 40.1136 -58.4 40.9346C-67.7727 41.5174 -69.3379 41.7631 -77.6898 44.1501C-86.4351 46.696 -88.3913 46.9891 -96.3054 47.1013C-103.05 47.238 -103.273 47.2333 -101.195 46.4414C-98.7799 45.5451 -97.4803 44.6811 -97.4651 43.9572C-97.4417 42.8435 -101.086 41.2628 -105.137 40.5091C-112.687 39.1805 -116.185 35.9873 -117.382 29.2771C-117.93 26.2016 -118.307 25.5809 -120.225 24.0921C-122.363 22.4316 -122.416 22.2634 -122.984 17.5162C-123.319 14.8909 -123.493 12.5475 -123.323 12.4396C-123.153 12.2761 -122.103 12.6881 -121.003 13.3797C-119.903 14.0713 -118.91 14.5379 -118.797 14.4289C-118.683 14.3198 -118.358 12.0983 -118.134 9.42896L-117.644 4.64836L-119.607 2.60156C-122.06 0.043057 -124.675 -0.123345 -128.955 2.01505C-131.375 3.18975 -132.626 4.38906 -135.15 7.84566C-136.871 10.205 -138.983 12.6118 -139.832 13.2067C-141.189 14.1809 -141.636 14.2273 -143.572 13.5738C-146.894 12.5569 -148.747 10.5681 -151.207 5.66976C-153.93 0.0416565 -155.13 -1.15354 -154.369 2.37216C-153.664 5.95236 -154.068 6.61236 -157.242 6.54556L-159.86 6.49056L-152.23 11.9433C-148.058 14.9279 -144.99 17.3879 -145.491 17.3773C-145.992 17.3668 -157.433 15.6221 -170.983 13.4989C-184.478 11.3768 -195.643 9.74936 -195.812 9.85716C-195.927 10.0219 -194.833 10.992 -193.353 12.1373C-188.197 16.0338 -179.011 19.0124 -163.523 21.7335C-152.365 23.695 -149.982 24.3022 -150.004 25.3045C-150.029 26.5295 -152.225 27.5976 -162.441 31.2267C-174.23 35.4355 -180.755 38.3623 -182.52 40.1636L-183.886 41.5276L-179.972 40.8857C-172.144 39.5461 -163.279 36.6128 -147.32 30.1519C-137.148 26.0204 -134.244 25.6915 -129.779 27.958C-125.92 29.9332 -120.694 35.7811 -120.741 38.0084C-120.768 39.2892 -121.166 39.6708 -123.13 40.3537C-124.477 40.8267 -128.951 41.624 -133.141 42.1487C-151.687 44.4329 -167.544 48.6676 -170.627 52.2239C-171.312 52.9894 -171.259 53.1019 -170.028 52.8493C-169.3 52.6974 -166.899 52.4694 -164.78 52.3468C-162.603 52.1697 -156.854 51.6778 -151.941 51.224C-147.028 50.7145 -138.207 49.8972 -132.402 49.4064C-112.587 47.706 -111.376 48.4 -122.552 55.24C-141.856 67.0901 -148.639 74.3571 -161.489 97.2611C-161.722 97.7021 -162.573 98.4641 -163.361 98.8371C-164.714 99.5891 -165.825 99.3991 -175.526 97.0781C-190.384 93.5341 -193.327 93.082 -202.633 93.165C-209.822 93.237 -211.219 93.4301 -214.7 94.6941C-218.968 96.2761 -219.636 96.262 -229.448 93.883C-236.488 92.175 -246.359 92.5801 -266.253 95.3931C-282.403 97.6721 -284.252 98.1901 -281.495 99.5291C-280.999 99.8181 -270.425 100.375 -258.009 100.803C-233.678 101.593 -233.678 101.593 -248.316 103.514C-260.384 105.098 -277.881 110.524 -292.06 117.078C-301.569 121.502 -320.93 133.407 -319.945 134.263C-319.835 134.321 -304.981 130.121 -286.93 124.874C-268.881 119.683 -253.915 115.429 -253.639 115.546C-253.363 115.664 -254.957 117.301 -257.116 119.261C-260.294 122.036 -263.229 123.812 -271.731 128.035C-277.587 130.976 -284.01 134.35 -286.041 135.589C-289.654 137.797 -295.441 142.745 -295.006 143.255C-294.841 143.37 -291.65 142.657 -287.784 141.624C-283.974 140.59 -270.977 137.242 -258.989 134.152C-246.945 131.063 -236.804 128.379 -236.411 128.276C-234.953 127.805 -236.894 130.048 -244.238 137.47C-248.335 141.562 -252.723 146.205 -254.038 147.793C-256.725 151.024 -259.909 156.75 -259.654 157.87C-259.455 158.988 -246.084 151.08 -235.224 143.342C-230.247 139.826 -222.261 133.643 -217.496 129.62C-212.731 125.598 -208.709 122.452 -208.599 122.51C-208.49 122.623 -206.917 127.28 -205.028 132.835C-202.093 141.643 -199.988 150.211 -200.611 150.699C-200.725 150.808 -204.6 152.231 -209.259 153.915C-216.727 156.655 -220.891 158.573 -217.697 157.749C-213.104 156.564 -190.509 155.145 -173.343 154.893C-162.754 154.782 -153 154.597 -151.604 154.459L-149.092 154.233L-151.362 156.191L-153.633 158.205L-164.879 157.801C-173.341 157.456 -176.185 157.563 -176.194 158.009C-176.204 158.454 -174.764 158.875 -172.429 159.146C-170.373 159.412 -167.707 159.803 -166.487 160.051L-164.267 160.488L-170.159 162.481C-184.19 167.311 -197.252 173.777 -213.515 184.076C-224.978 191.355 -231.846 197.339 -234.175 202.137C-234.99 203.791 -235.522 205.228 -235.413 205.342C-235.304 205.455 -229.335 202.461 -222.123 198.658C-211.476 193.088 -156.947 167.438 -156.509 167.782C-156.399 167.84 -156.641 168.782 -156.998 169.833C-158.61 174.98 -159.397 180.59 -159.613 188.217C-159.765 195.456 -159.29 204.658 -158.54 208.741L-158.235 210.14L-156.523 208.226C-155.61 207.187 -153.07 202.95 -150.922 198.873C-144.129 185.813 -142.303 183.79 -136.588 182.239C-132.778 181.261 -120.383 180.017 -114.926 180.132C-111.695 180.2 -110.808 180.386 -110.546 181.171C-110.073 182.518 -112.333 184.03 -122.466 188.998C-142.057 198.558 -155.142 208.756 -160.758 218.833C-162.262 221.475 -162.441 222.029 -161.596 221.601C-160.978 221.335 -154.164 217.913 -146.448 213.953C-134.284 207.802 -100.588 192.522 -100.152 192.977C-100.098 193.034 -103.799 199.474 -108.42 207.287L-116.855 221.539L-118.686 231.806C-119.752 237.466 -120.755 242.737 -120.938 243.513L-121.302 244.898L-119.484 243.265C-116.986 241.034 -113.486 236.205 -108.871 228.726C-106.16 224.326 -103.698 221.202 -100.913 218.587C-96.4781 214.335 -92.7498 211.906 -92.3845 213.084C-92.2802 213.42 -91.8515 216.883 -91.4311 220.736C-91.0106 224.589 -90.5298 228.22 -90.3756 228.836C-90.1704 229.676 -90.501 229.502 -91.6424 228.141C-93.0031 226.608 -93.7758 226.258 -97.2182 225.684C-99.3831 225.304 -101.549 224.98 -101.939 224.972C-102.329 224.964 -100.045 227.63 -96.8803 230.816L-91.0964 236.62L-88.7423 249.204C-87.4394 256.139 -85.5498 264.312 -84.5003 267.398L-82.6682 273.008L-82.5352 287.885C-82.4288 296.076 -82.2157 304.493 -82.092 306.556C-81.8292 309.96 -82.0789 311.236 -84.4136 318.931L-87.0467 327.566L-86.1666 330.76C-85.3399 333.841 -85.3505 334.342 -86.8386 344.171C-88.5289 355.668 -90.7452 363.03 -92.4066 362.55C-92.9043 362.372 -97.0068 361.394 -101.609 360.351C-108.762 358.696 -113.131 357.156 -114.77 355.617C-114.99 355.446 -110.608 353.755 -105.054 351.922C-99.5004 350.145 -95.0644 348.511 -95.1735 348.397C-95.7187 347.829 -112.683 349.088 -120.34 350.208C-130.903 351.768 -140.305 353.743 -143.34 355.017C-145.307 355.811 -146.102 356.518 -146.863 358.285C-147.973 360.713 -148.87 360.973 -151.404 359.582C-153.552 358.423 -157.261 351.994 -160.759 343.453C-161.448 341.767 -163.174 339.057 -164.533 337.469C-167.414 334.01 -168.308 331.484 -168.212 326.918C-168.136 323.299 -167.079 320.758 -164.574 318.193L-163.092 316.608L-164.493 316.969C-169.529 318.033 -170.922 318.003 -173.679 316.664C-175.169 315.964 -176.495 315.435 -176.609 315.544C-176.722 315.653 -175.813 317.455 -174.574 319.486C-172.799 322.476 -172.061 324.497 -171.155 329.085C-170.554 332.328 -170.164 334.955 -170.385 334.894C-170.552 334.891 -172.186 333.074 -173.979 330.919C-176.696 327.631 -186.005 319.915 -194.734 313.715C-195.612 313.083 -192.933 307.569 -188.157 300.371C-184.474 294.767 -183.193 292.175 -179.596 282.725C-177.294 276.589 -173.891 268.416 -172.081 264.499C-170.272 260.581 -168.866 257.324 -168.975 257.211C-169.028 257.098 -172.767 260.028 -177.245 263.666L-185.408 270.291L-192.174 282.07L-198.996 293.848L-199.548 301.525C-199.861 305.808 -200.156 309.255 -200.267 309.253C-200.379 309.251 -209.321 302.6 -220.126 294.463C-230.931 286.325 -240.091 279.447 -240.476 279.216C-242.071 278.236 -239.589 282.076 -235.621 286.783C-227.902 295.97 -223.088 300.194 -207.935 310.874C-202.609 314.608 -198.494 317.647 -198.717 317.642C-198.939 317.637 -203.425 316.317 -208.628 314.704C-227.504 308.848 -241.862 305.37 -256.967 302.992C-263.297 301.967 -269.304 301.507 -282.277 301.067C-291.631 300.759 -298.982 300.604 -298.707 300.777C-297.88 301.184 -266.997 308.352 -243.262 313.697C-231.949 316.219 -215.748 319.456 -207.252 320.805C-198.701 322.21 -191.598 323.585 -191.437 323.867C-188.585 328.662 -186.457 330.824 -182.221 333.364C-177.653 336.079 -177.653 336.079 -175.576 340.635C-173.768 344.739 -172.791 345.986 -165.866 353.15C-161.668 357.528 -158.181 361.278 -158.184 361.445C-158.189 361.668 -159.632 361.415 -161.351 360.989C-163.125 360.562 -172.382 358.306 -181.973 356.043L-199.382 351.944L-234.568 353.322C-253.918 354.085 -270.369 354.797 -271.153 355.004C-271.936 355.154 -266.265 355.719 -258.643 356.214C-239.559 357.506 -207.14 360.528 -207.65 360.963C-207.877 361.125 -216.045 362.736 -225.888 364.479L-243.672 367.615L-249.054 366.554C-251.994 365.935 -261.098 364.351 -269.37 362.952C-277.587 361.553 -285.081 360.226 -286.024 360.039C-289.406 359.244 -286.812 360.413 -276.64 364.192C-266.909 367.794 -265.971 368.204 -263.572 370.706L-260.955 373.435L-266.357 375.995C-269.341 377.437 -271.651 378.669 -271.597 378.782C-271.488 378.896 -269.087 378.612 -266.348 378.224C-258.802 377.045 -245.994 377.37 -242.124 378.789C-238.751 380.03 -234.725 382.008 -235.066 382.335C-235.125 382.446 -237.846 382.054 -241.067 381.541C-244.898 380.903 -251.853 380.423 -261.375 380.167L-275.853 379.807L-286.913 375.842C-309.753 367.674 -329.757 362.462 -343.156 361.122L-347.882 360.633L-345.405 362.078C-328.445 371.626 -316.754 377.387 -301.287 383.729C-292.007 387.545 -284.221 390.884 -283.893 391.169C-283.619 391.398 -294.038 391.402 -307.07 391.128C-320.102 390.854 -337.648 390.652 -346.062 390.698L-361.33 390.767L-351.338 392.537C-345.842 393.488 -328.507 395.802 -312.779 397.693C-297.05 399.528 -284.103 401.192 -283.993 401.25C-283.884 401.364 -286.52 402.2 -289.827 403.133C-301.878 406.557 -341.481 419.261 -340.257 419.343C-340.035 419.403 -325.179 417.71 -307.305 415.579C-272.341 411.523 -248.775 408.954 -248.503 409.239C-248.449 409.351 -252.501 411.272 -257.619 413.559C-270.947 419.407 -272.569 419.707 -288.327 419.209C-301.802 418.814 -303.811 418.995 -315.561 421.366C-325.577 423.384 -350.975 430.928 -355.255 433.066L-357.226 434.083L-354.436 433.863C-352.873 433.729 -341.602 432.963 -329.328 432.163C-317.052 431.307 -304.275 430.461 -300.928 430.253C-297.579 429.989 -294.791 429.881 -294.626 429.995C-294.517 430.109 -301.416 434.922 -310.005 440.647C-318.539 446.372 -325.493 451.184 -325.383 451.242C-325.274 451.356 -320.668 449.614 -315.107 447.447C-309.6 445.223 -298.092 441.12 -289.619 438.29C-281.146 435.46 -273.404 432.893 -272.504 432.522C-269.193 431.366 -272.182 433.086 -291.121 443.495L-310.342 454.01L-318.038 462.316C-325.108 469.966 -340.596 488.47 -339.928 488.484C-339.259 488.498 -310.92 470.933 -291.548 458.472C-272.514 446.226 -269.177 443.845 -260.438 436.341L-250.679 427.967L-250.333 430.035C-250.19 431.208 -249.24 439.027 -248.189 447.35C-247.195 455.727 -246.281 462.599 -246.114 462.602C-245.947 462.606 -244.949 460.175 -243.996 457.243L-242.155 451.822L-242.606 441.507C-242.821 435.82 -242.946 431.138 -242.943 431.026C-242.886 430.972 -241.075 432.291 -238.994 434.006C-236.913 435.721 -231.535 439.622 -226.976 442.726C-222.472 445.829 -216.325 450.248 -213.367 452.65C-210.352 454.998 -208.044 456.55 -208.202 456.101C-208.36 455.652 -209.35 452.4 -210.446 448.868L-212.427 442.42L-218.409 435.442L-224.392 428.464L-219.905 424.436C-215.193 420.245 -206.62 415.3 -200.786 413.417L-197.7 412.424L-196.617 413.895C-195.37 415.537 -195.35 417.208 -196.47 422.811L-197.277 426.75L-191.601 448.261C-188.505 460.025 -185.761 469.943 -185.543 470.171C-185.324 470.398 -184.039 467.584 -182.623 463.825C-180.44 458.022 -179.83 455.528 -178.591 446.919C-177.672 440.309 -177.23 435.193 -177.334 432.183C-177.524 428.001 -177.401 427.446 -176.38 426.576C-175.245 425.597 -175.134 425.6 -171.712 427.176C-169.34 428.284 -166.324 430.576 -162.17 434.396C-158.78 437.475 -155.935 439.986 -155.768 439.99C-155.601 439.993 -155.592 439.548 -155.747 438.987C-155.847 438.428 -155.492 437.433 -154.92 436.721C-153.948 435.571 -153.669 435.521 -151.398 436.182C-148.462 436.968 -146.929 438.281 -143.843 442.524C-141.947 445.127 -140.633 446.213 -135.678 449.047C-128.739 452.925 -124.902 455.903 -120.546 460.729C-115.59 466.182 -117.14 468.322 -124.391 466.052C-128.154 464.859 -128.377 464.854 -127.399 466.045C-125.716 468.141 -125.884 468.194 -132.457 468.111C-137.805 468.054 -139.592 468.24 -142.343 469.24C-145.991 470.501 -147.854 471.687 -145.449 471.236C-141.645 470.481 -130.1 469.943 -125.149 470.326C-118.863 470.792 -113.439 472.522 -110.152 475.154C-105.878 478.586 -107.74 479.717 -124.091 483.607C-138.482 487.037 -151.094 490.616 -164.337 495.072C-175.783 498.898 -178.874 500.171 -179.961 501.485C-180.817 502.469 -179.868 502.378 -167.23 500.192C-161.861 499.247 -153.532 497.918 -148.782 497.238C-136.43 495.436 -116.36 492.181 -110.541 491.022C-107.464 490.419 -104.058 490.1 -101.666 490.262C-98.2166 490.502 -97.6632 490.68 -96.7434 491.981C-95.2285 494.13 -96.3229 495.834 -101.408 499.181C-110.05 504.793 -116.502 509.559 -119.741 512.555C-125.083 517.513 -124.976 517.738 -118.413 515.647C-115.272 514.655 -112.47 513.878 -112.247 513.883C-112.024 513.887 -114.089 516.685 -116.891 520.08C-122.723 527.2 -126.516 532.691 -128.329 536.775C-129.03 538.32 -131.049 544.239 -132.84 549.939C-134.632 555.639 -136.521 560.725 -137.091 561.326C-138.972 563.347 -141.799 562.619 -151.946 557.671C-163.472 552.025 -168.332 549.973 -175.361 547.708C-183.717 545.026 -190.651 543.543 -220.064 538.022C-222.728 537.52 -225.062 537.193 -225.175 537.302C-225.289 537.411 -212.207 543.257 -196.141 550.28C-180.077 557.358 -167.05 563.203 -167.108 563.313C-167.222 563.422 -169.555 563.094 -172.22 562.648C-180.604 561.247 -209.237 560.979 -224.248 562.112C-238.033 563.215 -242.614 563.787 -243.467 564.604C-243.865 564.986 -242.81 565.175 -240.471 565.225C-238.466 565.267 -228.232 566.095 -217.667 567.097C-207.102 568.099 -191.691 569.147 -183.453 569.543C-166.752 570.228 -163.476 570.743 -159.845 572.936L-157.37 574.492L-159.322 574.563C-160.382 574.652 -168.336 573.983 -177.008 573.077C-191.019 571.668 -193.634 571.502 -200.275 571.975C-204.46 572.277 -207.921 572.594 -208.09 572.702C-208.376 573.03 -199.608 574.718 -189.168 576.386C-168.788 579.6 -160.146 581.955 -162.911 583.623C-164.153 584.377 -166.21 584.167 -170.695 582.847C-181.271 579.728 -187.81 578.03 -190.589 577.693C-193.533 577.297 -192.983 577.643 -178.447 585.859C-166.277 592.689 -161.426 595.131 -154.075 597.959C-149.045 599.903 -144.957 601.549 -145.07 601.602C-145.128 601.713 -148.976 601.91 -153.55 602.148C-164.705 602.694 -171.857 603.658 -178.916 605.515C-182.166 606.393 -190.445 607.946 -197.265 609.028C-221.247 612.814 -230.698 614.509 -240.998 616.8C-252.25 619.293 -273.219 625.537 -277.721 627.671L-280.535 629.004L-276.63 628.752C-274.454 628.631 -267.697 627.881 -261.608 627.118C-255.463 626.356 -240.893 625.047 -229.231 624.233C-190.952 621.473 -179.942 619.866 -161.268 614.131C-152.743 611.469 -152.463 611.419 -145.892 611.557C-131.301 611.864 -117.061 612.999 -112.796 614.202C-104.711 616.545 -90.8439 624.803 -88.6401 628.637C-87.8873 629.935 -87.6534 632.056 -87.5283 639.357C-87.3028 649.835 -86.6765 657.146 -85.654 661.513C-85.0917 663.92 -85.0547 664.812 -85.635 665.914C-86.6228 667.843 -87.7946 667.93 -91.3238 666.184C-92.9782 665.37 -94.3611 664.895 -94.3646 665.062C-94.3763 665.619 -91.9381 668.901 -88.9464 672.362C-86.9884 674.632 -85.4793 677.059 -84.6374 679.416C-83.0568 683.739 -82.0127 684.43 -76.7777 684.54C-73.4919 684.609 -72.8201 684.456 -71.6248 683.255C-70.8299 682.548 -70.1939 681.447 -70.181 680.835C-70.1693 680.278 -69.518 678.453 -68.7032 676.799C-67.8896 675.2 -67.2372 673.32 -67.2231 672.652C-67.2091 671.984 -68.3318 669.732 -69.6819 667.698C-71.3545 665.1 -72.4169 662.627 -73.0823 659.827C-74.055 655.74 -75.0337 646.639 -74.9623 643.242L-74.868 641.406L-73.2927 643.333C-72.4239 644.41 -70.4336 647.794 -68.8817 650.835C-67.331 653.931 -64.806 658.386 -63.3515 660.756C-58.8766 667.869 -56.5128 672.041 -53.6793 677.728C-49.9378 685.271 -49.6616 685.388 -38.2448 685.628C-24.7674 685.912 -24.4831 685.639 -26.8003 673.947C-30.1212 656.998 -30.3453 651.756 -27.9262 645.345C-26.214 640.757 -26.0733 639.368 -27.2505 637.059C-28.1041 635.258 -27.722 632.982 -26.672 633.394C-26.2845 633.514 -20.1402 635.426 -12.9993 637.637C20.6588 647.982 31.221 651.769 33.6756 654.272C35.7463 656.488 33.7345 662.073 26.1708 674.671C23.0534 679.842 20.5638 684.302 20.5557 684.692C20.5077 686.975 27.1244 687.615 31.0082 685.747C33.8789 684.359 34.9106 682.988 38.8685 674.938C43.0563 666.558 44.1472 665.021 48.6159 661.828C50.6524 660.367 52.2956 659.065 52.2991 658.898C52.3014 658.786 51.0751 658.816 49.511 659.006C48.0026 659.197 46.7206 659.226 46.7229 659.115C46.7252 659.003 47.3718 657.401 48.1356 655.523C48.9551 653.646 50.7974 648.17 52.3472 643.356C58.7928 622.991 62.2237 616.155 70.3761 607.357C72.0867 605.499 73.5756 603.581 73.6419 603.081C73.6524 602.579 73.7397 601.077 73.8247 599.686C73.9248 597.571 74.157 597.131 75.5076 596.49C78.6011 595.107 83.6772 594.824 92.3535 595.563C105.756 596.736 114.717 597.203 113.502 596.676C112.896 596.385 109.175 595.806 105.172 595.387C98.7222 594.75 93.2357 593.354 93.2567 592.351C93.2602 592.184 94.7803 591.436 96.689 590.752C98.5421 590.067 99.9484 589.428 99.8394 589.314C99.7303 589.201 97.3274 589.54 94.4186 590.092C91.5642 590.7 88.9942 591.036 88.7169 590.974C87.9988 590.681 101.093 582.711 104.858 581.175L108.118 579.795L117.656 581.945C126.195 583.907 130.029 584.434 156.609 586.942C172.845 588.509 186.58 589.801 187.192 589.814C189.308 589.858 186.88 588.749 178.085 585.723C165.084 581.327 155.439 578.951 143.442 577.195C136.609 576.216 122.481 575.083 121.804 575.459C121.521 575.676 121.469 575.508 121.699 575.178C122.447 574.024 127.018 573.953 133.069 574.971C142.062 576.553 154.023 577.417 171.567 577.731C186.327 577.985 187.33 577.951 185.509 577.132C178.942 574.097 165.175 571.691 149.426 570.803C136.126 570.022 138.979 569.469 154.798 569.69C167.163 569.895 170.51 569.686 241.429 564.771C251.361 564.088 259.565 563.425 259.736 563.262C259.85 563.152 257.522 562.546 254.527 561.926C249.646 560.877 246.084 560.69 219.573 560.189C186.994 559.504 179.634 559.739 156.016 562.14C152.609 562.514 151.36 563.601 168.668 551.319C176.245 546.019 182.3 541.579 182.247 541.466C181.756 540.954 153.346 551.332 142.776 555.845L130.406 561.211L130.276 559.426C130.188 558.31 131.45 553.935 133.459 548.462C136.066 541.108 136.794 538.282 137.155 534.334C137.666 528.607 136.74 522.293 134.721 517.626C133.976 515.939 133.447 514.591 133.559 514.594C133.614 514.595 143.522 517.7 155.534 521.462C167.545 525.224 177.564 528.332 177.843 528.338C178.79 528.357 175.786 525.453 172.548 523.101C168.321 520.115 157.957 514.828 147.684 510.545C138.461 506.675 135.605 504.72 135.929 502.555C136.193 500.61 138.339 499.207 141.973 498.615C146.278 497.926 168.441 498.503 188.526 499.872C198.04 500.518 208.781 501.078 212.457 501.155L219.141 501.24L209.434 499.198C204.108 498.083 189.007 495.537 175.844 493.533C162.737 491.531 151.575 489.792 151.131 489.727C150.687 489.606 151.198 489.171 152.267 488.692C153.334 488.269 155.02 487.58 155.921 487.154C157.101 486.677 161.172 486.484 169.195 486.486C175.546 486.508 180.733 486.283 180.739 486.004C180.75 485.447 178.142 484.947 173.524 484.627L169.907 484.439L172.44 483.211L174.973 481.983L171.067 482.236C168.946 482.414 166.546 482.642 165.763 482.793C164.309 483.04 165.101 482.444 173.509 477.385C179.379 473.831 180.657 471.351 177.634 469.338C176.535 468.646 176.368 468.643 175.792 469.522C174.347 471.998 170.486 475.427 166.366 477.959C161.06 481.19 151.157 485.828 148.584 486.275C146.74 486.571 146.74 486.571 146.785 484.399C146.868 480.445 151.44 475.026 158.271 470.769C163.013 467.805 171.102 464.688 174.786 464.376C178.861 464.016 180.565 465.11 182.701 469.5C183.663 471.47 185.767 474.745 187.34 476.784C188.968 478.824 190.698 481.367 191.289 482.382L192.366 484.187L192.734 482.58C193.472 479.253 194.318 473.477 195.149 465.751L195.987 457.691L203.321 453.388C207.608 450.86 211.774 448.83 213.396 448.53C214.908 448.172 216.755 447.765 217.595 447.56L219.05 447.256L218.669 452.151C218.293 456.767 219.886 484.376 220.54 485.058C220.648 485.228 222.062 484.199 223.595 482.838C227.627 479.246 229.611 474.943 231.583 465.96C232.45 461.855 233.971 455.759 234.875 452.492L236.561 446.51L243.983 453.909C249.547 459.541 251.738 461.369 252.796 461.392C254.244 461.422 254.475 461.037 254.295 458.972C254.123 456.573 254.874 455.307 256.545 455.343C259.106 455.396 266.796 458.009 274.856 461.577C286.448 466.723 295.573 469.979 296.368 469.271C296.879 468.781 291.968 463.886 287.418 460.337C281.28 455.473 271.464 450.642 261.281 447.364C252.648 444.565 249.285 442.878 247.772 440.618C247.286 439.884 247.021 439.265 247.078 439.211C247.136 439.101 253.081 439.894 260.246 440.936C267.41 442.034 273.578 442.832 273.857 442.838C274.525 442.852 248.612 435.121 247.832 435.104C247.498 435.097 245.204 432.932 242.696 430.317C238.116 425.541 238.117 425.485 238.876 423.83C239.286 422.892 239.859 422.124 240.194 422.131C240.472 422.137 246.24 423.372 253.006 424.907C263.82 427.307 268.207 428.012 289.885 430.417C303.449 431.928 315.123 433.176 315.735 433.189C316.683 433.153 316.466 432.87 314.759 431.943C308.535 428.525 295.965 424.807 280.426 421.862C271.159 420.108 264.787 418.414 265.355 417.869C265.47 417.704 277.138 416.612 291.205 415.348C310.462 413.692 320.84 413.019 333.157 412.832C342.131 412.631 349.103 412.276 348.663 412.044C347.397 411.293 338.569 409.826 328.064 408.602C321.062 407.731 313.16 407.286 301.63 407.1C277.404 406.59 263.502 407.969 244.068 412.742C238.355 414.181 232.704 415.288 231.59 415.265C227.97 415.189 223.802 412.037 225.173 410.45C225.914 409.63 230.555 408.837 237.251 408.365C239.427 408.243 246.802 407.284 253.733 406.204C269.885 403.814 280.052 402.579 289.704 401.947C298.186 401.345 298.251 400.901 289.971 399.835C274.747 397.844 252.406 397.764 237.158 399.561C229.896 400.466 226.56 400.118 226.594 398.503C226.628 396.888 228.435 395.756 233.768 393.863C238.987 392.078 242.586 390.483 242.259 390.142C242.15 390.028 238.963 390.574 235.101 391.384C231.295 392.195 228.052 392.74 227.943 392.626C227.779 392.511 228.755 391.139 230.124 389.608C231.436 388.131 232.41 386.871 232.243 386.867C232.076 386.864 229.716 387.817 227.017 388.986L222.068 391.166L220.325 389.291C218.201 386.962 207.565 373.424 207.792 373.206C207.849 373.151 216.874 375.848 227.833 379.309C244.716 384.567 262.171 389.112 262.911 388.403C262.969 388.293 261.058 386.414 258.598 384.19C254.441 380.482 253.174 379.787 238.059 372.617C229.232 368.42 220.296 364.165 218.145 363.117L214.284 361.254L237.446 359.345C250.171 358.331 261.277 357.451 262.168 357.469C263.06 357.432 263.68 357.111 263.689 356.666C263.701 356.109 261.869 355.792 255.247 355.374C250.574 355.053 242.841 354.5 238.114 354.067C227.156 353.224 215.294 352.974 208.875 353.508C206.14 353.729 203.853 353.848 203.744 353.734C203.634 353.676 207.062 352.3 211.272 350.773C215.54 349.191 219.247 347.765 219.475 347.547C220.551 346.734 204.745 348.519 198.251 349.998C195.676 350.556 190.967 351.961 187.767 353.12C181.312 355.38 178.075 355.646 174.708 354.127C172.334 353.074 169.875 350.794 168.807 348.599C166.134 343.195 159.92 339.331 146.479 334.648C132.099 329.61 123.172 327.529 105.56 325.153C85.9476 322.512 81.909 321.146 71.4229 313.739C64.5597 308.915 60.6988 307.051 48.0912 302.497C38.4699 299.008 38.4071 299.341 48.7406 298.109L54.0465 297.497L50.9025 295.982L47.7573 294.523L42.7111 296.033C39.9078 296.865 37.3865 297.537 37.108 297.531C36.7739 297.524 37.2498 296.085 38.0658 294.375C39.288 291.894 39.6596 290.119 39.9713 285.892C40.3065 280.551 39.6989 272.349 38.6658 268.484C38.0977 266.355 35.3382 262.453 34.8264 262.943C34.6558 263.107 33.3341 270.321 31.9251 279.038C30.4604 287.753 29.076 295.301 28.8427 295.797C28.491 296.625 27.607 296.272 21.826 292.976C16.3212 289.796 13.5601 288.624 5.25665 286.054L-4.707 282.947L-4.56937 279.051C-4.37723 275.211 -4.37607 275.155 1.39096 265.862L7.21484 256.514L7.70117 249.282C8.26544 240.993 10.2665 230.617 11.6523 228.307C12.5761 226.766 12.7432 226.77 15.6878 227.166C17.3539 227.424 22.671 228.928 27.4834 230.589C32.3527 232.196 36.3936 233.451 36.5074 233.342C36.6211 233.233 33.606 230.885 29.8752 228.133C23.0712 223.143 14.9125 216.342 14.8708 215.673C14.7805 214.668 25.1109 210.93 39.406 206.774C59.9806 200.744 60.8834 200.206 44.0347 203.919C39.556 204.939 34.3556 205.832 32.5154 205.905C29.5579 206.121 28.9476 205.997 27.9117 204.917L26.7668 203.723L21.5787 206.678C18.759 208.29 16.3919 209.577 16.3374 209.52C16.284 209.408 16.0301 208.232 15.7809 206.834C15.3242 204.708 15.5833 202.986 17.2321 196.113C18.2737 191.623 20.0058 186.088 21.0563 183.826C22.9238 179.799 22.9807 179.744 24.7001 180.115C28.8038 181.037 34.1174 182.708 41.5251 185.482C45.8363 187.133 49.3759 188.377 49.3771 188.321C49.3841 187.987 33.9782 176.076 28.7079 172.344L23.1638 168.384L25.1498 164.024C26.2595 161.596 27.1382 159.554 27.1393 159.498C27.1405 159.442 27.9331 158.846 28.8382 158.197L30.5359 156.951L39.2076 163.206C43.9268 166.647 48.0985 169.632 48.4849 169.807C48.8143 170.037 46.729 165.871 43.776 160.572C40.823 155.273 38.5207 150.824 38.5787 150.714C38.6913 150.66 42.8623 151.027 47.8652 151.577L56.9266 152.548L64.5671 157.499C70.943 161.644 76.6219 164.494 98.1984 174.418C112.49 181.013 124.304 186.22 124.475 186.056C124.701 185.894 122.743 183.624 120.235 181.009C117.127 177.768 112.964 174.394 107.416 170.6C90.7176 159.219 85.7768 155.717 85.9485 155.498C86.0622 155.389 92.3297 156.746 99.8129 158.575L113.451 161.814L115.441 165.198C120.604 174.053 121.641 175.078 137.42 187.777C145.694 194.413 157.464 204.353 163.589 209.83C169.716 215.251 174.86 219.649 174.975 219.484C175.43 219.048 173.796 211.995 172.312 208.342C167.502 195.985 153.269 178.639 140.86 169.911C137.62 167.67 135.098 165.723 135.212 165.614C135.326 165.505 138.992 166.028 143.321 166.843C147.651 167.602 151.04 168.064 150.822 167.836C150.548 167.608 148.453 166.561 146.079 165.508C143.76 164.512 141.886 163.526 142 163.417C142.114 163.308 146.539 164.849 151.845 166.855C157.153 168.805 164.947 171.754 169.204 173.348C182.527 178.307 245.992 196.688 246.9 195.872C247.697 195.053 237.061 189.481 225.353 184.556C220.107 182.328 210.389 178.113 203.71 175.132C176.608 163.03 164.254 159.651 142.22 158.241C131.037 157.504 126.259 156.847 125.441 155.994C125.222 155.822 125.949 155.67 126.952 155.691C128.01 155.713 136.374 155.388 145.632 154.97C164.37 154.138 217.111 152.573 223.07 152.698C233.93 152.926 217.794 149.245 198.172 147.049C186.499 145.746 151.131 145.169 139.077 146.086C133.831 146.477 129.311 146.827 129.033 146.822C128.754 146.816 135.007 143.549 142.892 139.537L157.251 132.318L153.624 132.576C148.602 132.972 137.861 135.03 132.869 136.596C130.569 137.328 125.624 139.341 121.853 141.155C114.311 144.785 110.954 145.439 107.696 144.033C104.992 142.807 96.1495 136.716 96.1635 136.047C96.1857 134.989 99.1491 134.495 107.511 134.28C117.768 134.05 116.55 133.69 99.8701 132.003L87.6378 130.799L72.4443 124.685C64.1016 121.335 54.0406 117.558 50.0565 116.249C45.1873 114.642 42.5375 113.472 41.8867 112.623C41.3439 111.943 41.1363 111.214 41.3638 110.996C42.6124 109.908 51.0464 108.916 63.5935 108.4C71.2895 108.06 79.9346 107.629 82.8352 107.467L88.1341 107.189L84.5282 106.444C78.0926 105.139 70.5314 104.367 60.8979 104.109C55.7185 104 51.8236 103.751 52.2738 103.538C52.7229 103.38 65.499 99.9161 80.5726 95.8321L108.03 88.387L100.784 88.5141C96.8267 88.5981 88.9056 89.0441 83.2122 89.5371C65.293 91.1661 60.9432 91.3531 56.445 90.6451C50.4478 89.6841 47.0359 87.662 47.0921 84.9891C47.1436 82.5391 57.9445 69.6751 61.6066 67.7461C62.9027 67.0491 65.6632 65.6031 67.7484 64.4771C69.8881 63.4081 71.5242 62.4401 71.414 62.3821C71.3038 62.3241 69.4091 62.3391 67.2336 62.4611C65.0013 62.6371 63.1623 62.6541 63.1634 62.5981C63.1658 62.4871 66.1449 58.5942 69.7541 53.8791C75.6543 46.2039 81.2895 40.5287 82.9602 40.5638C84.7981 40.6025 100.271 49.3397 112.585 57.2307C120.446 62.2981 126.99 66.3911 127.048 66.2811C127.731 65.6271 123.517 59.3551 119.378 54.8109C112.405 47.2551 92.343 28.8951 84.8813 23.3902L81.5902 20.9256L84.6462 21.3241C99.3706 23.2492 156.029 28.7856 160.931 28.8329C162.492 28.81 158.253 26.3811 153.776 24.6715C146.644 22.0147 129.294 17.7503 112.645 14.6149C104.155 12.988 98.9247 12.6552 69.9685 11.8793C68.9103 11.8571 67.6945 11.3858 67.0402 10.7036C66.1134 9.73695 66.0149 9.12215 66.3507 6.39945C66.6888 3.56545 66.6437 3.06316 65.6054 2.09426C63.9663 0.555656 59.9588 0.359955 54.9753 1.53655ZM32.5269 19.8384C27.611 25.7516 26.5781 27.1783 22.3698 33.8863C19.8931 37.7338 17.9293 41.0351 17.927 41.1464C17.9246 41.2578 23.3342 38.3633 29.931 34.6581L41.8828 28.0015L42.1989 31.5177C42.3261 33.4145 42.4787 36.7602 42.5432 38.9899C42.5785 42.6117 42.3986 43.2208 40.7285 45.8039L38.8855 48.662L39.4695 52.6853C40.0084 56.2063 39.9281 57.3745 38.6902 63.2541C37.8854 67.0801 36.2136 72.3931 34.7453 75.9841L32.2206 82.1141L26.489 81.7711C23.3169 81.5931 15.5886 80.8171 9.3652 80.0181L-2.02704 78.6091L-17.0943 79.7401L-32.2172 80.8711L-37.4529 78.1431C-42.8533 75.299 -47.7853 74.0261 -57.3455 72.9331L-61.4028 72.4581L-65.7219 63.2311C-68.067 58.1681 -69.8727 53.952 -69.759 53.843C-69.6453 53.734 -65.2725 55.1072 -60.1271 56.8309C-54.9249 58.5001 -45.6295 61.5921 -39.3762 63.6181C-33.1228 65.6431 -25.8183 68.0251 -23.0525 68.9751C-20.3423 69.923 -18.0161 70.5851 -17.9036 70.5311C-17.8455 70.4211 -24.5428 65.6571 -32.8908 59.9101C-41.1832 54.1652 -47.9919 49.3982 -47.9895 49.2869C-47.9848 49.0641 -32.1719 49.5637 -1.60764 50.7076C5.68567 50.9724 11.5333 51.0953 11.4254 50.9259C11.2607 50.811 8.93686 50.038 6.22433 49.201C1.90613 47.8846 -33.3944 41.4603 -36.5132 41.3947C-38.6295 41.3502 -38.0005 40.5835 -33.9415 38.3291C-26.9503 34.4093 -23.4124 33.091 2.10062 25.3824C18.0805 20.5932 29.564 17.6592 33.973 17.3062C34.3629 17.3144 33.7268 18.4152 32.5269 19.8384ZM64.1125 25.4048C65.2099 26.2078 66.1391 27.063 66.1345 27.2857C66.0666 30.5154 63.1862 40.3152 58.9305 51.9246C53.7903 65.8551 53.5594 66.2401 49.5462 71.6151C47.2542 74.6311 45.3103 76.9861 45.2558 76.9291C45.1456 76.8711 46.3589 72.1611 47.9263 66.5121C50.3993 57.5389 51.0494 55.7699 53.114 52.9722L55.4664 49.7348L54.4645 47.0398C53.6226 44.6823 53.5844 43.8459 54.2151 40.3495C55.1617 35.0771 58.1102 27.3398 59.9333 25.4284C60.7305 24.6095 61.5242 23.9577 61.747 23.9624C61.9141 23.9659 62.9594 24.6006 64.1125 25.4048ZM76.5848 33.7448C78.2204 35.4504 77.843 37.5037 75.184 42.0716C72.9289 45.9795 67.4549 51.9367 66.174 51.9097C65.2272 51.8898 66.1422 48.1209 67.7577 45.4808C68.5087 44.2153 70.4478 42.0835 72.0933 40.6696C75.042 38.2247 75.0988 38.1702 73.4838 38.1363C71.5903 38.0965 69.8374 36.6669 69.8678 35.2191C69.9228 32.602 74.513 31.5843 76.5848 33.7448ZM-92.3973 57.3224C-90.785 60.1421 -86.2999 74.7201 -86.5555 76.2751C-86.6844 77.1081 -87.1915 77.3751 -88.4167 77.3501C-89.8647 77.3191 -90.1373 77.0351 -90.9768 74.5661C-91.5033 73.1071 -93.1736 70.3981 -94.6421 68.6951C-99.8076 62.6261 -100.563 58.822 -97.358 54.7669C-95.9271 52.9586 -95.8702 52.9041 -94.7775 53.9298C-94.1766 54.4996 -93.0943 56.0264 -92.3973 57.3224ZM-106.15 64.8321C-105.006 66.0821 -104.695 67.2031 -104.427 70.3281C-104.304 72.4481 -103.815 75.6891 -103.408 77.5361C-102.945 79.3281 -102.813 81.0021 -103.097 81.2751C-103.324 81.4931 -106.47 82.7081 -110.062 83.9701C-115.843 85.9651 -142.298 98.7231 -141.807 99.2351C-141.698 99.3491 -135.492 98.3091 -127.998 96.9631C-108.7 93.357 -108.757 93.4121 -103.295 93.3601L-98.3352 93.2971L-97.1421 97.5001C-95.8956 101.816 -95.9576 104.767 -97.3499 104.738C-97.7398 104.729 -100.63 104.39 -103.743 104.046C-106.854 103.646 -109.524 103.423 -109.638 103.532C-109.807 103.64 -107.6 104.634 -104.78 105.696C-98.2022 108.174 -95.2856 109.906 -94.4912 111.873C-93.3814 114.737 -92.3816 122.836 -92.2102 130.583C-92.0006 139.167 -92.4162 140.383 -95.7893 141.817C-96.8012 142.241 -102.255 144.578 -107.99 147.075C-119.18 151.91 -121.702 152.636 -123.74 151.535C-127.982 149.218 -128.707 146.584 -126.803 140.83C-126.144 138.672 -125.659 136.788 -125.823 136.617C-125.986 136.447 -126.997 136.815 -128.068 137.406C-130.154 138.587 -130.653 138.465 -130.616 136.684C-130.58 135.013 -135.445 130.51 -139.524 128.419C-141.564 127.429 -143.386 126.61 -143.553 126.607C-143.72 126.603 -142.267 129.029 -140.323 131.967C-138.434 134.904 -136.981 137.33 -137.092 137.327C-137.259 137.324 -142.641 133.59 -149.009 129.055L-160.647 120.788L-178.975 112.715C-189.078 108.269 -197.245 104.532 -197.133 104.478C-196.621 103.988 -153.879 111.571 -132.409 115.978C-130.134 116.416 -128.19 116.735 -128.134 116.681C-128.021 116.627 -134.468 113.205 -142.46 109.082C-150.398 105.015 -157.011 101.534 -157.121 101.476C-157.23 101.362 -155.845 99.1071 -154.007 96.4721C-150.789 91.8041 -150.277 91.313 -136.469 81.1861C-124.076 72.0881 -110.299 63.4081 -108.124 63.3421C-107.845 63.2931 -106.912 63.9811 -106.15 64.8321ZM-42.9145 86.1611C-41.8252 87.3541 -41.7684 87.2991 -46.7101 94.4381C-50.4459 99.8741 -54.9568 105.072 -55.9035 105.052C-56.5161 105.039 -59.0524 98.4681 -59.6563 95.3911C-60.208 92.4831 -59.8617 89.259 -58.8833 87.775C-57.3293 85.412 -44.8784 84.1701 -42.9145 86.1611ZM6.31537 89.926C10.7555 90.743 16.9766 91.6541 20.2032 91.8891C28.4919 92.5091 29.5454 92.7541 29.9071 94.0991C30.4799 96.0051 28.1022 97.7931 20.1689 101.47C12.4607 105.041 9.21185 105.864 7.22919 104.764C5.57718 103.837 -4.81595 89.358 -4.78787 88.021C-4.78552 87.91 -4.11722 87.9241 -3.22849 88.0541C-2.39661 88.2391 1.8764 89.053 6.31537 89.926ZM-77.8424 91.165C-77.0745 91.738 -75.3972 94.1131 -74.0529 96.4251C-72.7086 98.7381 -69.9491 102.64 -67.8843 105.134C-61.3628 112.959 -60.2858 117.383 -64.1477 120.867C-65.8524 122.447 -70.1365 124.808 -71.2504 124.784C-71.5288 124.778 -72.8485 121.297 -74.2075 117.034C-77.2897 107.276 -77.1273 107.503 -78.9909 108.689C-80.2325 109.443 -80.8463 109.486 -82.6735 108.946C-83.8917 108.586 -85.5449 107.716 -86.3639 106.918C-87.8964 105.605 -87.8952 105.549 -87.6539 99.3711C-87.3381 92.3021 -86.7496 90.8101 -83.7804 90.0371C-81.5955 89.4701 -79.6533 89.846 -77.8424 91.165ZM-10.8989 100.427C-4.07623 104.526 -2.37906 105.954 -2.41183 107.513C-2.43991 108.85 -4.63763 110.029 -10.0192 111.587C-17.0263 113.613 -26.0798 120.219 -26.8834 123.99C-27.867 128.37 -27.2935 132.895 -24.9753 139.239C-23.818 142.494 -23.7207 143.165 -24.4053 143.93C-25.4904 145.189 -29.434 144.604 -36.6793 142.057C-39.886 140.875 -44.7599 139.491 -47.4226 138.934C-53.1923 137.754 -55.9547 136.638 -55.9301 135.468C-55.9078 134.41 -54.8251 133.263 -46.5953 126.083C-39.7835 120.098 -26.4831 104.946 -22.2794 98.4611L-20.2647 95.3841L-18.0569 96.3771C-16.8434 96.9601 -13.5938 98.7551 -10.8989 100.427ZM-194.421 97.4051C-181.365 99.1831 -153.487 106.176 -151.467 108.168C-151.14 108.509 -151.197 108.564 -151.75 108.385C-154.57 107.379 -184.233 100.46 -192.779 98.8321C-198.44 97.7661 -203.268 96.8291 -203.598 96.6551C-204.814 96.1831 -201.032 96.4861 -194.421 97.4051ZM-184.256 112.158C-176.856 115.266 -165.405 121.858 -166.146 122.622C-166.258 122.676 -170.734 120.91 -176.147 118.68C-181.56 116.393 -187.644 114.26 -189.641 113.883C-193.083 113.254 -193.522 112.966 -195.697 110.414L-197.98 107.692L-192.941 109.19C-190.172 109.973 -186.245 111.337 -184.256 112.158ZM33.0717 115.836C40.7244 117.556 55.6675 122.327 57.4227 123.645C58.0817 124.105 58.0248 124.16 57.1384 123.918C55.0338 123.317 41.6243 119.804 28.6 116.522C16.4632 113.425 15.9098 113.247 20.3036 113.618C22.9176 113.84 28.6351 114.851 33.0717 115.836ZM-216.188 109.816C-214.88 111.18 -215.158 113.793 -216.807 115.374C-220.389 118.808 -226.156 120.135 -239.479 120.468L-247.561 120.632L-245.58 119.17C-242.808 117.167 -235.83 113.859 -228.473 111.117C-221.68 108.642 -217.715 108.224 -216.188 109.816ZM-80.954 114.608C-79.4203 115.866 -77.6586 119.524 -76.7914 123.331C-75.8721 127.305 -78.5393 132.263 -82.7061 134.348C-84.2819 135.095 -84.2819 135.095 -84.5229 133.307C-84.6689 132.301 -84.9651 127.839 -85.2056 123.377C-85.7065 115.4 -85.6484 115.29 -84.459 114.368C-82.8727 113.12 -82.6511 113.18 -80.954 114.608ZM20.424 121.141C22.5819 121.855 24.35 122.56 24.4602 122.618C24.5148 122.675 24.0435 123.891 23.4004 125.326L22.2316 127.919L19.4416 125.465C16.2143 122.612 13.9004 118.72 15.89 119.486C16.2207 119.66 18.3229 120.372 20.424 121.141ZM-200.54 120.785C-198.619 124.836 -198.09 131.477 -199.614 132.392C-199.839 132.499 -200.4 130.036 -200.836 126.907C-201.327 123.777 -201.818 120.647 -201.97 119.919C-202.376 118.017 -201.717 118.476 -200.54 120.785ZM-218.019 122.702C-219.642 125.676 -224.802 129.968 -230.552 133.134C-232.75 134.314 -232.067 133.659 -220.314 123.21C-217.588 120.761 -216.861 120.609 -218.019 122.702ZM52.5057 129.614C57.6522 131.282 61.9681 132.71 62.0783 132.768C62.1873 132.882 57.5427 133.843 51.783 134.836C45.9665 135.883 39.1985 137.134 36.625 137.637C32.0383 138.487 31.9827 138.486 31.2276 137.3C30.1453 135.774 30.1453 135.774 32.3599 131.141C33.9954 127.554 34.3958 127.061 35.9041 126.87C40.8748 126.306 43.4284 126.75 52.5057 129.614ZM-175.701 123.926C-165.755 125.249 -160.382 126.754 -154.154 129.949C-149.909 132.1 -142.946 137.483 -143.627 138.081C-143.741 138.19 -152.303 137.342 -162.643 136.233C-173.038 135.068 -181.766 134.16 -182.101 134.208C-182.38 134.203 -175.083 136.974 -165.793 140.289L-148.927 146.382L-159.238 146.555C-164.924 146.658 -172.286 147.005 -175.692 147.379C-183.456 148.274 -187.744 148.184 -189.059 147.154C-189.992 146.466 -190.087 145.684 -189.846 139.505C-189.71 135.72 -189.793 131.707 -190.049 130.643C-190.361 129.578 -190.877 127.617 -191.185 126.33C-191.757 124.424 -191.69 123.868 -191.061 123.101C-190.148 122.062 -190.036 122.064 -175.701 123.926ZM0.705933 131.478C1.91125 132.45 5.18958 135.528 7.97131 138.371C14.2981 144.855 14.4382 146.139 8.97879 148.754C7.79639 149.342 5.58578 151.134 4.1015 152.83C1.07843 156.165 -1.33972 157.228 -4.44559 156.55C-9.05045 155.618 -13.3728 151.85 -13.312 148.954C-13.2944 148.119 -12.7569 146.403 -12.1174 145.136C-11.5335 143.866 -10.0569 139.887 -8.86819 136.346C-7.67944 132.806 -6.43497 129.267 -6.1413 128.549L-5.61081 127.167L-3.52145 128.492C-2.42166 129.184 -0.500549 130.561 0.705933 131.478ZM-65.297 130.48C-64.8679 131.269 -64.9411 132.103 -65.583 133.483C-66.5197 135.636 -67.5362 136.283 -71.1737 137.042C-76.2651 138.049 -78.2707 135.389 -74.8056 132.23C-71.5099 129.18 -66.4209 128.284 -65.297 130.48ZM86.8912 139.808C92.3198 141.315 96.4533 143.463 99.3488 146.198C101.48 148.192 101.585 148.473 100.366 148.169C98.425 147.738 60.6136 141.484 59.8339 141.467C57.0493 141.409 65.0706 138.848 70.2118 138.12C73.3399 137.74 82.7366 138.662 86.8912 139.808ZM-71.888 147.166C-71.793 147.948 -72.5884 151.329 -73.6611 154.649C-74.9149 158.634 -75.7185 162.405 -76.0186 166.076C-76.3244 170.024 -76.6925 171.632 -77.3133 172.009C-78.4981 172.709 -78.7209 172.704 -80.0886 171.505C-80.9644 170.763 -81.3842 169.528 -81.7132 166.624C-81.946 164.447 -82.3341 161.709 -82.6425 160.477C-83.5584 156.335 -83.1259 151.665 -81.6891 149.578C-80.1374 147.327 -75.9694 145.186 -73.6907 145.457C-72.3565 145.596 -71.9737 145.938 -71.888 147.166ZM-92.0541 152.313C-91.2363 153.166 -91.2825 158.011 -92.0938 159.498C-93.1337 161.259 -95.8291 162.261 -98.4941 161.815C-100.825 161.376 -100.994 161.484 -104.739 164.692C-108.825 168.227 -110.844 168.853 -112.419 166.926C-113.561 165.565 -115.535 161.401 -115.512 160.343C-115.488 159.174 -112.782 157.671 -107.339 155.835C-104.868 154.94 -101.332 153.678 -99.4775 152.937C-95.8248 151.454 -93.09 151.232 -92.0541 152.313ZM-46.9841 157.828C-44.6965 160.328 -39.3493 168.351 -39.3668 169.186C-39.4008 170.801 -41.8143 171.641 -46.1025 171.551C-49.9453 171.47 -50.4998 171.347 -51.697 169.985C-52.9498 168.622 -52.9938 168.064 -53.0122 160.988L-53.0769 153.466L-50.8205 154.795C-49.6093 155.489 -47.9109 156.862 -46.9841 157.828ZM11.5644 158.279C12.3277 159.075 12.6396 160.14 12.6009 161.978C12.5518 164.317 12.4926 164.482 11.3301 164.124C8.34262 163.114 6.48306 161.459 6.517 159.844C6.57318 157.172 9.60159 156.232 11.5644 158.279ZM-21.6706 162.26C-20.1253 162.961 -18.587 163.996 -18.2076 164.506C-16.47 166.659 -18.8524 168.67 -23.5979 169.127C-25.7188 169.306 -26.1609 169.129 -27.9055 167.31C-29.8683 165.263 -30.2254 163.696 -29.1831 161.824C-28.3161 160.338 -25.144 160.516 -21.6706 162.26ZM-119.011 165.116C-118.085 166.083 -117.062 167.775 -116.75 168.84C-116.175 170.635 -116.236 170.912 -117.369 171.78C-120.314 174.058 -134.068 176.331 -135.036 174.695C-135.413 174.075 -131.312 167.142 -129.723 165.782C-127.85 164.15 -125.379 163.2 -123.039 163.249C-121.146 163.289 -120.373 163.639 -119.011 165.116ZM-92.0185 166.519C-91.8203 167.693 -91.5711 169.091 -91.4157 169.652C-91.156 170.548 -91.6039 170.65 -96.7252 170.431C-99.8428 170.31 -102.345 170.09 -102.341 169.868C-102.334 169.533 -93.3698 164.541 -92.7003 164.499C-92.4764 164.448 -92.1622 165.402 -92.0185 166.519ZM6.0238 172.703L8.34998 173.364L8.87128 177.721C9.39493 181.965 9.38556 182.411 7.01691 191.72C4.64474 201.197 1.98996 208.216 1.46817 206.533C1.20493 205.804 0.675415 201.837 -0.160797 193.909C-0.391266 191.62 -0.390076 191.565 1.45593 191.213C4.42047 190.663 4.42398 190.496 0.910034 188.026C-4.85565 184.006 -7.4675 178.38 -5.00485 175.201C-4.3735 174.323 -3.7955 173.332 -3.78964 173.053C-3.78378 172.775 -4.8754 171.694 -6.24661 170.662C-7.61783 169.63 -8.71063 168.605 -8.70593 168.382C-8.70126 168.159 -5.87503 168.887 -2.44437 170.018C0.930603 171.147 4.8056 172.343 6.0238 172.703ZM-11.1314 177.746C-10.3646 178.375 -9.55267 179.506 -9.23724 180.404C-8.81863 181.694 -8.9382 182.081 -10.0708 182.949C-11.8833 184.359 -14.8327 184.186 -18.3073 182.497C-22.9943 180.17 -22.873 177.053 -18.1739 176.149C-15.4889 175.649 -13.1604 176.199 -11.1314 177.746ZM-44.7813 185.562C-41.0617 186.197 -38.0812 187.541 -38.1011 188.488C-38.107 188.766 -39.0678 189.414 -40.1922 189.892C-41.8213 190.526 -43.4387 190.604 -47.054 190.305C-53.2821 189.728 -56.7684 188.597 -56.7391 187.205C-56.69 184.866 -51.9955 184.185 -44.7813 185.562ZM-11.9817 189.037C-8.59619 189.665 -6.83511 190.705 -5.54065 192.738C-4.51645 194.375 -3.92825 200.849 -4.81934 200.83C-5.15347 200.823 -6.90051 199.115 -8.69385 196.961C-10.8155 194.521 -12.0196 193.493 -12.0325 194.105C-12.0489 194.885 -12.4991 195.098 -14.1142 195.064C-19.572 194.949 -27.3835 192.835 -29.793 190.835L-31.1619 189.692L-29.3311 190.065C-27.9446 190.372 -27.5525 190.269 -27.5372 189.545C-27.4986 187.708 -20.305 187.413 -11.9817 189.037ZM-54.1529 199.348L-49.6019 202.842L-51.684 206.475C-52.8957 208.455 -55.7206 212.963 -58.0777 216.423C-63.7123 224.717 -70.654 236.883 -72.3662 241.47C-73.0767 243.461 -73.8393 245.283 -74.0656 245.446C-74.2373 245.665 -74.1878 235.36 -73.9186 222.553C-73.4667 201.059 -73.0331 196.332 -72.0932 201.979C-71.9495 203.096 -71.3339 205.616 -70.7622 207.578L-69.7245 211.22L-67.5197 209.707C-65.7107 208.464 -64.7323 206.98 -62.2867 201.962C-60.6003 198.599 -59.1483 195.789 -58.9812 195.792C-58.8698 195.795 -56.6749 197.401 -54.1529 199.348ZM-40.2766 207.16C-40.0866 208.724 -47.4968 219.32 -50.0996 221.215C-52.7024 223.11 -55.5719 224.442 -55.5567 223.719C-55.5227 222.104 -47.6958 210.235 -44.4476 206.794C-42.9088 205.155 -40.4619 205.373 -40.2766 207.16ZM-83.3407 214.89C-81.9844 227.23 -80.4977 243.973 -80.782 244.246C-81.4075 244.846 -83.9105 234.041 -85.0193 225.829C-86.1745 217.17 -86.2507 215.497 -85.7034 210.662C-85.3629 207.716 -84.9215 205.274 -84.7544 205.278C-84.5317 205.283 -83.9547 209.64 -83.3407 214.89ZM-14.5819 214.664C-9.70798 216.048 -5.96774 218.355 -5.50516 220.203C-5.09708 221.994 -6.29288 225.868 -9.2121 232.213C-13.3582 241.263 -13.5522 242.54 -12.6027 253.033C-11.9741 260.233 -12.7196 263.894 -17.4641 277.554C-19.2426 282.642 -20.6775 287.291 -20.688 287.792C-20.6997 288.349 -21.3486 290.062 -22.1066 291.662C-23.8523 295.191 -24.6923 295.396 -34.7643 294.794C-43.4997 294.221 -45.0462 293.575 -44.9297 290.681L-44.8307 288.622L-49.9143 291.913L-54.9435 295.261L-62.7651 290.974C-67.0065 288.657 -70.806 286.516 -71.1899 286.229C-71.5182 285.944 -71.9287 284.264 -72.1151 282.533C-72.3421 280.077 -71.695 275.801 -69.2585 263.262L-66.1344 247.172L-62.8242 240.78L-59.5128 234.331L-45.4276 229.558C-37.6836 226.935 -29.7726 224.316 -27.8093 223.689C-25.846 223.062 -24.3295 222.481 -24.4385 222.367C-24.5476 222.253 -29.6958 223.315 -35.7966 224.635C-50.2946 227.84 -50.6311 227.944 -50.617 227.276C-50.5877 225.884 -45.7509 221.084 -42.25 218.873C-32.7639 212.889 -25.0503 211.714 -14.5819 214.664ZM2.651 290.734C4.30652 291.493 7.5549 293.344 9.80548 294.951C12.0561 296.558 15.2487 298.408 16.8497 299.11L19.7211 300.341L13.8185 302.835C7.29855 305.539 6.68359 305.637 5.70688 304.391C4.83804 303.314 2.94455 303.275 2.9223 304.333C2.91293 304.778 3.5473 306.407 4.35223 307.872C5.69183 310.407 5.73935 310.798 5.08459 312.79C4.07111 315.944 1.5076 318.62 -2.37845 320.6L-5.81311 322.31L-6.28741 321.019C-6.55066 320.289 -6.896 318.165 -7.07898 316.267C-7.39038 312.528 -8.62448 310.274 -10.7267 309.561C-12.2767 309.083 -13.8625 307.657 -13.8438 306.766C-13.8368 306.432 -12.7992 304.782 -11.54 303.193C-9.3652 300.453 -9.24445 300.01 -9.16953 296.446C-9.08759 292.549 -8.49319 290.778 -6.85004 289.476C-5.60376 288.499 -1.10327 289.095 2.651 290.734ZM-67.0462 295.842C-64.2873 297.126 -61.5877 298.576 -60.9868 299.145C-59.1841 300.854 -59.7239 302.681 -62.849 305.568C-66.031 308.51 -66.8165 308.772 -66.7744 306.767C-66.7416 305.208 -68.8228 303.493 -70.388 303.739C-71.17 303.834 -71.4948 303.381 -71.737 301.649C-72.3697 297.29 -72.6811 293.551 -72.4026 293.557C-72.2355 293.561 -69.8062 294.615 -67.0462 295.842ZM-40.3046 301.251C-35.2055 302.528 -29.8549 305.092 -28.6648 306.788C-27.368 308.71 -27.6236 310.264 -29.8974 315.063C-31.0047 317.379 -33.3008 323.236 -34.9631 328.104C-36.6244 332.915 -38.3946 337.613 -38.8589 338.495C-40.3654 341.249 -42.4007 342.654 -44.8512 342.603L-47.0232 342.557L-46.7499 345.46C-45.9406 354.669 -45.9488 355.059 -47.1745 357.707C-47.8187 359.197 -48.6787 360.349 -49.0685 360.341C-49.4584 360.333 -53.1979 360.644 -57.3273 360.947C-61.4578 361.306 -67.5388 361.68 -70.8293 361.833L-76.8522 362.097L-76.7339 356.473C-76.6356 351.795 -76.128 348.853 -73.8731 339.653C-72.3509 333.501 -71.1036 327.177 -71.0696 325.562C-70.9491 319.827 -70.7761 319.552 -64.9661 316.164C-62.0327 314.443 -59.6597 312.877 -59.6562 312.71C-59.6515 312.488 -60.3697 312.194 -61.3117 311.951C-62.255 311.764 -62.9684 311.248 -62.9591 310.803C-62.9111 308.52 -55.4134 301.714 -51.8826 300.729C-49.193 300.006 -44.6286 300.213 -40.3046 301.251ZM28.6823 303.426C30.4018 303.796 34.4356 305.385 37.6887 307.013C40.9417 308.642 46.8492 311.217 50.8855 312.695C54.8672 314.115 59.6192 315.998 61.4395 316.872L64.7494 318.445L62.2374 318.671C59.8925 318.9 60.3345 319.077 68.312 321.25C77.9509 323.904 116.435 337.916 129.963 343.715C138.081 347.173 138.631 347.519 136.843 347.76C135.781 347.904 122.956 348.415 108.404 348.889C81.6971 349.776 67.137 350.64 64.054 351.522L62.3739 351.932L64.0294 352.691C64.968 353.101 70.0811 353.71 76.2571 354.118C82.0988 354.519 99.2262 356.105 114.349 357.649C129.471 359.192 145.428 360.809 149.763 361.29C156.269 361.928 157.601 362.179 157.087 362.781C156.743 363.219 151.112 366.053 144.527 369.202C133.327 374.537 129.098 376.955 122.586 381.888C118.228 385.139 113.106 387.594 108.571 388.668C106.163 389.23 99.351 389.923 92.4335 390.334C79.8272 391.016 73.9597 391.84 70.0261 393.429L67.6103 394.381L71.779 394.858C74.0577 395.129 84.125 395.953 94.1367 396.777C110.656 398.127 125.936 400.119 128.752 401.348C129.525 401.699 128.906 401.964 126.222 402.409C111.627 404.944 85.9575 412.148 71.9105 417.757C60.3361 422.361 41.4792 431.49 42.1323 432.228C42.2425 432.286 53.039 430.229 66.0761 427.607C90.4156 422.714 103.952 420.214 115.356 418.392C122.232 417.311 141.167 415.035 141.386 415.263C141.44 415.319 133.088 420.38 122.818 426.515C112.493 432.649 104.253 437.657 104.476 437.661C104.755 437.667 110.249 436.056 116.809 434.077C130.547 429.909 152.135 423.399 154.208 422.83L155.609 422.469L154.185 423.944C153.389 424.707 150.895 426.716 148.688 428.34C146.425 429.964 142.637 432.614 140.317 434.292C135.225 437.974 128.227 444.846 124.385 450.057C121.576 453.786 116.369 462.98 116.806 463.379C117.188 463.777 121.526 461.473 128.41 457.384C140.994 449.794 144.09 448.299 146.874 448.357C149.382 448.354 149.491 448.468 150.12 450.32C150.432 451.385 150.711 454.009 150.667 456.125C150.623 460.859 149.873 462.069 144.151 466.573C140.072 469.774 129.45 479.467 129.723 479.695C129.834 479.753 132.857 479.037 136.555 478.056C140.198 477.074 143.276 476.415 143.385 476.528C143.494 476.642 143.699 477.482 143.847 478.376C144.041 479.773 143.636 480.489 140.561 483.655L136.972 487.368L131.693 486.7C128.803 486.361 116.679 485.326 104.719 484.406C81.8 482.699 75.7829 482.684 61.3166 484.385L55.8424 485.05L48.2946 480.992L40.8025 476.934L45.2508 477.362C47.6977 477.581 52.9802 478.082 56.9285 478.443C65.991 479.358 98.2178 480.927 113.588 481.306C124.225 481.529 125.173 481.494 125.024 480.599C124.83 479.258 119.96 477.651 101.622 472.698C74.3092 465.327 57.7194 462.026 42.9194 461.046C38.4119 460.784 34.9115 460.321 35.1389 460.103C36.7879 458.522 45.8281 455.202 61.6965 450.411C81.9951 444.264 84.2403 443.475 83.9806 442.579C83.2002 439.944 57.8946 443.089 32.5316 448.962C28.8929 449.777 25.3122 450.481 24.5326 450.465C22.639 450.425 20.6821 448.1 20.2893 445.585C18.8732 436.085 16.2151 430.012 11.5726 425.569L8.51352 422.664L7.77634 431.228C7.04968 439.29 6.92422 439.956 5.37491 442.096C4.45575 443.414 3.59811 444.454 3.48672 444.452C2.48428 444.431 -0.915924 441.852 -5.12341 437.92C-10.4225 432.906 -20.5129 425.229 -27.6604 420.678C-30.0792 419.123 -32.1129 417.799 -32.2231 417.741C-32.4435 417.625 -33.1592 403.961 -32.9886 403.798C-32.9317 403.743 -29.8909 404.865 -26.2445 406.335C-12.3202 411.864 -10.9373 412.339 -11.5892 411.545C-11.914 411.093 -15.5346 408.398 -19.6518 405.471C-27.501 399.846 -30.016 397.565 -30.8069 395.431C-31.4888 393.412 -31.2685 388.235 -30.4191 387.585C-27.3045 385.199 -15.5957 387.451 17.0253 396.771C22.2868 398.275 27.7745 399.616 36.5387 401.471C40.0889 402.214 24.3238 394.139 13.6619 389.793C5.21008 386.328 -1.70572 384.01 -14.0014 380.521C-25.4119 377.328 -30.0502 375.337 -30.623 373.43C-31.5564 370.124 -27.0858 369.494 -4.19647 369.975C4.38123 370.1 11.3462 370.079 11.2395 369.854C10.4334 368.444 1.11697 366.354 -13.6015 364.151C-19.9897 363.236 -26.039 362.106 -26.9764 361.641C-30.1239 360.294 -30.1316 358.009 -26.8425 352.619C-25.8026 350.858 -23.5475 346.95 -21.8123 343.923C-17.5888 336.491 -11.6704 330.599 -6.78894 328.975C-1.68237 327.244 -0.947845 326.758 -0.348785 324.765C0.00994873 323.602 2.013 321.082 4.74475 318.354C7.53452 315.516 9.82541 312.556 10.8143 310.571C13.5477 305.113 15.2987 303.98 22.1652 303.345C24.0077 303.16 25.5161 302.969 25.5173 302.914C25.5173 302.914 26.9617 303.111 28.6823 303.426ZM-12.8412 312.079C-10.4188 313.467 -9.78479 323.062 -11.8705 326.862C-13.3758 329.56 -17.3527 333.209 -20.561 334.757L-22.9247 335.877L-22.4728 332.934C-21.8838 328.769 -20.5602 324.117 -18.7993 319.864C-17.9763 317.82 -17.0349 315.445 -16.6832 314.617C-16.039 313.126 -14.723 311.482 -14.166 311.494C-13.999 311.498 -13.3922 311.789 -12.8412 312.079ZM163.593 373.948C163.59 374.115 162.605 375.933 161.446 378.025C159.828 380.777 158.059 382.801 154.939 385.409L150.685 388.996L134.698 388.828C125.952 388.755 118.937 388.496 119.164 388.334C119.39 388.171 126.749 385.318 135.566 381.994C146.067 378.092 153.473 375.629 157.166 374.927C163.599 373.67 163.599 373.67 163.593 373.948ZM-163.352 368.746C-163.355 368.857 -165.727 370.367 -168.547 372.035C-171.425 373.757 -176.961 377.373 -180.75 380.023C-184.595 382.672 -189.788 385.906 -192.211 387.192L-196.717 389.492L-201.796 387.269C-205.994 385.509 -224.54 374.59 -223.646 374.442C-223.479 374.446 -210.023 373.113 -193.777 371.56C-177.474 369.953 -164.018 368.621 -163.739 368.571C-163.516 368.575 -163.35 368.635 -163.352 368.746ZM196.247 379.091C202.913 382.685 205.574 385.972 204.718 389.575C204.472 390.684 204.254 393.075 204.326 394.971C204.413 398.761 203.666 399.859 201.111 399.471C199.667 399.274 199.56 399.049 199.602 397.044C199.628 395.819 199.883 394.265 200.121 393.545C200.532 392.551 200.426 392.326 199.423 392.305C195.358 392.22 192.88 388.157 192.96 381.696C193.006 379.524 193.156 377.689 193.323 377.693C193.49 377.696 194.814 378.337 196.247 379.091ZM-110.458 375.763L-105.337 378.656L-107.732 378.606C-110.127 378.555 -111.708 379.581 -113.266 382.111C-113.787 383.047 -114.054 382.484 -114.811 378.736C-115.26 376.275 -115.825 373.979 -115.928 373.587C-116.35 372.464 -115.964 372.639 -110.458 375.763ZM183.698 379.663C185.301 380.309 188.7 385.562 189.852 389.096C190.268 390.497 190.521 391.728 190.407 391.837C190.236 392.001 188.079 391.287 185.591 390.343C181.225 388.636 177.063 387.88 176.266 388.643C176.095 388.862 176.468 389.65 177.176 390.445C178.482 391.921 182.848 393.628 185.409 393.682C186.857 393.712 190.414 396.795 190.387 398.076C190.358 399.468 188.062 400.033 184.227 399.562C179.447 399.016 170.639 396.602 167.663 395.036C163.642 392.834 164.797 390.909 174.187 384.198C181.88 378.678 181.599 378.839 183.698 379.663ZM-151.437 385.041C-152.525 389.084 -154.012 393.566 -154.767 394.998L-156.158 397.587L-161.246 395.753C-164.066 394.747 -166.498 393.804 -166.663 393.69C-166.772 393.576 -163.071 389.81 -158.408 385.34C-153.745 380.87 -149.827 377.331 -149.718 377.445C-149.553 377.559 -150.349 380.997 -151.437 385.041ZM-253.971 385.782C-248.925 386.946 -241.828 388.6 -238.169 389.457C-229.243 391.538 -223.798 392.266 -212.889 392.829C-202.927 393.373 -201.761 393.564 -201.786 394.734C-201.828 396.738 -206.241 397.258 -214.35 396.085C-218.018 395.618 -225.25 395.076 -230.485 394.966C-246.357 394.632 -257.107 391.844 -263.181 386.591C-267.34 382.994 -266.448 382.957 -253.971 385.782ZM-71.0704 391.855C-69.3627 392.782 -67.951 394.539 -64.9863 399.281C-59.6507 407.861 -57.5906 410.578 -54.9584 412.583C-53.6974 413.557 -52.5976 414.248 -52.5396 414.138C-52.4258 414.029 -52.5145 410.295 -52.8095 405.776C-53.0488 401.259 -53.0794 397.414 -52.9089 397.251C-52.2265 396.597 -48.0847 398.355 -47.0559 399.769C-45.6999 401.525 -45.644 406.818 -46.9702 419.548L-47.7549 427.72L-50.4534 426.215C-53.3166 424.595 -73.3645 405.567 -76.7307 401.374C-79.1168 398.26 -79.8056 396.574 -79.7448 393.678C-79.6605 389.669 -76.1912 388.962 -71.0704 391.855ZM-106.522 395.288C-103.333 397.305 -91.7051 408.691 -91.4002 410.09C-91.2484 410.818 -91.4447 412.206 -91.8544 413.145C-93.1986 416.125 -93.2611 421.75 -92.0625 433.641C-90.7677 446.258 -90.7023 456.399 -91.8629 458.603C-92.8507 460.532 -95.3222 461.483 -99.0547 461.46C-103.567 461.421 -105.201 459.659 -107.439 452.147C-107.961 450.465 -109.653 446.14 -111.194 442.598C-114.117 435.851 -115.005 433.047 -114.225 433.064C-113.947 433.07 -111.07 434.021 -107.749 435.094C-104.486 436.221 -101.827 436.945 -101.823 436.778C-101.818 436.556 -104.942 434.094 -108.672 431.286C-119.259 423.376 -121.914 419.811 -123.034 412.099C-123.562 408.077 -123.489 396.658 -122.821 396.672C-122.599 396.733 -120.048 399.962 -117.066 403.868L-111.7 411L-110.67 409.685C-109.755 408.59 -109.561 407.313 -109.433 401.243C-109.345 397.011 -109.062 394.176 -108.728 394.183C-108.449 394.189 -107.456 394.656 -106.522 395.288ZM-165.093 409.154C-159.9 411.268 -157.908 414.541 -160.462 416.772C-161.086 417.316 -161.65 417.638 -161.759 417.524C-161.868 417.411 -163.221 415.488 -164.847 413.337C-168.91 407.848 -168.801 407.962 -168.467 407.969C-168.244 407.973 -166.751 408.506 -165.093 409.154ZM198.156 426.094C201.884 431.631 205.483 435.328 207.154 435.363C208.546 435.393 209.75 431.128 209.86 425.894L209.966 420.882L213.965 424.142C219.386 428.657 222.496 431.786 223.458 433.701C224.153 435.108 224.147 435.386 223.408 436.095C222.269 437.241 202.681 441.397 198.334 441.473C193.541 441.539 192.831 440.856 190.741 434.238C189.074 428.744 188.888 427.013 189.886 424.583C190.474 423.091 193.157 420.028 193.77 420.041C193.937 420.044 195.941 422.76 198.156 426.094ZM-222.898 418.356C-225.176 420.704 -227.674 422.935 -228.519 423.363C-231.336 424.864 -238.055 423.775 -238.791 421.699C-239.373 420.238 -238.006 418.818 -234.408 417.278C-230.077 415.308 -220.171 413.233 -218.961 413.982C-218.851 414.04 -220.62 416.009 -222.898 418.356ZM-66.3033 424.824C-60.4051 427.844 -55.0105 430.966 -52.4897 432.969C-50.1881 434.8 -48.3262 436.343 -48.3285 436.455C-48.3309 436.566 -49.1855 440.113 -50.2212 444.325C-51.625 450.145 -52.0119 452.644 -51.7837 455.044L-51.5151 458.17L-54.7581 458.714C-56.9395 459.114 -61.1175 459.082 -67.4606 458.67L-76.92 458.081L-77.5737 454.725C-78.2715 450.811 -78.2798 445.908 -77.5187 433.557C-77.06 424.987 -76.5079 419.929 -76.1738 419.937C-76.0624 419.939 -71.6515 422.149 -66.3033 424.824ZM-138.441 421.469C-135.454 422.478 -131.312 424.237 -129.275 425.394C-125.032 427.656 -123.731 429.354 -120.594 436.495C-119.476 438.97 -117.393 443.248 -115.891 446.009C-112.728 451.925 -110.616 457.484 -110.666 459.879L-110.702 461.605L-112.465 460.621C-115.219 459.114 -119.307 454.795 -123.639 448.854C-127.483 443.537 -130.706 440.461 -133.25 439.572C-135.463 438.801 -138.476 436.398 -139.825 434.308C-145.003 426.177 -147.794 421.105 -147.5 420.387C-147.028 419.115 -144.416 419.449 -138.441 421.469ZM-151.225 422.648C-149.585 424.131 -142.443 436.927 -143.279 436.91C-143.891 436.897 -147.806 434.92 -150.721 433.132C-155.561 430.134 -157.903 427.577 -157.853 425.183C-157.785 421.953 -153.741 420.423 -151.225 422.648ZM-30.7132 428.079C-27.5856 430.373 -24.754 433.496 -18.6816 441.479C-15.4279 445.725 -13.4862 448.774 -13.5038 449.61C-13.5307 450.89 -13.6432 450.944 -16.9789 450.595C-21.5931 450.108 -28.2188 447.239 -30.7279 444.679C-32.6907 442.633 -33.797 439.601 -33.8915 436.145C-33.9801 432.411 -33.6309 426.402 -33.2968 426.409C-33.1297 426.412 -31.9754 427.161 -30.7132 428.079ZM166.579 436.014C166.462 436.291 165.56 439.447 164.647 443.105L162.947 449.754L159.65 452.86L156.41 455.911L156.08 453.063C154.945 443.458 156.416 439.756 162.551 436.765C164.804 435.643 167.041 435.244 166.579 436.014ZM-12.715 457.147C-5.81442 460.189 0.141754 463.099 0.577911 463.554C3.90488 466.967 -17.2955 468.304 -24.2482 465.094C-28.3308 463.169 -29.4687 461.641 -29.8845 457.566C-30.6128 449.807 -29.3865 449.777 -12.715 457.147ZM-91.6733 468.133C-88.7408 471.76 -90.8323 475.838 -95.7426 476.181C-98.366 476.404 -98.6421 476.287 -99.9993 474.587C-102.281 471.809 -101.697 467.866 -98.9443 466.81C-98.2701 466.546 -96.6504 466.357 -95.3695 466.384C-93.4748 466.368 -92.8123 466.661 -91.6733 468.133ZM-59.4998 469.589C-52.2276 470.856 -51.2855 471.099 -51.3042 471.99C-51.3265 473.048 -55.3656 474.356 -60.3919 474.918C-65.8104 475.584 -74.9796 474.445 -76.5097 473.02C-77.766 471.823 -77.7215 469.707 -76.4254 469.011C-74.9599 468.206 -65.8844 468.508 -59.4998 469.589ZM-27.2885 479.848C-27.523 480.4 -27.9391 484.291 -28.1951 488.52C-28.6164 495.307 -28.8046 496.306 -29.7665 497.01C-30.9536 497.821 -32.6742 497.506 -33.9294 496.254C-34.8574 495.343 -35.2439 489.876 -34.6666 486.267C-34.1602 483.381 -32.0422 480.695 -29.457 479.636C-27.1526 478.681 -26.7082 478.746 -27.2885 479.848ZM29.6417 491.017C31.3019 491.553 33.2834 492.709 34.2103 493.676L35.8471 495.325L35.3507 500.385C35.1251 503.165 34.7951 505.609 34.6257 505.717C34.2834 506.1 2.1514 500.021 2.15958 499.631C2.23517 498.686 14.0152 492.248 18.5057 490.671C21.2557 489.726 26.0997 489.884 29.6417 491.017ZM-50.912 490.438C-48.7845 492.599 -50.566 495.18 -54.9914 496.313C-58.9689 497.343 -66.5072 498.132 -71.1853 498.033C-76.1419 497.929 -75.7855 496.878 -69.8793 494.217C-60.4852 489.958 -52.8203 488.448 -50.912 490.438ZM85.2546 498.593C90.8267 501.217 115.696 510.876 117.033 510.904C117.144 510.906 117.23 512.133 117.199 513.581C117.144 516.198 116.971 516.473 112.184 521.554C109.395 524.392 107.004 526.793 106.837 526.789C106.669 526.841 107.399 523.904 108.476 520.361C109.555 516.763 110.397 513.828 110.343 513.716C110.233 513.658 108.542 514.569 106.566 515.809L102.955 517.961L101.762 516.432L100.624 514.904L100.291 517.46C100.095 518.848 99.6167 520.398 99.2175 520.835C98.7034 521.437 98.4778 524.218 98.3907 531.013L98.2509 540.313L96.0274 542.717L93.8584 545.179L90.6112 543.272C87.0891 541.192 66.6726 526.446 66.9557 526.229C67.0695 526.12 71.3331 527.38 76.424 529.047C81.5717 530.659 85.8354 531.918 85.9492 531.809C86.0629 531.7 82.7729 529.18 78.6012 526.196L71.0814 520.801L71.1318 518.406C71.1587 517.126 71.0139 516.064 70.7911 516.06C70.5126 516.054 70.3409 516.273 70.3362 516.496C70.3303 516.774 69.9833 517.38 69.5818 517.928C68.8367 518.915 68.6151 518.855 65.7578 516.956C63.1209 515.174 62.3077 514.098 58.9244 508.067C56.8297 504.346 55.279 501.249 55.4461 501.253C55.6132 501.256 61.5253 503.609 68.5408 506.486C80.0856 511.241 86.499 513.604 87.7799 513.631C88.0584 513.637 87.7998 512.685 87.2118 511.502C86.6238 510.32 83.5718 507.081 80.0707 503.999C74.9305 499.378 71.8843 495.86 71.9124 494.524C71.9159 494.357 73.2526 494.385 74.8629 494.642C76.7529 494.848 80.6209 496.378 85.2546 498.593ZM126.285 497.505C127.503 497.865 127.502 497.921 126.579 499.406L125.655 500.946L120.126 498.936C117.085 497.813 114.433 496.755 114.269 496.584C113.889 496.131 124.457 496.965 126.285 497.505ZM-54.3679 506.409C-51.493 507.472 -51.5188 508.697 -54.5301 511.475C-57.5415 514.253 -67.6866 519.778 -70.4249 520.166C-72.0458 520.41 -72.598 520.176 -73.8496 518.757C-75.7555 516.655 -78.3164 511.254 -78.2777 509.416C-78.2321 507.244 -75.9716 505.732 -72.0058 505.258C-67.4819 504.741 -57.1326 505.404 -54.3679 506.409ZM-95.3903 509.78C-93.641 511.377 -93.5366 511.714 -93.0827 516.625C-92.8153 519.806 -92.9218 524.874 -93.3045 529.824L-93.9743 537.832L-98.3573 542.252C-100.749 544.709 -104.912 549.245 -107.541 552.421C-110.171 555.596 -112.685 558.552 -113.14 558.988C-113.879 559.697 -113.915 558.749 -113.439 552.018C-112.942 544.285 -112.883 544.119 -107.457 527.186L-102.028 510.142L-100.057 509.125C-97.41 507.788 -97.5213 507.786 -95.3903 509.78ZM125.462 518.1C125.829 519.166 125.903 520.951 125.657 522.06C125.282 524.001 120.698 535.325 115.486 547.36C111.739 555.972 111.25 558.023 111.526 563.488C111.8 569.009 111.147 570.89 107.897 574.442L105.445 577.12L102.676 570.99C100.386 565.984 99.7606 563.909 99.2926 559.666L98.6775 554.472L106.299 544.437C110.482 538.899 114.45 533.021 115.208 531.422C116.729 528 123.943 516.118 124.501 516.074C124.668 516.078 125.151 516.979 125.462 518.1ZM27.0309 517.145C32.8493 518.66 41.1551 521.119 45.3584 522.6L53.0457 525.324L57.9631 529.94C60.6405 532.447 63.7007 535.297 64.7401 536.21L66.6554 537.866L66.3229 535.129C66.1317 533.621 66.0995 532.506 66.263 532.677C69.5355 536.032 76.7271 546.434 79.8912 552.294L83.8578 559.731L82.6028 563.772C81.6462 566.871 80.0817 569.735 75.5972 576.326C67.8922 587.696 67.7228 587.803 71.7446 579.365C72.7359 577.268 73.4973 575.502 73.3883 575.388C73.2792 575.274 71.8776 575.691 70.2473 576.381L67.2699 577.544L64.8756 574.819L62.4826 572.039L62.3994 575.993C62.3538 578.164 62.1493 579.943 61.9822 579.939C61.7594 579.935 59.9509 578.504 57.8697 576.789C55.8442 575.075 54.0356 573.644 53.8686 573.641C53.7572 573.638 55.4515 577.852 57.6829 583.024C59.8585 588.195 61.6584 592.69 61.6514 593.024C61.6455 593.302 60.5441 595.34 59.2175 597.485C57.7737 599.906 55.5474 605.096 53.5913 610.681C51.8129 615.769 47.2905 626.816 43.4914 635.259L36.65 650.602L33.8332 649.429C30.3539 647.963 25.7296 645.303 14.6215 638.329C5.76865 632.739 -2.78394 628.771 -17.0518 623.68C-20.4801 622.438 -23.9002 620.807 -24.6646 620.066C-25.9755 618.813 -26.0265 618.589 -25.2234 617.492C-24.7638 616.833 -23.4085 615.97 -22.2296 615.549C-20.2663 614.922 -17.8751 615.14 2.46008 617.851C14.8501 619.504 25.0751 620.778 25.1889 620.669C25.2469 620.558 23.1018 619.232 20.2908 617.78C13.9542 614.416 -2.13861 608.674 -11.2311 606.533C-19.9349 604.456 -22.1438 603.518 -23.1041 601.492C-24.1735 599.353 -24.0241 594.899 -22.6121 588.69C-21.9386 585.807 -21.0489 580.589 -20.641 577.088C-20.0925 572.197 -19.3598 569.149 -17.586 564.284C-16.287 560.801 -15.2167 557.593 -15.2073 557.147C-15.1991 556.757 -15.8417 555.518 -16.5991 554.444C-18.8204 551.445 -18.8663 548.324 -16.8351 544.467C-14.5138 540.059 -5.97858 531.604 -2.04034 529.793C3.36108 527.288 5.45279 528.502 12.8742 538.574C17.3713 544.629 26.4834 553.79 31.4811 557.237C33.6772 558.788 35.5473 559.941 35.661 559.832C35.7747 559.723 33.8534 553.053 31.4033 545.036L27.0296 530.459L21.7797 523.107C15.988 515.019 15.5566 514.341 16.0578 514.352C16.2249 514.355 21.1568 515.629 27.0309 517.145ZM-29.1181 516.522L-27.6695 519.17L-28.2534 533.698C-28.8 546.444 -29.0139 548.668 -30.0819 551.765L-31.3252 555.249L-30.1344 559.563C-29.0491 563.597 -29.0087 564.322 -29.6638 574.28C-30.1758 582.737 -30.6998 586.459 -32.4125 593.72L-34.44 602.703L-34.0731 582.599L-33.7062 562.496L-35.5454 557.221C-37.3845 551.946 -37.3845 551.946 -37.1844 542.424C-37.0743 537.189 -36.6378 529.678 -36.2763 525.73L-35.5126 518.56L-33.1232 516.215C-31.8711 514.96 -30.735 513.925 -30.6793 513.926C-30.6236 513.927 -29.9242 515.112 -29.1181 516.522ZM-53.791 542.576C-57.6508 559.207 -57.9492 560.148 -59.1187 560.124C-60.1212 560.103 -60.4459 559.65 -60.6893 557.974C-61.1865 555.122 -61.1057 551.28 -60.611 548.951C-60.1825 547.121 -60.2904 546.952 -62.8148 545.116C-65.3948 543.279 -65.4494 543.222 -66.5634 537.907C-67.1696 534.941 -67.5625 532.426 -67.4476 532.261C-67.1064 531.934 -49.9067 524.775 -49.7976 524.889C-49.7431 524.946 -51.5268 532.93 -53.791 542.576ZM-74.9499 539.29C-74.6298 539.965 -74.2926 542.479 -74.1782 544.989C-74.0374 548.891 -73.7255 549.956 -72.1678 552.719C-71.146 554.467 -69.1421 559.857 -67.6857 564.79C-63.9405 577.459 -60.5464 588.282 -59.0655 592.046C-55.7847 600.304 -56.8861 602.342 -65.2727 603.726C-73.5478 605.111 -76.4737 603.824 -75.4855 599.221C-74.308 593.564 -74.3056 593.452 -76.2375 587.284C-78.32 580.332 -78.9321 577.645 -79.8972 570.55C-80.7152 564.405 -80.9293 542.785 -80.1562 540.462C-79.6175 538.691 -77.5833 537.341 -76.2572 537.87C-75.8709 538.045 -75.2712 538.671 -74.9499 539.29ZM-93.4651 563.97C-93.6909 580.009 -93.8456 582.067 -94.9452 586.668L-96.1667 591.767L-94.0245 595.879C-91.9345 599.823 -91.8847 600.102 -91.9935 605.281L-92.1059 610.626L-95.753 606.539C-101.198 600.519 -105.253 594.64 -106.458 590.994C-107.09 589.254 -107.785 587.846 -108.119 587.839C-108.399 587.889 -109.406 588.091 -110.356 588.238C-111.922 588.539 -112.143 588.423 -112.779 586.906C-113.729 584.379 -113.087 583 -108.977 578.295C-102.301 570.803 -96.0348 556.339 -95.8047 548.044C-95.7649 546.15 -95.5932 545.931 -94.4828 546.122L-93.2611 546.314L-93.4651 563.97ZM93.8258 570.581C95.7991 572.127 97.6453 577.068 97.2098 579.231C96.966 580.229 95.9864 581.768 94.9641 582.694C92.2939 585.145 83.3787 590.472 80.6879 591.251C78.3337 591.926 76.5621 591.387 76.5902 590.051C76.5984 589.661 78.6202 586.25 81.1502 582.515C83.6257 578.723 86.2196 574.599 86.9137 573.388C89.0017 569.477 91.3618 568.524 93.8258 570.581ZM-146.553 587.365C-143.974 589.258 -127.375 602.699 -125.186 604.583L-124.039 605.666L-125.701 605.241C-128.917 604.505 -134.037 601.556 -138.915 597.721C-141.599 595.547 -145.826 592.506 -148.244 590.951C-153.247 587.726 -153.791 587.102 -152.489 586.127C-150.962 585.044 -149.242 585.415 -146.553 587.365ZM-119.581 587.097C-115.721 589.016 -98.7327 607.813 -98.7807 610.096C-98.7889 610.486 -99.7925 610.521 -101.403 610.264L-104.068 609.818L-99.6653 612.417C-95.7591 614.783 -91.1677 619.002 -91.1934 620.227C-91.2075 620.896 -94.9594 619.146 -97.7042 617.194C-101.162 614.726 -104.029 613.273 -107.959 612.02C-112.938 610.356 -114.193 609.104 -116.797 603.088C-118.126 600.052 -120.118 596.723 -121.477 595.135C-125.995 590.082 -126.834 587.557 -124.306 586.608C-122.509 585.921 -121.786 585.992 -119.581 587.097ZM-61.2235 623.142C-57.4136 624.782 -54.1025 626.3 -53.8833 626.471C-53.7197 626.642 -53.8433 629.87 -54.2547 633.538L-54.9544 640.32L-52.4874 644.884C-50.2338 648.999 -49.8187 650.456 -47.7613 661.251C-46.506 667.795 -45.5602 673.163 -45.6739 673.272C-45.7308 673.327 -47.7012 668.996 -49.9836 663.6C-54.1239 653.819 -54.1784 653.762 -58.3824 649.663C-63.461 644.765 -70.4334 634.535 -73.5149 627.396C-75.4841 623.009 -75.5815 622.338 -74.9941 620.902C-74.2919 619.302 -74.1805 619.304 -71.2359 619.7C-69.5698 619.958 -65.0892 621.5 -61.2235 623.142Z" fill="#26A458"/>
</svg>
