<svg width="268" height="231" viewBox="0 0 268 231" fill="none" xmlns="http://www.w3.org/2000/svg">
<path d="M213.025 1.5365C215.321 2.101 220.738 2.71129 225.088 2.89839C230.052 3.12829 235.023 3.74799 238.607 4.56399C256.3 8.70439 276.944 18.0195 298.291 31.665C310.603 39.5396 312.454 40.1135 326.4 40.9345C335.773 41.5173 337.338 41.763 345.69 44.15C354.435 46.6959 356.391 46.989 364.305 47.1012C371.05 47.2379 371.273 47.2332 369.195 46.4413C366.78 45.545 365.48 44.681 365.465 43.9571C365.442 42.8434 369.086 41.2627 373.137 40.509C380.687 39.1804 384.185 35.9872 385.382 29.277C385.93 26.2015 386.307 25.5808 388.225 24.092C390.363 22.4315 390.416 22.2633 390.984 17.5161C391.319 14.8908 391.493 12.5474 391.323 12.4395C391.153 12.276 390.103 12.688 389.003 13.3796C387.903 14.0712 386.91 14.5378 386.797 14.4288C386.683 14.3197 386.358 12.0982 386.134 9.4289L385.644 4.64829L387.607 2.60149C390.06 0.042994 392.675 -0.123406 396.955 2.01499C399.375 3.18969 400.626 4.389 403.15 7.84559C404.871 10.2049 406.983 12.6117 407.832 13.2066C409.189 14.1808 409.636 14.2272 411.572 13.5737C414.894 12.5568 416.747 10.568 419.207 5.6697C421.93 0.0415955 423.13 -1.1536 422.369 2.3721C421.664 5.9523 422.068 6.61229 425.242 6.54549L427.86 6.49049L420.23 11.9432C416.058 14.9278 412.99 17.3878 413.491 17.3772C413.992 17.3667 425.433 15.622 438.983 13.4988C452.478 11.3767 463.643 9.7493 463.812 9.8571C463.927 10.0218 462.833 10.9919 461.353 12.1372C456.197 16.0337 447.011 19.0123 431.523 21.7334C420.365 23.6949 417.982 24.3021 418.004 25.3044C418.029 26.5294 420.225 27.5975 430.441 31.2266C442.23 35.4354 448.755 38.3622 450.52 40.1635L451.886 41.5275L447.972 40.8856C440.144 39.546 431.279 36.6127 415.32 30.1518C405.148 26.0203 402.244 25.6914 397.779 27.9579C393.92 29.9331 388.694 35.781 388.741 38.0083C388.768 39.2891 389.166 39.6707 391.13 40.3536C392.477 40.8266 396.951 41.6239 401.141 42.1486C419.687 44.4328 435.544 48.6675 438.627 52.2238C439.312 52.9893 439.259 53.1018 438.028 52.8492C437.3 52.6973 434.899 52.4693 432.78 52.3467C430.603 52.1696 424.854 51.6777 419.941 51.2239C415.028 50.7144 406.207 49.8971 400.402 49.4063C380.587 47.7059 379.376 48.3999 390.552 55.2399C409.856 67.09 416.639 74.357 429.489 97.261C429.722 97.702 430.573 98.464 431.361 98.837C432.714 99.589 433.825 99.399 443.526 97.078C458.384 93.534 461.327 93.082 470.633 93.165C477.822 93.237 479.219 93.43 482.7 94.694C486.968 96.276 487.636 96.262 497.448 93.883C504.488 92.175 514.359 92.58 534.253 95.393C550.403 97.672 552.252 98.19 549.495 99.529C548.999 99.818 538.425 100.375 526.009 100.803C501.678 101.593 501.678 101.593 516.316 103.514C528.384 105.098 545.881 110.524 560.06 117.078C569.569 121.502 588.93 133.407 587.945 134.263C587.835 134.321 572.981 130.121 554.93 124.874C536.881 119.683 521.915 115.429 521.639 115.546C521.363 115.664 522.957 117.301 525.116 119.261C528.294 122.036 531.229 123.812 539.731 128.035C545.587 130.976 552.01 134.35 554.041 135.589C557.654 137.797 563.441 142.745 563.006 143.255C562.841 143.37 559.65 142.657 555.784 141.624C551.974 140.59 538.977 137.242 526.989 134.152C514.945 131.063 504.804 128.379 504.411 128.276C502.953 127.805 504.894 130.048 512.238 137.47C516.335 141.562 520.723 146.205 522.038 147.793C524.725 151.024 527.909 156.75 527.654 157.87C527.455 158.988 514.084 151.08 503.224 143.342C498.247 139.826 490.261 133.643 485.496 129.62C480.731 125.598 476.709 122.452 476.599 122.51C476.49 122.623 474.917 127.28 473.028 132.835C470.093 141.643 467.988 150.211 468.611 150.699C468.725 150.808 472.6 152.231 477.259 153.915C484.727 156.655 488.891 158.573 485.697 157.749C481.104 156.564 458.509 155.145 441.343 154.893C430.754 154.782 421 154.597 419.604 154.459L417.092 154.233L419.362 156.191L421.633 158.205L432.879 157.801C441.341 157.456 444.185 157.563 444.194 158.009C444.204 158.454 442.764 158.875 440.429 159.146C438.373 159.412 435.707 159.803 434.487 160.051L432.267 160.488L438.159 162.481C452.19 167.311 465.252 173.777 481.515 184.076C492.978 191.355 499.846 197.339 502.175 202.137C502.99 203.791 503.522 205.228 503.413 205.342C503.304 205.455 497.335 202.461 490.123 198.658C479.476 193.088 424.947 167.438 424.509 167.782C424.399 167.84 424.641 168.782 424.998 169.833C426.61 174.98 427.397 180.59 427.613 188.217C427.765 195.456 427.29 204.658 426.54 208.741L426.235 210.14L424.523 208.226C423.61 207.187 421.07 202.95 418.922 198.873C412.129 185.813 410.303 183.79 404.588 182.239C400.778 181.261 388.383 180.017 382.926 180.132C379.695 180.2 378.808 180.386 378.546 181.171C378.073 182.518 380.333 184.03 390.466 188.998C410.057 198.558 423.142 208.756 428.758 218.833C430.262 221.475 430.441 222.029 429.596 221.601C428.978 221.335 422.164 217.913 414.448 213.953C402.284 207.802 368.588 192.522 368.152 192.977C368.098 193.034 371.799 199.474 376.42 207.287L384.855 221.539L386.686 231.806C387.752 237.466 388.755 242.737 388.938 243.513L389.302 244.898L387.484 243.265C384.986 241.034 381.486 236.205 376.871 228.726C374.16 224.326 371.698 221.202 368.913 218.587C364.478 214.335 360.75 211.906 360.385 213.084C360.28 213.42 359.852 216.883 359.431 220.736C359.011 224.589 358.53 228.22 358.376 228.836C358.171 229.676 358.501 229.502 359.642 228.141C361.003 226.608 361.776 226.258 365.218 225.684C367.383 225.304 369.549 224.98 369.939 224.972C370.329 224.964 368.045 227.63 364.88 230.816L359.096 236.62L356.742 249.204C355.44 256.139 353.55 264.312 352.5 267.398L350.668 273.008L350.535 287.885C350.429 296.076 350.216 304.493 350.092 306.556C349.829 309.96 350.079 311.236 352.414 318.931L355.047 327.566L354.167 330.76C353.34 333.841 353.351 334.342 354.839 344.171C356.529 355.668 358.745 363.03 360.407 362.55C360.904 362.372 365.007 361.394 369.609 360.351C376.762 358.696 381.131 357.156 382.77 355.617C382.99 355.446 378.608 353.755 373.054 351.922C367.5 350.145 363.064 348.511 363.174 348.397C363.719 347.829 380.683 349.088 388.34 350.208C398.903 351.768 408.305 353.743 411.34 355.017C413.307 355.811 414.102 356.518 414.863 358.285C415.973 360.713 416.87 360.973 419.404 359.582C421.552 358.423 425.261 351.994 428.759 343.453C429.448 341.767 431.174 339.057 432.533 337.469C435.414 334.01 436.308 331.484 436.212 326.918C436.136 323.299 435.079 320.758 432.574 318.193L431.092 316.608L432.493 316.969C437.529 318.033 438.922 318.003 441.679 316.664C443.169 315.964 444.495 315.435 444.609 315.544C444.722 315.653 443.813 317.455 442.574 319.486C440.799 322.476 440.061 324.497 439.155 329.085C438.554 332.328 438.164 334.955 438.385 334.894C438.552 334.891 440.186 333.074 441.979 330.919C444.696 327.631 454.005 319.915 462.734 313.715C463.612 313.083 460.933 307.569 456.157 300.371C452.474 294.767 451.193 292.175 447.596 282.725C445.294 276.589 441.891 268.416 440.081 264.499C438.272 260.581 436.866 257.324 436.975 257.211C437.028 257.098 440.767 260.028 445.245 263.666L453.408 270.291L460.174 282.07L466.996 293.848L467.548 301.525C467.861 305.808 468.156 309.255 468.267 309.253C468.379 309.251 477.321 302.6 488.126 294.463C498.931 286.325 508.091 279.447 508.476 279.216C510.071 278.236 507.589 282.076 503.621 286.783C495.902 295.97 491.088 300.194 475.935 310.874C470.609 314.608 466.494 317.647 466.717 317.642C466.939 317.637 471.425 316.317 476.628 314.704C495.504 308.848 509.862 305.37 524.967 302.992C531.297 301.967 537.304 301.507 550.277 301.067C559.631 300.759 566.982 300.604 566.707 300.777C565.88 301.184 534.997 308.352 511.262 313.697C499.949 316.219 483.748 319.456 475.252 320.805C466.701 322.21 459.598 323.585 459.437 323.867C456.585 328.662 454.457 330.824 450.221 333.364C445.653 336.079 445.653 336.079 443.576 340.635C441.768 344.739 440.791 345.986 433.866 353.15C429.668 357.528 426.181 361.278 426.184 361.445C426.189 361.668 427.632 361.415 429.351 360.989C431.125 360.562 440.382 358.306 449.973 356.043L467.382 351.944L502.568 353.322C521.918 354.085 538.369 354.797 539.153 355.004C539.936 355.154 534.265 355.719 526.643 356.214C507.559 357.506 475.14 360.528 475.65 360.963C475.877 361.125 484.045 362.736 493.888 364.479L511.672 367.615L517.054 366.554C519.994 365.935 529.098 364.351 537.37 362.952C545.587 361.553 553.081 360.226 554.024 360.039C557.406 359.244 554.812 360.413 544.64 364.192C534.909 367.794 533.971 368.204 531.572 370.706L528.955 373.435L534.357 375.995C537.341 377.437 539.651 378.669 539.597 378.782C539.488 378.896 537.087 378.612 534.348 378.224C526.802 377.045 513.994 377.37 510.124 378.789C506.751 380.03 502.725 382.008 503.066 382.335C503.125 382.446 505.846 382.054 509.067 381.541C512.898 380.903 519.853 380.423 529.375 380.167L543.853 379.807L554.913 375.842C577.753 367.674 597.757 362.462 611.156 361.122L615.882 360.633L613.405 362.078C596.445 371.626 584.754 377.387 569.287 383.729C560.007 387.545 552.221 390.884 551.893 391.169C551.619 391.398 562.038 391.402 575.07 391.128C588.102 390.854 605.648 390.652 614.062 390.698L629.33 390.767L619.338 392.537C613.842 393.488 596.507 395.802 580.779 397.693C565.05 399.528 552.103 401.192 551.993 401.25C551.884 401.364 554.52 402.2 557.827 403.133C569.878 406.557 609.481 419.261 608.257 419.343C608.035 419.403 593.179 417.71 575.305 415.579C540.341 411.523 516.775 408.954 516.503 409.239C516.449 409.351 520.501 411.272 525.619 413.559C538.947 419.407 540.569 419.707 556.327 419.209C569.802 418.814 571.811 418.995 583.561 421.366C593.577 423.384 618.975 430.928 623.255 433.066L625.226 434.083L622.436 433.863C620.873 433.729 609.602 432.963 597.328 432.163C585.052 431.307 572.275 430.461 568.928 430.253C565.579 429.989 562.791 429.881 562.626 429.995C562.517 430.109 569.416 434.922 578.005 440.647C586.539 446.372 593.493 451.184 593.383 451.242C593.274 451.356 588.668 449.614 583.107 447.447C577.6 445.223 566.092 441.12 557.619 438.29C549.146 435.46 541.404 432.893 540.504 432.522C537.193 431.366 540.182 433.086 559.121 443.495L578.342 454.01L586.038 462.316C593.108 469.966 608.596 488.47 607.928 488.484C607.259 488.498 578.92 470.933 559.548 458.472C540.514 446.226 537.177 443.845 528.438 436.341L518.679 427.967L518.333 430.035C518.19 431.208 517.24 439.027 516.189 447.35C515.195 455.727 514.281 462.599 514.114 462.602C513.947 462.606 512.949 460.175 511.996 457.243L510.155 451.822L510.606 441.507C510.821 435.82 510.946 431.138 510.943 431.026C510.886 430.972 509.075 432.291 506.994 434.006C504.913 435.721 499.535 439.622 494.976 442.726C490.472 445.829 484.325 450.248 481.367 452.65C478.352 454.998 476.044 456.55 476.202 456.101C476.36 455.652 477.35 452.4 478.446 448.868L480.427 442.42L486.409 435.442L492.392 428.464L487.905 424.436C483.193 420.245 474.62 415.3 468.786 413.417L465.7 412.424L464.617 413.895C463.37 415.537 463.35 417.208 464.47 422.811L465.277 426.75L459.601 448.261C456.505 460.025 453.761 469.943 453.543 470.171C453.324 470.398 452.039 467.584 450.623 463.825C448.44 458.022 447.83 455.528 446.591 446.919C445.672 440.309 445.23 435.193 445.334 432.183C445.524 428.001 445.401 427.446 444.38 426.576C443.245 425.597 443.134 425.6 439.712 427.176C437.34 428.284 434.324 430.576 430.17 434.396C426.78 437.475 423.935 439.986 423.768 439.99C423.601 439.993 423.592 439.548 423.747 438.987C423.847 438.428 423.492 437.433 422.92 436.721C421.948 435.571 421.669 435.521 419.398 436.182C416.462 436.968 414.929 438.281 411.843 442.524C409.947 445.127 408.633 446.213 403.678 449.047C396.739 452.925 392.902 455.903 388.546 460.729C383.59 466.182 385.14 468.322 392.391 466.052C396.154 464.859 396.377 464.854 395.399 466.045C393.716 468.141 393.884 468.194 400.457 468.111C405.805 468.054 407.592 468.24 410.343 469.24C413.991 470.501 415.854 471.687 413.449 471.236C409.645 470.481 398.1 469.943 393.149 470.326C386.863 470.792 381.439 472.522 378.152 475.154C373.878 478.586 375.74 479.717 392.091 483.607C406.482 487.037 419.094 490.616 432.337 495.072C443.783 498.898 446.874 500.171 447.961 501.485C448.817 502.469 447.868 502.378 435.23 500.192C429.861 499.247 421.532 497.918 416.782 497.238C404.43 495.436 384.36 492.181 378.541 491.022C375.464 490.419 372.058 490.1 369.666 490.262C366.217 490.502 365.663 490.68 364.743 491.981C363.229 494.13 364.323 495.834 369.408 499.181C378.05 504.793 384.502 509.559 387.741 512.555C393.083 517.513 392.976 517.738 386.413 515.647C383.272 514.655 380.47 513.878 380.247 513.883C380.024 513.887 382.089 516.685 384.891 520.08C390.723 527.2 394.516 532.691 396.329 536.775C397.03 538.32 399.049 544.239 400.84 549.939C402.632 555.639 404.521 560.725 405.091 561.326C406.972 563.347 409.799 562.619 419.946 557.671C431.472 552.025 436.332 549.973 443.361 547.708C451.717 545.026 458.651 543.543 488.064 538.022C490.728 537.52 493.062 537.193 493.175 537.302C493.289 537.411 480.207 543.257 464.141 550.28C448.077 557.358 435.05 563.203 435.108 563.313C435.222 563.422 437.555 563.094 440.22 562.648C448.604 561.247 477.237 560.979 492.248 562.112C506.033 563.215 510.614 563.787 511.467 564.604C511.865 564.986 510.81 565.175 508.471 565.225C506.466 565.267 496.232 566.095 485.667 567.097C475.102 568.099 459.691 569.147 451.453 569.543C434.752 570.228 431.476 570.743 427.845 572.936L425.37 574.492L427.322 574.563C428.382 574.652 436.336 573.983 445.008 573.077C459.019 571.668 461.634 571.502 468.275 571.975C472.46 572.277 475.921 572.594 476.09 572.702C476.376 573.03 467.608 574.718 457.168 576.386C436.788 579.6 428.146 581.955 430.911 583.623C432.153 584.377 434.21 584.167 438.695 582.847C449.271 579.728 455.81 578.03 458.589 577.693C461.533 577.297 460.983 577.643 446.447 585.859C434.277 592.689 429.426 595.131 422.075 597.959C417.045 599.903 412.957 601.549 413.07 601.602C413.128 601.713 416.976 601.91 421.55 602.148C432.705 602.694 439.857 603.658 446.916 605.515C450.166 606.393 458.445 607.946 465.265 609.028C489.247 612.814 498.698 614.509 508.998 616.8C520.25 619.293 541.219 625.537 545.721 627.671L548.535 629.004L544.63 628.752C542.454 628.631 535.697 627.881 529.608 627.118C523.463 626.356 508.893 625.047 497.231 624.233C458.952 621.473 447.942 619.866 429.268 614.131C420.743 611.469 420.463 611.419 413.892 611.557C399.301 611.864 385.061 612.999 380.796 614.202C372.711 616.545 358.844 624.803 356.64 628.637C355.887 629.935 355.653 632.056 355.528 639.357C355.303 649.835 354.677 657.146 353.654 661.513C353.092 663.92 353.055 664.812 353.635 665.914C354.623 667.843 355.795 667.93 359.324 666.184C360.978 665.37 362.361 664.895 362.365 665.062C362.376 665.619 359.938 668.901 356.947 672.362C354.988 674.632 353.479 677.059 352.637 679.416C351.057 683.739 350.013 684.43 344.778 684.54C341.492 684.609 340.82 684.456 339.625 683.255C338.83 682.548 338.194 681.447 338.181 680.835C338.169 680.278 337.518 678.453 336.703 676.799C335.89 675.2 335.237 673.32 335.223 672.652C335.209 671.984 336.332 669.732 337.682 667.698C339.355 665.1 340.417 662.627 341.082 659.827C342.055 655.74 343.034 646.639 342.962 643.242L342.868 641.406L341.293 643.333C340.424 644.41 338.434 647.794 336.882 650.835C335.331 653.931 332.806 658.386 331.352 660.756C326.877 667.869 324.513 672.041 321.679 677.728C317.938 685.271 317.662 685.388 306.245 685.628C292.768 685.912 292.483 685.639 294.8 673.947C298.121 656.998 298.345 651.756 295.926 645.345C294.214 640.757 294.073 639.368 295.251 637.059C296.104 635.258 295.722 632.982 294.672 633.394C294.285 633.514 288.14 635.426 280.999 637.637C247.341 647.982 236.779 651.769 234.324 654.272C232.254 656.488 234.266 662.073 241.829 674.671C244.947 679.842 247.436 684.302 247.444 684.692C247.492 686.975 240.876 687.615 236.992 685.747C234.121 684.359 233.089 682.988 229.132 674.938C224.944 666.558 223.853 665.021 219.384 661.828C217.348 660.367 215.704 659.065 215.701 658.898C215.699 658.786 216.925 658.816 218.489 659.006C219.997 659.197 221.279 659.226 221.277 659.115C221.275 659.003 220.628 657.401 219.865 655.523C219.045 653.646 217.203 648.17 215.653 643.356C209.207 622.991 205.776 616.155 197.624 607.357C195.913 605.499 194.424 603.581 194.358 603.081C194.348 602.579 194.26 601.077 194.175 599.686C194.075 597.571 193.843 597.131 192.492 596.49C189.399 595.107 184.323 594.824 175.647 595.563C162.244 596.736 153.283 597.203 154.498 596.676C155.104 596.385 158.825 595.806 162.828 595.387C169.278 594.75 174.764 593.354 174.743 592.351C174.74 592.184 173.22 591.436 171.311 590.752C169.458 590.067 168.052 589.428 168.161 589.314C168.27 589.201 170.673 589.54 173.581 590.092C176.436 590.7 179.006 591.036 179.283 590.974C180.001 590.681 166.907 582.711 163.142 581.175L159.882 579.795L150.344 581.945C141.805 583.907 137.971 584.434 111.391 586.942C95.1551 588.509 81.4201 589.801 80.8081 589.814C78.6921 589.858 81.1201 588.749 89.9151 585.723C102.916 581.327 112.561 578.951 124.558 577.195C131.391 576.216 145.519 575.083 146.196 575.459C146.479 575.676 146.531 575.508 146.301 575.178C145.553 574.024 140.982 573.953 134.931 574.971C125.938 576.553 113.977 577.417 96.4331 577.731C81.6731 577.985 80.6701 577.951 82.4911 577.132C89.0581 574.097 102.825 571.691 118.574 570.803C131.874 570.022 129.021 569.469 113.202 569.69C100.837 569.895 97.4901 569.686 26.5711 564.771C16.6391 564.088 8.43514 563.425 8.26412 563.262C8.15011 563.152 10.4781 562.546 13.4731 561.926C18.3541 560.877 21.9161 560.69 48.4271 560.189C81.0061 559.504 88.3661 559.739 111.984 562.14C115.391 562.514 116.64 563.601 99.3321 551.319C91.7551 546.019 85.7001 541.579 85.7531 541.466C86.2441 540.954 114.654 551.332 125.224 555.845L137.594 561.211L137.724 559.426C137.812 558.31 136.55 553.935 134.541 548.462C131.934 541.108 131.206 538.282 130.845 534.334C130.334 528.607 131.26 522.293 133.279 517.626C134.024 515.939 134.553 514.591 134.441 514.594C134.386 514.595 124.478 517.7 112.466 521.462C100.455 525.224 90.4361 528.332 90.1571 528.338C89.2101 528.357 92.2141 525.453 95.4521 523.101C99.6791 520.115 110.043 514.828 120.316 510.545C129.539 506.675 132.395 504.72 132.071 502.555C131.807 500.61 129.661 499.207 126.027 498.615C121.722 497.926 99.5591 498.503 79.4741 499.872C69.9601 500.518 59.2191 501.078 55.5431 501.155L48.8591 501.24L58.5661 499.198C63.8921 498.083 78.9931 495.537 92.1561 493.533C105.263 491.531 116.425 489.792 116.869 489.727C117.313 489.606 116.802 489.171 115.733 488.692C114.666 488.269 112.98 487.58 112.079 487.154C110.899 486.677 106.828 486.484 98.8051 486.486C92.454 486.508 87.2671 486.283 87.2611 486.004C87.2501 485.447 89.8581 484.947 94.4761 484.627L98.0931 484.439L95.5601 483.211L93.0271 481.983L96.9331 482.236C99.0541 482.414 101.454 482.642 102.237 482.793C103.691 483.04 102.899 482.444 94.4911 477.385C88.6211 473.831 87.3431 471.351 90.3661 469.338C91.4651 468.646 91.6321 468.643 92.2081 469.522C93.6531 471.998 97.5141 475.427 101.634 477.959C106.94 481.19 116.843 485.828 119.416 486.275C121.26 486.571 121.26 486.571 121.215 484.399C121.132 480.445 116.56 475.026 109.729 470.769C104.987 467.805 96.8981 464.688 93.2141 464.376C89.1391 464.016 87.4351 465.11 85.2991 469.5C84.3371 471.47 82.2331 474.745 80.6601 476.784C79.0321 478.824 77.3021 481.367 76.7111 482.382L75.6341 484.187L75.2661 482.58C74.5281 479.253 73.6821 473.477 72.8511 465.751L72.0131 457.691L64.6791 453.388C60.3921 450.86 56.2261 448.83 54.6041 448.53C53.0921 448.172 51.2451 447.765 50.4051 447.56L48.9501 447.256L49.3311 452.151C49.707 456.767 48.1141 484.376 47.4601 485.058C47.3521 485.228 45.9381 484.199 44.4051 482.838C40.3731 479.246 38.3891 474.943 36.4171 465.96C35.5501 461.855 34.0291 455.759 33.1251 452.492L31.4391 446.51L24.0171 453.909C18.4531 459.541 16.2621 461.369 15.2041 461.392C13.7561 461.422 13.5251 461.037 13.7051 458.972C13.8771 456.573 13.1261 455.307 11.4551 455.343C8.89412 455.396 1.20412 458.009 -6.85588 461.577C-18.4479 466.723 -27.5729 469.979 -28.3679 469.271C-28.8789 468.781 -23.9679 463.886 -19.4179 460.337C-13.2799 455.473 -3.46385 450.642 6.71914 447.364C15.3521 444.565 18.7151 442.878 20.2281 440.618C20.7141 439.884 20.9791 439.265 20.9221 439.211C20.8641 439.101 14.9191 439.894 7.75411 440.936C0.590111 442.034 -5.57792 442.832 -5.85691 442.838C-6.52494 442.852 19.3881 435.121 20.1681 435.104C20.5021 435.097 22.7961 432.932 25.3041 430.317C29.8841 425.541 29.8831 425.485 29.1241 423.83C28.7141 422.892 28.1411 422.124 27.8061 422.131C27.5281 422.137 21.7601 423.372 14.9941 424.907C4.18007 427.307 -0.206886 428.012 -21.8849 430.417C-35.4489 431.928 -47.1229 433.176 -47.7349 433.189C-48.6829 433.153 -48.4659 432.87 -46.7589 431.943C-40.5349 428.525 -27.9649 424.807 -12.4259 421.862C-3.15885 420.108 3.21309 418.414 2.6451 417.869C2.53011 417.704 -9.13786 416.612 -23.2049 415.348C-42.4619 413.692 -52.8399 413.019 -65.1569 412.832C-74.1309 412.631 -81.1029 412.276 -80.6629 412.044C-79.3969 411.293 -70.5689 409.826 -60.0639 408.602C-53.0619 407.731 -45.1599 407.286 -33.6299 407.1C-9.40385 406.59 4.49813 407.969 23.9321 412.742C29.6451 414.181 35.2961 415.288 36.4101 415.265C40.0301 415.189 44.1981 412.037 42.8271 410.45C42.0861 409.63 37.4451 408.837 30.7491 408.365C28.5731 408.243 21.1981 407.284 14.2671 406.204C-1.88487 403.814 -12.0519 402.579 -21.7039 401.947C-30.1859 401.345 -30.251 400.901 -21.9709 399.835C-6.74693 397.844 15.5941 397.764 30.8421 399.561C38.1041 400.466 41.4401 400.118 41.4061 398.503C41.3721 396.888 39.5651 395.756 34.2321 393.863C29.0131 392.078 25.4141 390.483 25.7411 390.142C25.8501 390.028 29.0371 390.574 32.8991 391.384C36.7051 392.195 39.9481 392.74 40.0571 392.626C40.2211 392.511 39.2451 391.139 37.8761 389.608C36.5641 388.131 35.5901 386.871 35.7571 386.867C35.9241 386.864 38.2841 387.817 40.9831 388.986L45.9321 391.166L47.6751 389.291C49.7991 386.962 60.4351 373.424 60.2081 373.206C60.1511 373.151 51.1261 375.848 40.1671 379.309C23.2841 384.567 5.82912 389.112 5.08913 388.403C5.03114 388.293 6.9421 386.414 9.40212 384.19C13.5591 380.482 14.8261 379.787 29.9411 372.617C38.7681 368.42 47.7041 364.165 49.8551 363.117L53.7161 361.254L30.5541 359.345C17.8291 358.331 6.7231 357.451 5.83211 357.469C4.94008 357.432 4.32009 357.111 4.31112 356.666C4.29909 356.109 6.13112 355.792 12.7531 355.374C17.4261 355.053 25.1591 354.5 29.8861 354.067C40.8441 353.224 52.7061 352.974 59.1251 353.508C61.8601 353.729 64.1471 353.848 64.2561 353.734C64.3661 353.676 60.9381 352.3 56.7281 350.773C52.4601 349.191 48.7531 347.765 48.5251 347.547C47.4491 346.734 63.2551 348.519 69.7491 349.998C72.3241 350.556 77.0331 351.961 80.2331 353.12C86.6881 355.38 89.9251 355.646 93.2921 354.127C95.6661 353.074 98.1251 350.794 99.1931 348.599C101.866 343.195 108.08 339.331 121.521 334.648C135.901 329.61 144.828 327.529 162.44 325.153C182.052 322.512 186.091 321.146 196.577 313.739C203.44 308.915 207.301 307.051 219.909 302.497C229.53 299.008 229.593 299.341 219.259 298.109L213.954 297.497L217.098 295.982L220.243 294.523L225.289 296.033C228.092 296.865 230.614 297.537 230.892 297.531C231.226 297.524 230.75 296.085 229.934 294.375C228.712 291.894 228.341 290.119 228.029 285.892C227.694 280.551 228.301 272.349 229.334 268.484C229.902 266.355 232.662 262.453 233.174 262.943C233.344 263.107 234.666 270.321 236.075 279.038C237.54 287.753 238.924 295.301 239.157 295.797C239.509 296.625 240.393 296.272 246.174 292.976C251.679 289.796 254.44 288.624 262.743 286.054L272.707 282.947L272.569 279.051C272.377 275.211 272.376 275.155 266.609 265.862L260.785 256.514L260.299 249.282C259.735 240.993 257.734 230.617 256.348 228.307C255.424 226.766 255.257 226.77 252.312 227.166C250.646 227.424 245.329 228.928 240.517 230.589C235.647 232.196 231.606 233.451 231.493 233.342C231.379 233.233 234.394 230.885 238.125 228.133C244.929 223.143 253.088 216.342 253.129 215.673C253.22 214.668 242.889 210.93 228.594 206.774C208.019 200.744 207.117 200.206 223.965 203.919C228.444 204.939 233.644 205.832 235.485 205.905C238.442 206.121 239.052 205.997 240.088 204.917L241.233 203.723L246.421 206.678C249.241 208.29 251.608 209.577 251.663 209.52C251.716 209.408 251.97 208.232 252.219 206.834C252.676 204.708 252.417 202.986 250.768 196.113C249.726 191.623 247.994 186.088 246.944 183.826C245.076 179.799 245.019 179.744 243.3 180.115C239.196 181.037 233.883 182.708 226.475 185.482C222.164 187.133 218.624 188.377 218.623 188.321C218.616 187.987 234.022 176.076 239.292 172.344L244.836 168.384L242.85 164.024C241.741 161.596 240.862 159.554 240.861 159.498C240.86 159.442 240.067 158.846 239.162 158.197L237.464 156.951L228.792 163.206C224.073 166.647 219.902 169.632 219.515 169.807C219.186 170.037 221.271 165.871 224.224 160.572C227.177 155.273 229.479 150.824 229.421 150.714C229.309 150.66 225.138 151.027 220.135 151.577L211.073 152.548L203.433 157.499C197.057 161.644 191.378 164.494 169.802 174.418C155.51 181.013 143.696 186.22 143.525 186.056C143.299 185.894 145.257 183.624 147.765 181.009C150.873 177.768 155.036 174.394 160.584 170.6C177.283 159.219 182.223 155.717 182.052 155.498C181.938 155.389 175.67 156.746 168.187 158.575L154.549 161.814L152.559 165.198C147.396 174.053 146.359 175.078 130.58 187.777C122.306 194.413 110.536 204.353 104.411 209.83C98.2841 215.251 93.1401 219.649 93.0251 219.484C92.5701 219.048 94.2041 211.995 95.6881 208.342C100.498 195.985 114.731 178.639 127.14 169.911C130.38 167.67 132.902 165.723 132.788 165.614C132.674 165.505 129.008 166.028 124.679 166.843C120.349 167.602 116.96 168.064 117.178 167.836C117.452 167.608 119.547 166.561 121.921 165.508C124.24 164.512 126.114 163.526 126 163.417C125.886 163.308 121.461 164.849 116.155 166.855C110.847 168.805 103.053 171.754 98.7961 173.348C85.4731 178.307 22.0081 196.688 21.1001 195.872C20.3031 195.053 30.9391 189.481 42.6471 184.556C47.8931 182.328 57.6111 178.113 64.2901 175.132C91.3921 163.03 103.746 159.651 125.78 158.241C136.963 157.504 141.741 156.847 142.559 155.994C142.778 155.822 142.051 155.67 141.048 155.691C139.99 155.713 131.626 155.388 122.368 154.97C103.63 154.138 50.889 152.573 44.9301 152.698C34.0701 152.926 50.2061 149.245 69.8281 147.049C81.5011 145.746 116.869 145.169 128.923 146.086C134.169 146.477 138.689 146.827 138.967 146.822C139.246 146.816 132.993 143.549 125.108 139.537L110.749 132.318L114.376 132.576C119.398 132.972 130.139 135.03 135.131 136.596C137.431 137.328 142.376 139.341 146.147 141.155C153.689 144.785 157.046 145.439 160.304 144.033C163.008 142.807 171.851 136.716 171.837 136.047C171.814 134.989 168.851 134.495 160.489 134.28C150.232 134.05 151.45 133.69 168.13 132.003L180.362 130.799L195.556 124.685C203.898 121.335 213.96 117.558 217.944 116.249C222.813 114.642 225.463 113.472 226.113 112.623C226.656 111.943 226.864 111.214 226.636 110.996C225.388 109.908 216.954 108.916 204.407 108.4C196.711 108.06 188.065 107.629 185.165 107.467L179.866 107.189L183.472 106.444C189.908 105.139 197.469 104.367 207.102 104.109C212.282 104 216.176 103.751 215.726 103.538C215.277 103.38 202.501 99.916 187.427 95.832L159.97 88.387L167.216 88.514C171.173 88.598 179.095 89.044 184.788 89.537C202.707 91.166 207.057 91.353 211.555 90.645C217.552 89.684 220.964 87.662 220.908 84.989C220.856 82.539 210.056 69.675 206.393 67.746C205.097 67.049 202.337 65.603 200.252 64.477C198.112 63.408 196.476 62.44 196.586 62.382C196.696 62.324 198.591 62.339 200.766 62.461C202.999 62.637 204.838 62.654 204.837 62.598C204.834 62.487 201.855 58.5941 198.246 53.879C192.346 46.2038 186.711 40.5286 185.04 40.5637C183.202 40.6024 167.729 49.3396 155.415 57.2306C147.554 62.298 141.01 66.391 140.952 66.281C140.269 65.627 144.483 59.355 148.622 54.8108C155.595 47.255 175.657 28.895 183.119 23.3901L186.41 20.9255L183.354 21.324C168.629 23.2491 111.971 28.7855 107.069 28.8328C105.508 28.8099 109.747 26.381 114.224 24.6714C121.356 22.0146 138.706 17.7502 155.355 14.6148C163.845 12.9879 169.075 12.6551 198.032 11.8792C199.09 11.857 200.306 11.3857 200.96 10.7035C201.887 9.73689 201.985 9.1221 201.649 6.3994C201.311 3.5654 201.356 3.06309 202.395 2.09419C204.034 0.555595 208.041 0.359895 213.025 1.5365ZM235.473 19.8383C240.389 25.7515 241.422 27.1782 245.63 33.8862C248.107 37.7337 250.071 41.035 250.073 41.1463C250.076 41.2577 244.666 38.3632 238.069 34.658L226.117 28.0014L225.801 31.5176C225.674 33.4144 225.521 36.7601 225.457 38.9898C225.422 42.6116 225.602 43.2207 227.272 45.8038L229.115 48.6619L228.531 52.6852C227.992 56.2062 228.072 57.3744 229.31 63.254C230.115 67.08 231.786 72.393 233.255 75.984L235.779 82.114L241.511 81.771C244.683 81.593 252.411 80.817 258.635 80.018L270.027 78.609L285.094 79.74L300.217 80.871L305.453 78.143C310.853 75.299 315.785 74.026 325.346 72.933L329.403 72.458L333.722 63.231C336.067 58.168 337.873 53.9519 337.759 53.8429C337.645 53.7339 333.273 55.1071 328.127 56.8308C322.925 58.5 313.63 61.592 307.376 63.618C301.123 65.643 293.818 68.025 291.053 68.975C288.342 69.923 286.016 70.585 285.904 70.531C285.846 70.421 292.543 65.657 300.891 59.91C309.183 54.1651 315.992 49.3981 315.99 49.2868C315.985 49.064 300.172 49.5636 269.608 50.7075C262.314 50.9723 256.467 51.0952 256.575 50.9258C256.739 50.8109 259.063 50.0379 261.776 49.2009C266.094 47.8845 301.395 41.4602 304.513 41.3946C306.63 41.3501 306.001 40.5834 301.942 38.329C294.95 34.4092 291.412 33.0909 265.899 25.3823C249.92 20.5931 238.436 17.6591 234.027 17.3061C233.637 17.3143 234.273 18.4151 235.473 19.8383ZM203.888 25.4047C202.79 26.2077 201.861 27.0629 201.866 27.2856C201.934 30.5153 204.814 40.3151 209.07 51.9245C214.21 65.855 214.441 66.24 218.454 71.615C220.746 74.631 222.69 76.986 222.744 76.929C222.854 76.871 221.641 72.161 220.074 66.512C217.601 57.5388 216.951 55.7698 214.886 52.9721L212.534 49.7347L213.536 47.0397C214.377 44.6822 214.416 43.8458 213.785 40.3494C212.838 35.077 209.89 27.3397 208.067 25.4283C207.27 24.6094 206.476 23.9576 206.253 23.9623C206.086 23.9658 205.041 24.6005 203.888 25.4047ZM191.415 33.7447C189.78 35.4503 190.157 37.5036 192.816 42.0715C195.071 45.9794 200.545 51.9366 201.826 51.9096C202.773 51.8897 201.858 48.1208 200.242 45.4807C199.491 44.2152 197.552 42.0834 195.907 40.6695C192.958 38.2246 192.901 38.1701 194.516 38.1362C196.41 38.0964 198.163 36.6668 198.132 35.219C198.077 32.6019 193.487 31.5842 191.415 33.7447ZM360.397 57.3223C358.785 60.142 354.3 74.72 354.556 76.275C354.685 77.108 355.192 77.375 356.417 77.35C357.865 77.319 358.137 77.035 358.977 74.566C359.503 73.107 361.174 70.398 362.642 68.695C367.808 62.626 368.563 58.8219 365.358 54.7668C363.927 52.9585 363.87 52.904 362.778 53.9297C362.177 54.4995 361.094 56.0263 360.397 57.3223ZM374.15 64.832C373.006 66.082 372.695 67.203 372.427 70.328C372.304 72.448 371.815 75.689 371.408 77.536C370.945 79.328 370.813 81.002 371.097 81.275C371.324 81.493 374.47 82.708 378.062 83.97C383.843 85.965 410.298 98.723 409.807 99.235C409.698 99.349 403.492 98.309 395.998 96.963C376.7 93.357 376.757 93.412 371.295 93.36L366.335 93.297L365.142 97.5C363.896 101.816 363.958 104.767 365.35 104.738C365.74 104.729 368.63 104.39 371.743 104.046C374.854 103.646 377.524 103.423 377.638 103.532C377.807 103.64 375.6 104.634 372.78 105.696C366.202 108.174 363.286 109.906 362.491 111.873C361.382 114.737 360.382 122.836 360.21 130.583C360.001 139.167 360.416 140.383 363.789 141.817C364.801 142.241 370.255 144.578 375.99 147.075C387.18 151.91 389.702 152.636 391.74 151.535C395.982 149.218 396.707 146.584 394.803 140.83C394.144 138.672 393.659 136.788 393.823 136.617C393.986 136.447 394.997 136.815 396.068 137.406C398.154 138.587 398.653 138.465 398.616 136.684C398.58 135.013 403.445 130.51 407.524 128.419C409.564 127.429 411.386 126.61 411.553 126.607C411.72 126.603 410.267 129.029 408.323 131.967C406.434 134.904 404.981 137.33 405.092 137.327C405.259 137.324 410.641 133.59 417.009 129.055L428.647 120.788L446.975 112.715C457.078 108.269 465.245 104.532 465.133 104.478C464.621 103.988 421.879 111.571 400.409 115.978C398.134 116.416 396.19 116.735 396.134 116.681C396.021 116.627 402.468 113.205 410.46 109.082C418.398 105.015 425.011 101.534 425.121 101.476C425.23 101.362 423.845 99.107 422.007 96.472C418.789 91.804 418.277 91.313 404.469 81.186C392.076 72.088 378.299 63.408 376.124 63.342C375.845 63.293 374.912 63.981 374.15 64.832ZM310.915 86.161C309.825 87.354 309.768 87.299 314.71 94.438C318.446 99.874 322.957 105.072 323.904 105.052C324.516 105.039 327.052 98.468 327.656 95.391C328.208 92.483 327.862 89.259 326.883 87.775C325.329 85.412 312.878 84.17 310.915 86.161ZM261.685 89.926C257.245 90.743 251.023 91.654 247.797 91.889C239.508 92.509 238.455 92.754 238.093 94.099C237.52 96.005 239.898 97.793 247.831 101.47C255.539 105.041 258.788 105.864 260.771 104.764C262.423 103.837 272.816 89.358 272.788 88.021C272.786 87.91 272.117 87.924 271.229 88.054C270.397 88.239 266.124 89.053 261.685 89.926ZM345.842 91.165C345.075 91.738 343.397 94.113 342.053 96.425C340.709 98.738 337.949 102.64 335.884 105.134C329.363 112.959 328.286 117.383 332.148 120.867C333.853 122.447 338.137 124.808 339.25 124.784C339.529 124.778 340.849 121.297 342.208 117.034C345.29 107.276 345.127 107.503 346.991 108.689C348.233 109.443 348.846 109.486 350.674 108.946C351.892 108.586 353.545 107.716 354.364 106.918C355.896 105.605 355.895 105.549 355.654 99.371C355.338 92.302 354.75 90.81 351.78 90.037C349.596 89.47 347.653 89.846 345.842 91.165ZM278.899 100.427C272.076 104.526 270.379 105.954 270.412 107.513C270.44 108.85 272.638 110.029 278.019 111.587C285.026 113.613 294.08 120.219 294.883 123.99C295.867 128.37 295.294 132.895 292.975 139.239C291.818 142.494 291.721 143.165 292.405 143.93C293.491 145.189 297.434 144.604 304.679 142.057C307.886 140.875 312.76 139.491 315.423 138.934C321.192 137.754 323.955 136.638 323.93 135.468C323.908 134.41 322.825 133.263 314.595 126.083C307.784 120.098 294.483 104.946 290.279 98.461L288.265 95.384L286.057 96.377C284.844 96.96 281.594 98.755 278.899 100.427ZM462.421 97.405C449.365 99.183 421.487 106.176 419.467 108.168C419.14 108.509 419.197 108.564 419.75 108.385C422.57 107.379 452.233 100.46 460.779 98.832C466.44 97.766 471.268 96.829 471.598 96.655C472.814 96.183 469.032 96.486 462.421 97.405ZM452.256 112.158C444.856 115.266 433.405 121.858 434.146 122.622C434.258 122.676 438.734 120.91 444.147 118.68C449.56 116.393 455.644 114.26 457.641 113.883C461.083 113.254 461.522 112.966 463.697 110.414L465.98 107.692L460.941 109.19C458.172 109.973 454.245 111.337 452.256 112.158ZM234.928 115.836C227.276 117.556 212.333 122.327 210.577 123.645C209.918 124.105 209.975 124.16 210.862 123.918C212.966 123.317 226.376 119.804 239.4 116.522C251.537 113.425 252.09 113.247 247.697 113.618C245.082 113.84 239.365 114.851 234.928 115.836ZM484.188 109.816C482.88 111.18 483.158 113.793 484.807 115.374C488.389 118.808 494.156 120.135 507.479 120.468L515.561 120.632L513.58 119.17C510.808 117.167 503.83 113.859 496.473 111.117C489.68 108.642 485.715 108.224 484.188 109.816ZM348.954 114.608C347.42 115.866 345.659 119.524 344.792 123.331C343.872 127.305 346.539 132.263 350.706 134.348C352.282 135.095 352.282 135.095 352.523 133.307C352.669 132.301 352.965 127.839 353.206 123.377C353.707 115.4 353.648 115.29 352.459 114.368C350.873 113.12 350.651 113.18 348.954 114.608ZM247.576 121.141C245.418 121.855 243.65 122.56 243.54 122.618C243.485 122.675 243.957 123.891 244.6 125.326L245.768 127.919L248.559 125.465C251.786 122.612 254.1 118.72 252.11 119.486C251.779 119.66 249.677 120.372 247.576 121.141ZM468.54 120.785C466.619 124.836 466.09 131.477 467.614 132.392C467.839 132.499 468.4 130.036 468.836 126.907C469.327 123.777 469.818 120.647 469.97 119.919C470.376 118.017 469.717 118.476 468.54 120.785ZM486.019 122.702C487.642 125.676 492.802 129.968 498.552 133.134C500.75 134.314 500.067 133.659 488.314 123.21C485.588 120.761 484.861 120.609 486.019 122.702ZM215.494 129.614C210.348 131.282 206.032 132.71 205.922 132.768C205.813 132.882 210.457 133.843 216.217 134.836C222.034 135.883 228.802 137.134 231.375 137.637C235.962 138.487 236.017 138.486 236.772 137.3C237.855 135.774 237.855 135.774 235.64 131.141C234.005 127.554 233.604 127.061 232.096 126.87C227.125 126.306 224.572 126.75 215.494 129.614ZM443.701 123.926C433.755 125.249 428.382 126.754 422.154 129.949C417.909 132.1 410.946 137.483 411.627 138.081C411.741 138.19 420.303 137.342 430.643 136.233C441.038 135.068 449.766 134.16 450.101 134.208C450.38 134.203 443.083 136.974 433.793 140.289L416.927 146.382L427.238 146.555C432.924 146.658 440.286 147.005 443.692 147.379C451.456 148.274 455.744 148.184 457.059 147.154C457.992 146.466 458.087 145.684 457.846 139.505C457.71 135.72 457.793 131.707 458.049 130.643C458.361 129.578 458.877 127.617 459.185 126.33C459.757 124.424 459.69 123.868 459.061 123.101C458.148 122.062 458.036 122.064 443.701 123.926ZM267.294 131.478C266.089 132.45 262.811 135.528 260.029 138.371C253.702 144.855 253.562 146.139 259.021 148.754C260.204 149.342 262.414 151.134 263.899 152.83C266.922 156.165 269.34 157.228 272.446 156.55C277.051 155.618 281.373 151.85 281.312 148.954C281.294 148.119 280.757 146.403 280.117 145.136C279.534 143.866 278.057 139.887 276.868 136.346C275.68 132.806 274.435 129.267 274.141 128.549L273.611 127.167L271.522 128.492C270.422 129.184 268.501 130.561 267.294 131.478ZM333.297 130.48C332.868 131.269 332.941 132.103 333.583 133.483C334.52 135.636 335.536 136.283 339.174 137.042C344.265 138.049 346.271 135.389 342.806 132.23C339.51 129.18 334.421 128.284 333.297 130.48ZM181.109 139.808C175.68 141.315 171.547 143.463 168.651 146.198C166.52 148.192 166.415 148.473 167.634 148.169C169.575 147.738 207.387 141.484 208.166 141.467C210.951 141.409 202.93 138.848 197.788 138.12C194.66 137.74 185.263 138.662 181.109 139.808ZM339.888 147.166C339.793 147.948 340.589 151.329 341.661 154.649C342.915 158.634 343.719 162.405 344.019 166.076C344.324 170.024 344.693 171.632 345.313 172.009C346.498 172.709 346.721 172.704 348.089 171.505C348.964 170.763 349.384 169.528 349.713 166.624C349.946 164.447 350.334 161.709 350.643 160.477C351.558 156.335 351.126 151.665 349.689 149.578C348.138 147.327 343.969 145.186 341.691 145.457C340.357 145.596 339.974 145.938 339.888 147.166ZM360.054 152.313C359.236 153.166 359.283 158.011 360.094 159.498C361.134 161.259 363.829 162.261 366.494 161.815C368.825 161.376 368.994 161.484 372.739 164.692C376.825 168.227 378.844 168.853 380.419 166.926C381.561 165.565 383.535 161.401 383.512 160.343C383.488 159.174 380.782 157.671 375.339 155.835C372.868 154.94 369.332 153.678 367.478 152.937C363.825 151.454 361.09 151.232 360.054 152.313ZM314.984 157.828C312.697 160.328 307.349 168.351 307.367 169.186C307.401 170.801 309.814 171.641 314.103 171.551C317.945 171.47 318.5 171.347 319.697 169.985C320.95 168.622 320.994 168.064 321.012 160.988L321.077 153.466L318.821 154.795C317.609 155.489 315.911 156.862 314.984 157.828ZM256.436 158.279C255.672 159.075 255.361 160.14 255.399 161.978C255.448 164.317 255.507 164.482 256.67 164.124C259.657 163.114 261.517 161.459 261.483 159.844C261.427 157.172 258.398 156.232 256.436 158.279ZM289.671 162.26C288.125 162.961 286.587 163.996 286.208 164.506C284.47 166.659 286.852 168.67 291.598 169.127C293.719 169.306 294.161 169.129 295.906 167.31C297.868 165.263 298.225 163.696 297.183 161.824C296.316 160.338 293.144 160.516 289.671 162.26ZM387.011 165.116C386.085 166.083 385.062 167.775 384.75 168.84C384.175 170.635 384.236 170.912 385.369 171.78C388.314 174.058 402.068 176.331 403.036 174.695C403.413 174.075 399.312 167.142 397.723 165.782C395.85 164.15 393.379 163.2 391.039 163.249C389.146 163.289 388.373 163.639 387.011 165.116ZM360.019 166.519C359.82 167.693 359.571 169.091 359.416 169.652C359.156 170.548 359.604 170.65 364.725 170.431C367.843 170.31 370.345 170.09 370.341 169.868C370.334 169.533 361.37 164.541 360.7 164.499C360.476 164.448 360.162 165.402 360.019 166.519ZM261.976 172.703L259.65 173.364L259.129 177.721C258.605 181.965 258.615 182.411 260.983 191.72C263.355 201.197 266.01 208.216 266.532 206.533C266.795 205.804 267.325 201.837 268.161 193.909C268.391 191.62 268.39 191.565 266.544 191.213C263.58 190.663 263.576 190.496 267.09 188.026C272.856 184.006 275.468 178.38 273.005 175.201C272.374 174.323 271.796 173.332 271.79 173.053C271.784 172.775 272.875 171.694 274.247 170.662C275.618 169.63 276.711 168.605 276.706 168.382C276.701 168.159 273.875 168.887 270.444 170.018C267.069 171.147 263.194 172.343 261.976 172.703ZM279.132 177.746C278.365 178.375 277.553 179.506 277.237 180.404C276.819 181.694 276.938 182.081 278.071 182.949C279.883 184.359 282.833 184.186 286.307 182.497C290.994 180.17 290.873 177.053 286.174 176.149C283.489 175.649 281.16 176.199 279.132 177.746ZM312.781 185.562C309.062 186.197 306.081 187.541 306.101 188.488C306.107 188.766 307.068 189.414 308.192 189.892C309.821 190.526 311.439 190.604 315.054 190.305C321.282 189.728 324.768 188.597 324.739 187.205C324.69 184.866 319.996 184.185 312.781 185.562ZM279.982 189.037C276.596 189.665 274.835 190.705 273.541 192.738C272.517 194.375 271.928 200.849 272.819 200.83C273.154 200.823 274.901 199.115 276.694 196.961C278.816 194.521 280.02 193.493 280.033 194.105C280.049 194.885 280.499 195.098 282.114 195.064C287.572 194.949 295.384 192.835 297.793 190.835L299.162 189.692L297.331 190.065C295.945 190.372 295.553 190.269 295.537 189.545C295.499 187.708 288.305 187.413 279.982 189.037ZM322.153 199.348L317.602 202.842L319.684 206.475C320.896 208.455 323.721 212.963 326.078 216.423C331.712 224.717 338.654 236.883 340.366 241.47C341.077 243.461 341.839 245.283 342.066 245.446C342.237 245.665 342.188 235.36 341.919 222.553C341.467 201.059 341.033 196.332 340.093 201.979C339.95 203.096 339.334 205.616 338.762 207.578L337.725 211.22L335.52 209.707C333.711 208.464 332.732 206.98 330.287 201.962C328.6 198.599 327.148 195.789 326.981 195.792C326.87 195.795 324.675 197.401 322.153 199.348ZM308.277 207.16C308.087 208.724 315.497 219.32 318.1 221.215C320.703 223.11 323.572 224.442 323.557 223.719C323.523 222.104 315.696 210.235 312.448 206.794C310.909 205.155 308.462 205.373 308.277 207.16ZM351.341 214.89C349.984 227.23 348.498 243.973 348.782 244.246C349.408 244.846 351.911 234.041 353.019 225.829C354.175 217.17 354.251 215.497 353.703 210.662C353.363 207.716 352.922 205.274 352.754 205.278C352.532 205.283 351.955 209.64 351.341 214.89ZM282.582 214.664C277.708 216.048 273.968 218.355 273.505 220.203C273.097 221.994 274.293 225.868 277.212 232.213C281.358 241.263 281.552 242.54 280.603 253.033C279.974 260.233 280.72 263.894 285.464 277.554C287.243 282.642 288.678 287.291 288.688 287.792C288.7 288.349 289.349 290.062 290.107 291.662C291.852 295.191 292.692 295.396 302.764 294.794C311.5 294.221 313.046 293.575 312.93 290.681L312.831 288.622L317.914 291.913L322.944 295.261L330.765 290.974C335.007 288.657 338.806 286.516 339.19 286.229C339.518 285.944 339.929 284.264 340.115 282.533C340.342 280.077 339.695 275.801 337.259 263.262L334.134 247.172L330.824 240.78L327.513 234.331L313.428 229.558C305.684 226.935 297.773 224.316 295.809 223.689C293.846 223.062 292.33 222.481 292.439 222.367C292.548 222.253 297.696 223.315 303.797 224.635C318.295 227.84 318.631 227.944 318.617 227.276C318.588 225.884 313.751 221.084 310.25 218.873C300.764 212.889 293.05 211.714 282.582 214.664ZM265.349 290.734C263.694 291.493 260.445 293.344 258.195 294.951C255.944 296.558 252.751 298.408 251.15 299.11L248.279 300.341L254.182 302.835C260.702 305.539 261.316 305.637 262.293 304.391C263.162 303.314 265.056 303.275 265.078 304.333C265.087 304.778 264.453 306.407 263.648 307.872C262.308 310.407 262.261 310.798 262.915 312.79C263.929 315.944 266.492 318.62 270.379 320.6L273.813 322.31L274.288 321.019C274.551 320.289 274.896 318.165 275.079 316.267C275.39 312.528 276.625 310.274 278.727 309.561C280.277 309.083 281.863 307.657 281.844 306.766C281.837 306.432 280.799 304.782 279.54 303.193C277.365 300.453 277.245 300.01 277.17 296.446C277.088 292.549 276.493 290.778 274.85 289.476C273.604 288.499 269.103 289.095 265.349 290.734ZM335.046 295.842C332.287 297.126 329.588 298.576 328.987 299.145C327.184 300.854 327.724 302.681 330.849 305.568C334.031 308.51 334.817 308.772 334.774 306.767C334.742 305.208 336.823 303.493 338.388 303.739C339.17 303.834 339.495 303.381 339.737 301.649C340.37 297.29 340.681 293.551 340.403 293.557C340.236 293.561 337.806 294.615 335.046 295.842ZM308.305 301.251C303.206 302.528 297.855 305.092 296.665 306.788C295.368 308.71 295.624 310.264 297.897 315.063C299.005 317.379 301.301 323.236 302.963 328.104C304.624 332.915 306.395 337.613 306.859 338.495C308.365 341.249 310.401 342.654 312.851 342.603L315.023 342.557L314.75 345.46C313.941 354.669 313.949 355.059 315.175 357.707C315.819 359.197 316.679 360.349 317.069 360.341C317.458 360.333 321.198 360.644 325.327 360.947C329.458 361.306 335.539 361.68 338.829 361.833L344.852 362.097L344.734 356.473C344.636 351.795 344.128 348.853 341.873 339.653C340.351 333.501 339.104 327.177 339.07 325.562C338.949 319.827 338.776 319.552 332.966 316.164C330.033 314.443 327.66 312.877 327.656 312.71C327.652 312.488 328.37 312.194 329.312 311.951C330.255 311.764 330.969 311.248 330.959 310.803C330.911 308.52 323.413 301.714 319.883 300.729C317.193 300.006 312.629 300.213 308.305 301.251ZM239.318 303.426C237.598 303.796 233.565 305.385 230.311 307.013C227.058 308.642 221.151 311.217 217.115 312.695C213.133 314.115 208.381 315.998 206.561 316.872L203.251 318.445L205.763 318.671C208.108 318.9 207.666 319.077 199.688 321.25C190.049 323.904 151.565 337.916 138.037 343.715C129.919 347.173 129.369 347.519 131.157 347.76C132.219 347.904 145.044 348.415 159.596 348.889C186.303 349.776 200.863 350.64 203.946 351.522L205.626 351.932L203.971 352.691C203.032 353.101 197.919 353.71 191.743 354.118C185.901 354.519 168.774 356.105 153.651 357.649C138.529 359.192 122.572 360.809 118.237 361.29C111.731 361.928 110.399 362.179 110.913 362.781C111.257 363.219 116.888 366.053 123.473 369.202C134.673 374.537 138.902 376.955 145.414 381.888C149.772 385.139 154.894 387.594 159.429 388.668C161.837 389.23 168.649 389.923 175.567 390.334C188.173 391.016 194.04 391.84 197.974 393.429L200.39 394.381L196.221 394.858C193.942 395.129 183.875 395.953 173.863 396.777C157.344 398.127 142.064 400.119 139.248 401.348C138.475 401.699 139.094 401.964 141.778 402.409C156.373 404.944 182.043 412.148 196.09 417.757C207.664 422.361 226.521 431.49 225.868 432.228C225.758 432.286 214.961 430.229 201.924 427.607C177.584 422.714 164.048 420.214 152.644 418.392C145.768 417.311 126.833 415.035 126.614 415.263C126.56 415.319 134.912 420.38 145.182 426.515C155.507 432.649 163.747 437.657 163.524 437.661C163.245 437.667 157.751 436.056 151.191 434.077C137.453 429.909 115.865 423.399 113.792 422.83L112.391 422.469L113.815 423.944C114.611 424.707 117.105 426.716 119.312 428.34C121.575 429.964 125.363 432.614 127.683 434.292C132.775 437.974 139.773 444.846 143.615 450.057C146.424 453.786 151.631 462.98 151.194 463.379C150.812 463.777 146.474 461.473 139.59 457.384C127.006 449.794 123.91 448.299 121.126 448.357C118.618 448.354 118.509 448.468 117.88 450.32C117.568 451.385 117.289 454.009 117.333 456.125C117.377 460.859 118.127 462.069 123.849 466.573C127.928 469.774 138.55 479.467 138.277 479.695C138.166 479.753 135.143 479.037 131.445 478.056C127.802 477.074 124.724 476.415 124.615 476.528C124.506 476.642 124.301 477.482 124.153 478.376C123.959 479.773 124.364 480.489 127.439 483.655L131.028 487.368L136.307 486.7C139.197 486.361 151.321 485.326 163.281 484.406C186.2 482.699 192.217 482.684 206.684 484.385L212.158 485.05L219.706 480.992L227.198 476.934L222.749 477.362C220.302 477.581 215.02 478.082 211.072 478.443C202.009 479.358 169.782 480.927 154.412 481.306C143.775 481.529 142.827 481.494 142.976 480.599C143.17 479.258 148.04 477.651 166.378 472.698C193.691 465.327 210.281 462.026 225.081 461.046C229.588 460.784 233.089 460.321 232.861 460.103C231.212 458.522 222.172 455.202 206.304 450.411C186.005 444.264 183.76 443.475 184.02 442.579C184.8 439.944 210.105 443.089 235.469 448.962C239.107 449.777 242.688 450.481 243.467 450.465C245.361 450.425 247.318 448.1 247.711 445.585C249.127 436.085 251.785 430.012 256.427 425.569L259.487 422.664L260.224 431.228C260.95 439.29 261.076 439.956 262.625 442.096C263.544 443.414 264.402 444.454 264.513 444.452C265.516 444.431 268.916 441.852 273.124 437.92C278.423 432.906 288.513 425.229 295.66 420.678C298.079 419.123 300.113 417.799 300.223 417.741C300.444 417.625 301.159 403.961 300.989 403.798C300.932 403.743 297.891 404.865 294.245 406.335C280.32 411.864 278.937 412.339 279.589 411.545C279.914 411.093 283.535 408.398 287.652 405.471C295.501 399.846 298.016 397.565 298.807 395.431C299.489 393.412 299.269 388.235 298.419 387.585C295.305 385.199 283.596 387.451 250.975 396.771C245.713 398.275 240.226 399.616 231.461 401.471C227.911 402.214 243.676 394.139 254.338 389.793C262.79 386.328 269.706 384.01 282.001 380.521C293.412 377.328 298.05 375.337 298.623 373.43C299.556 370.124 295.086 369.494 272.197 369.975C263.619 370.1 256.654 370.079 256.761 369.854C257.567 368.444 266.883 366.354 281.602 364.151C287.99 363.236 294.039 362.106 294.977 361.641C298.124 360.294 298.132 358.009 294.843 352.619C293.803 350.858 291.548 346.95 289.812 343.923C285.589 336.491 279.67 330.599 274.789 328.975C269.682 327.244 268.948 326.758 268.349 324.765C267.99 323.602 265.987 321.082 263.255 318.354C260.466 315.516 258.175 312.556 257.186 310.571C254.452 305.113 252.701 303.98 245.835 303.345C243.992 303.16 242.484 302.969 242.483 302.914C242.483 302.914 241.038 303.111 239.318 303.426ZM280.841 312.079C278.419 313.467 277.785 323.062 279.871 326.862C281.376 329.56 285.353 333.209 288.561 334.757L290.925 335.877L290.473 332.934C289.884 328.769 288.56 324.117 286.799 319.864C285.976 317.82 285.035 315.445 284.683 314.617C284.039 313.126 282.723 311.482 282.166 311.494C281.999 311.498 281.392 311.789 280.841 312.079ZM104.407 373.948C104.41 374.115 105.395 375.933 106.554 378.025C108.172 380.777 109.941 382.801 113.061 385.409L117.315 388.996L133.302 388.828C142.048 388.755 149.063 388.496 148.836 388.334C148.61 388.171 141.251 385.318 132.434 381.994C121.933 378.092 114.527 375.629 110.834 374.927C104.401 373.67 104.401 373.67 104.407 373.948ZM431.352 368.746C431.355 368.857 433.727 370.367 436.547 372.035C439.425 373.757 444.961 377.373 448.75 380.023C452.595 382.672 457.788 385.906 460.211 387.192L464.717 389.492L469.796 387.269C473.994 385.509 492.54 374.59 491.646 374.442C491.479 374.446 478.023 373.113 461.777 371.56C445.474 369.953 432.018 368.621 431.739 368.571C431.516 368.575 431.35 368.635 431.352 368.746ZM71.7531 379.091C65.0871 382.685 62.4261 385.972 63.2821 389.575C63.5281 390.684 63.7461 393.075 63.6741 394.971C63.5871 398.761 64.3341 399.859 66.8891 399.471C68.3331 399.274 68.4401 399.049 68.3981 397.044C68.3721 395.819 68.1171 394.265 67.8791 393.545C67.4681 392.551 67.5741 392.326 68.5771 392.305C72.6421 392.22 75.1201 388.157 75.0401 381.696C74.9941 379.524 74.8441 377.689 74.6771 377.693C74.5101 377.696 73.1861 378.337 71.7531 379.091ZM378.458 375.763L373.337 378.656L375.732 378.606C378.127 378.555 379.708 379.581 381.266 382.111C381.787 383.047 382.054 382.484 382.811 378.736C383.26 376.275 383.825 373.979 383.928 373.587C384.35 372.464 383.964 372.639 378.458 375.763ZM84.3021 379.663C82.6991 380.309 79.3 385.562 78.1481 389.096C77.7321 390.497 77.4791 391.728 77.5931 391.837C77.7641 392.001 79.9211 391.287 82.4091 390.343C86.7751 388.636 90.9371 387.88 91.7341 388.643C91.9051 388.862 91.5321 389.65 90.8241 390.445C89.5181 391.921 85.152 393.628 82.5911 393.682C81.1431 393.712 77.5861 396.795 77.6131 398.076C77.6421 399.468 79.938 400.033 83.7731 399.562C88.5531 399.016 97.3611 396.602 100.337 395.036C104.358 392.834 103.203 390.909 93.8131 384.198C86.1201 378.678 86.4011 378.839 84.3021 379.663ZM419.437 385.041C420.525 389.084 422.012 393.566 422.767 394.998L424.158 397.587L429.246 395.753C432.066 394.747 434.498 393.804 434.663 393.69C434.772 393.576 431.071 389.81 426.408 385.34C421.745 380.87 417.827 377.331 417.718 377.445C417.553 377.559 418.349 380.997 419.437 385.041ZM521.971 385.782C516.925 386.946 509.828 388.6 506.169 389.457C497.243 391.538 491.798 392.266 480.889 392.829C470.927 393.373 469.761 393.564 469.786 394.734C469.828 396.738 474.241 397.258 482.35 396.085C486.018 395.618 493.25 395.076 498.485 394.966C514.357 394.632 525.107 391.844 531.181 386.591C535.34 382.994 534.448 382.957 521.971 385.782ZM339.07 391.855C337.363 392.782 335.951 394.539 332.986 399.281C327.651 407.861 325.591 410.578 322.958 412.583C321.698 413.557 320.598 414.248 320.54 414.138C320.426 414.029 320.515 410.295 320.81 405.776C321.049 401.259 321.079 397.414 320.909 397.251C320.227 396.597 316.085 398.355 315.056 399.769C313.7 401.525 313.644 406.818 314.97 419.548L315.755 427.72L318.453 426.215C321.317 424.595 341.365 405.567 344.731 401.374C347.117 398.26 347.806 396.574 347.745 393.678C347.661 389.669 344.191 388.962 339.07 391.855ZM374.522 395.288C371.333 397.305 359.705 408.691 359.4 410.09C359.249 410.818 359.445 412.206 359.854 413.145C361.199 416.125 361.261 421.75 360.063 433.641C358.768 446.258 358.702 456.399 359.863 458.603C360.851 460.532 363.322 461.483 367.055 461.46C371.567 461.421 373.201 459.659 375.439 452.147C375.961 450.465 377.653 446.14 379.194 442.598C382.117 435.851 383.005 433.047 382.225 433.064C381.947 433.07 379.07 434.021 375.749 435.094C372.486 436.221 369.827 436.945 369.823 436.778C369.818 436.556 372.942 434.094 376.672 431.286C387.259 423.376 389.914 419.811 391.034 412.099C391.562 408.077 391.489 396.658 390.821 396.672C390.599 396.733 388.048 399.962 385.066 403.868L379.7 411L378.67 409.685C377.755 408.59 377.561 407.313 377.433 401.243C377.345 397.011 377.062 394.176 376.728 394.183C376.449 394.189 375.456 394.656 374.522 395.288ZM433.093 409.154C427.9 411.268 425.908 414.541 428.462 416.772C429.086 417.316 429.65 417.638 429.759 417.524C429.868 417.411 431.221 415.488 432.847 413.337C436.91 407.848 436.801 407.962 436.467 407.969C436.244 407.973 434.751 408.506 433.093 409.154ZM69.8441 426.094C66.1161 431.631 62.5171 435.328 60.8461 435.363C59.454 435.393 58.2501 431.128 58.1401 425.894L58.0341 420.882L54.0351 424.142C48.6141 428.657 45.5041 431.786 44.5421 433.701C43.8471 435.108 43.8531 435.386 44.5921 436.095C45.7311 437.241 65.3191 441.397 69.6661 441.473C74.4591 441.539 75.1691 440.856 77.2591 434.238C78.9261 428.744 79.1121 427.013 78.1141 424.583C77.5261 423.091 74.8431 420.028 74.2301 420.041C74.0631 420.044 72.0591 422.76 69.8441 426.094ZM490.898 418.356C493.176 420.704 495.674 422.935 496.519 423.363C499.336 424.864 506.055 423.775 506.791 421.699C507.373 420.238 506.006 418.818 502.408 417.278C498.077 415.308 488.171 413.233 486.961 413.982C486.851 414.04 488.62 416.009 490.898 418.356ZM334.303 424.824C328.405 427.844 323.011 430.966 320.49 432.969C318.188 434.8 316.326 436.343 316.329 436.455C316.331 436.566 317.186 440.113 318.221 444.325C319.625 450.145 320.012 452.644 319.784 455.044L319.515 458.17L322.758 458.714C324.94 459.114 329.118 459.082 335.461 458.67L344.92 458.081L345.574 454.725C346.272 450.811 346.28 445.908 345.519 433.557C345.06 424.987 344.508 419.929 344.174 419.937C344.062 419.939 339.652 422.149 334.303 424.824ZM406.441 421.469C403.454 422.478 399.312 424.237 397.275 425.394C393.032 427.656 391.731 429.354 388.594 436.495C387.476 438.97 385.393 443.248 383.891 446.009C380.728 451.925 378.616 457.484 378.666 459.879L378.702 461.605L380.465 460.621C383.219 459.114 387.307 454.795 391.639 448.854C395.483 443.537 398.706 440.461 401.25 439.572C403.463 438.801 406.476 436.398 407.825 434.308C413.003 426.177 415.794 421.105 415.5 420.387C415.028 419.115 412.416 419.449 406.441 421.469ZM419.225 422.648C417.585 424.131 410.443 436.927 411.279 436.91C411.891 436.897 415.806 434.92 418.721 433.132C423.561 430.134 425.903 427.577 425.853 425.183C425.785 421.953 421.741 420.423 419.225 422.648ZM298.713 428.079C295.586 430.373 292.754 433.496 286.682 441.479C283.428 445.725 281.486 448.774 281.504 449.61C281.531 450.89 281.643 450.944 284.979 450.595C289.593 450.108 296.219 447.239 298.728 444.679C300.691 442.633 301.797 439.601 301.892 436.145C301.98 432.411 301.631 426.402 301.297 426.409C301.13 426.412 299.975 427.161 298.713 428.079ZM101.421 436.014C101.538 436.291 102.44 439.447 103.353 443.105L105.053 449.754L108.35 452.86L111.59 455.911L111.92 453.063C113.055 443.458 111.584 439.756 105.449 436.765C103.196 435.643 100.959 435.244 101.421 436.014ZM280.715 457.147C273.815 460.189 267.858 463.099 267.422 463.554C264.095 466.967 285.296 468.304 292.248 465.094C296.331 463.169 297.469 461.641 297.885 457.566C298.613 449.807 297.387 449.777 280.715 457.147ZM359.673 468.133C356.741 471.76 358.832 475.838 363.743 476.181C366.366 476.404 366.642 476.287 367.999 474.587C370.281 471.809 369.697 467.866 366.944 466.81C366.27 466.546 364.651 466.357 363.37 466.384C361.475 466.368 360.812 466.661 359.673 468.133ZM327.5 469.589C320.228 470.856 319.286 471.099 319.304 471.99C319.327 473.048 323.366 474.356 328.392 474.918C333.81 475.584 342.98 474.445 344.51 473.02C345.766 471.823 345.722 469.707 344.425 469.011C342.96 468.206 333.884 468.508 327.5 469.589ZM295.289 479.848C295.523 480.4 295.939 484.291 296.195 488.52C296.616 495.307 296.805 496.306 297.767 497.01C298.954 497.821 300.674 497.506 301.93 496.254C302.858 495.343 303.244 489.876 302.667 486.267C302.16 483.381 300.042 480.695 297.457 479.636C295.153 478.681 294.708 478.746 295.289 479.848ZM238.358 491.017C236.698 491.553 234.717 492.709 233.79 493.676L232.153 495.325L232.649 500.385C232.875 503.165 233.205 505.609 233.374 505.717C233.717 506.1 265.849 500.021 265.841 499.631C265.765 498.686 253.985 492.248 249.494 490.671C246.744 489.726 241.9 489.884 238.358 491.017ZM318.912 490.438C316.785 492.599 318.566 495.18 322.991 496.313C326.969 497.343 334.507 498.132 339.185 498.033C344.142 497.929 343.786 496.878 337.879 494.217C328.485 489.958 320.82 488.448 318.912 490.438ZM182.745 498.593C177.173 501.217 152.304 510.876 150.967 510.904C150.856 510.906 150.77 512.133 150.801 513.581C150.856 516.198 151.029 516.473 155.816 521.554C158.605 524.392 160.996 526.793 161.163 526.789C161.331 526.841 160.601 523.904 159.524 520.361C158.445 516.763 157.603 513.828 157.657 513.716C157.767 513.658 159.458 514.569 161.434 515.809L165.045 517.961L166.238 516.432L167.376 514.904L167.709 517.46C167.905 518.848 168.383 520.398 168.783 520.835C169.297 521.437 169.522 524.218 169.609 531.013L169.749 540.313L171.973 542.717L174.142 545.179L177.389 543.272C180.911 541.192 201.327 526.446 201.044 526.229C200.931 526.12 196.667 527.38 191.576 529.047C186.428 530.659 182.165 531.918 182.051 531.809C181.937 531.7 185.227 529.18 189.399 526.196L196.919 520.801L196.868 518.406C196.841 517.126 196.986 516.064 197.209 516.06C197.487 516.054 197.659 516.273 197.664 516.496C197.67 516.774 198.017 517.38 198.418 517.928C199.163 518.915 199.385 518.855 202.242 516.956C204.879 515.174 205.692 514.098 209.076 508.067C211.17 504.346 212.721 501.249 212.554 501.253C212.387 501.256 206.475 503.609 199.459 506.486C187.914 511.241 181.501 513.604 180.22 513.631C179.942 513.637 180.2 512.685 180.788 511.502C181.376 510.32 184.428 507.081 187.929 503.999C193.07 499.378 196.116 495.86 196.088 494.524C196.084 494.357 194.747 494.385 193.137 494.642C191.247 494.848 187.379 496.378 182.745 498.593ZM141.715 497.505C140.497 497.865 140.498 497.921 141.421 499.406L142.345 500.946L147.874 498.936C150.915 497.813 153.567 496.755 153.731 496.584C154.111 496.131 143.543 496.965 141.715 497.505ZM322.368 506.409C319.493 507.472 319.519 508.697 322.53 511.475C325.542 514.253 335.687 519.778 338.425 520.166C340.046 520.41 340.598 520.176 341.85 518.757C343.756 516.655 346.316 511.254 346.278 509.416C346.232 507.244 343.972 505.732 340.006 505.258C335.482 504.741 325.133 505.404 322.368 506.409ZM363.39 509.78C361.641 511.377 361.537 511.714 361.083 516.625C360.815 519.806 360.922 524.874 361.305 529.824L361.974 537.832L366.357 542.252C368.749 544.709 372.912 549.245 375.541 552.421C378.171 555.596 380.685 558.552 381.14 558.988C381.879 559.697 381.915 558.749 381.439 552.018C380.942 544.285 380.883 544.119 375.457 527.186L370.028 510.142L368.057 509.125C365.41 507.788 365.521 507.786 363.39 509.78ZM142.538 518.1C142.171 519.166 142.097 520.951 142.343 522.06C142.718 524.001 147.302 535.325 152.514 547.36C156.261 555.972 156.75 558.023 156.474 563.488C156.2 569.009 156.853 570.89 160.103 574.442L162.555 577.12L165.324 570.99C167.614 565.984 168.24 563.909 168.707 559.666L169.323 554.472L161.701 544.437C157.518 538.899 153.55 533.021 152.792 531.422C151.271 528 144.057 516.118 143.499 516.074C143.332 516.078 142.849 516.979 142.538 518.1ZM240.969 517.145C235.151 518.66 226.845 521.119 222.642 522.6L214.954 525.324L210.037 529.94C207.36 532.447 204.299 535.297 203.26 536.21L201.345 537.866L201.677 535.129C201.868 533.621 201.901 532.506 201.737 532.677C198.465 536.032 191.273 546.434 188.109 552.294L184.142 559.731L185.397 563.772C186.354 566.871 187.918 569.735 192.403 576.326C200.108 587.696 200.277 587.803 196.255 579.365C195.264 577.268 194.503 575.502 194.612 575.388C194.721 575.274 196.122 575.691 197.753 576.381L200.73 577.544L203.124 574.819L205.517 572.039L205.601 575.993C205.646 578.164 205.851 579.943 206.018 579.939C206.241 579.935 208.049 578.504 210.13 576.789C212.156 575.075 213.965 573.644 214.132 573.641C214.243 573.638 212.549 577.852 210.317 583.024C208.142 588.195 206.342 592.69 206.349 593.024C206.355 593.302 207.456 595.34 208.783 597.485C210.226 599.906 212.453 605.096 214.409 610.681C216.187 615.769 220.71 626.816 224.509 635.259L231.35 650.602L234.167 649.429C237.646 647.963 242.271 645.303 253.379 638.329C262.231 632.739 270.784 628.771 285.052 623.68C288.48 622.438 291.9 620.807 292.665 620.066C293.976 618.813 294.027 618.589 293.223 617.492C292.764 616.833 291.409 615.97 290.23 615.549C288.266 614.922 285.875 615.14 265.54 617.851C253.15 619.504 242.925 620.778 242.811 620.669C242.753 620.558 244.898 619.232 247.709 617.78C254.046 614.416 270.139 608.674 279.231 606.533C287.935 604.456 290.144 603.518 291.104 601.492C292.174 599.353 292.024 594.899 290.612 588.69C289.939 585.807 289.049 580.589 288.641 577.088C288.093 572.197 287.36 569.149 285.586 564.284C284.287 560.801 283.217 557.593 283.207 557.147C283.199 556.757 283.842 555.518 284.599 554.444C286.82 551.445 286.866 548.324 284.835 544.467C282.514 540.059 273.979 531.604 270.04 529.793C264.639 527.288 262.547 528.502 255.126 538.574C250.629 544.629 241.517 553.79 236.519 557.237C234.323 558.788 232.453 559.941 232.339 559.832C232.225 559.723 234.147 553.053 236.597 545.036L240.97 530.459L246.22 523.107C252.012 515.019 252.443 514.341 251.942 514.352C251.775 514.355 246.843 515.629 240.969 517.145ZM297.118 516.522L295.67 519.17L296.253 533.698C296.8 546.444 297.014 548.668 298.082 551.765L299.325 555.249L298.134 559.563C297.049 563.597 297.009 564.322 297.664 574.28C298.176 582.737 298.7 586.459 300.413 593.72L302.44 602.703L302.073 582.599L301.706 562.496L303.546 557.221C305.385 551.946 305.385 551.946 305.184 542.424C305.074 537.189 304.638 529.678 304.276 525.73L303.513 518.56L301.123 516.215C299.871 514.96 298.735 513.925 298.679 513.926C298.624 513.927 297.924 515.112 297.118 516.522ZM321.791 542.576C325.651 559.207 325.949 560.148 327.119 560.124C328.121 560.103 328.446 559.65 328.689 557.974C329.187 555.122 329.106 551.28 328.611 548.951C328.183 547.121 328.29 546.952 330.815 545.116C333.395 543.279 333.449 543.222 334.563 537.907C335.17 534.941 335.563 532.426 335.448 532.261C335.107 531.934 317.907 524.775 317.798 524.889C317.743 524.946 319.527 532.93 321.791 542.576ZM342.95 539.29C342.63 539.965 342.293 542.479 342.178 544.989C342.037 548.891 341.726 549.956 340.168 552.719C339.146 554.467 337.142 559.857 335.686 564.79C331.941 577.459 328.546 588.282 327.066 592.046C323.785 600.304 324.886 602.342 333.273 603.726C341.548 605.111 344.474 603.824 343.486 599.221C342.308 593.564 342.306 593.452 344.238 587.284C346.32 580.332 346.932 577.645 347.897 570.55C348.715 564.405 348.929 542.785 348.156 540.462C347.618 538.691 345.583 537.341 344.257 537.87C343.871 538.045 343.271 538.671 342.95 539.29ZM361.465 563.97C361.691 580.009 361.846 582.067 362.945 586.668L364.167 591.767L362.025 595.879C359.935 599.823 359.885 600.102 359.994 605.281L360.106 610.626L363.753 606.539C369.198 600.519 373.253 594.64 374.458 590.994C375.09 589.254 375.785 587.846 376.119 587.839C376.399 587.889 377.406 588.091 378.356 588.238C379.922 588.539 380.143 588.423 380.779 586.906C381.729 584.379 381.087 583 376.977 578.295C370.301 570.803 364.035 556.339 363.805 548.044C363.765 546.15 363.593 545.931 362.483 546.122L361.261 546.314L361.465 563.97ZM174.174 570.581C172.201 572.127 170.355 577.068 170.79 579.231C171.034 580.229 172.014 581.768 173.036 582.694C175.706 585.145 184.621 590.472 187.312 591.251C189.666 591.926 191.438 591.387 191.41 590.051C191.402 589.661 189.38 586.25 186.85 582.515C184.374 578.723 181.78 574.599 181.086 573.388C178.998 569.477 176.638 568.524 174.174 570.581ZM414.553 587.365C411.974 589.258 395.375 602.699 393.186 604.583L392.039 605.666L393.701 605.241C396.917 604.505 402.037 601.556 406.915 597.721C409.599 595.547 413.826 592.506 416.244 590.951C421.247 587.726 421.791 587.102 420.489 586.127C418.962 585.044 417.242 585.415 414.553 587.365ZM387.581 587.097C383.721 589.016 366.733 607.813 366.781 610.096C366.789 610.486 367.793 610.521 369.403 610.264L372.068 609.818L367.665 612.417C363.759 614.783 359.168 619.002 359.193 620.227C359.208 620.896 362.959 619.146 365.704 617.194C369.162 614.726 372.029 613.273 375.959 612.02C380.938 610.356 382.193 609.104 384.797 603.088C386.126 600.052 388.118 596.723 389.477 595.135C393.995 590.082 394.834 587.557 392.306 586.608C390.509 585.921 389.786 585.992 387.581 587.097ZM329.224 623.142C325.414 624.782 322.103 626.3 321.883 626.471C321.72 626.642 321.843 629.87 322.255 633.538L322.954 640.32L320.487 644.884C318.234 648.999 317.819 650.456 315.761 661.251C314.506 667.795 313.56 673.163 313.674 673.272C313.731 673.327 315.701 668.996 317.984 663.6C322.124 653.819 322.178 653.762 326.383 649.663C331.461 644.765 338.433 634.535 341.515 627.396C343.484 623.009 343.582 622.338 342.994 620.902C342.292 619.302 342.181 619.304 339.236 619.7C337.57 619.958 333.089 621.5 329.224 623.142Z" fill="white"/>
</svg>
