<svg width="249" height="525" viewBox="0 0 249 525" fill="none" xmlns="http://www.w3.org/2000/svg">
<path d="M408.457 1.13615C406.128 1.76102 400.619 2.49952 396.189 2.78355C391.134 3.12439 386.079 3.86289 382.444 4.7718C364.496 9.37318 343.652 19.3145 322.183 33.6867C309.801 41.9805 307.927 42.6054 293.727 43.7415C284.185 44.5368 282.595 44.8209 274.132 47.434C265.272 50.2175 263.284 50.5584 255.219 50.8424C248.347 51.1264 248.119 51.1264 250.221 50.2743C252.663 49.3086 253.97 48.3997 253.97 47.6612C253.97 46.5251 250.221 44.9913 246.075 44.3096C238.35 43.1166 234.715 39.9354 233.352 33.1186C232.728 29.9942 232.33 29.3693 230.342 27.8923C228.127 26.2449 228.07 26.0745 227.389 21.2459C226.991 18.576 226.764 16.1901 226.934 16.0764C227.105 15.906 228.184 16.3037 229.32 16.9854C230.456 17.667 231.478 18.1215 231.592 18.0079C231.705 17.8943 231.989 15.622 232.16 12.8953L232.557 8.00981L230.512 5.96475C227.957 3.40843 225.287 3.29482 220.971 5.5671C218.528 6.81686 217.279 8.06661 214.78 11.6455C213.076 14.0882 210.974 16.5877 210.122 17.2126C208.759 18.2351 208.305 18.2919 206.317 17.667C202.909 16.7013 200.978 14.7131 198.365 9.77083C195.469 4.09012 194.219 2.89717 195.071 6.47602C195.866 10.1117 195.469 10.7934 192.231 10.7934H189.562L197.457 16.1901C201.773 19.144 204.954 21.5867 204.443 21.5867C203.931 21.5867 192.231 20.0529 178.373 18.1783C164.571 16.3037 153.155 14.8835 152.985 14.9971C152.871 15.1675 154.007 16.1333 155.541 17.2694C160.879 21.1323 170.308 23.9726 186.154 26.4153C197.57 28.1764 200.013 28.7444 200.013 29.767C200.013 31.0167 197.797 32.1529 187.46 36.0726C175.533 40.6171 168.945 43.7415 167.184 45.6162L165.821 47.0363L169.797 46.2978C177.748 44.764 186.722 41.5828 202.852 34.6524C213.133 30.2214 216.086 29.8238 220.687 32.0393C224.662 33.9707 230.115 39.8218 230.115 42.0941C230.115 43.4007 229.717 43.7983 227.729 44.5368C226.366 45.0481 221.823 45.957 217.563 46.5819C198.706 49.3086 182.633 53.9668 179.566 57.6593C178.884 58.4546 178.941 58.5682 180.19 58.2841C180.929 58.1137 183.371 57.8297 185.529 57.6593C187.744 57.432 193.594 56.8072 198.593 56.2391C203.591 55.6142 212.565 54.5917 218.471 53.9668C238.634 51.8081 239.884 52.4898 228.638 59.7043C209.214 72.2019 202.455 79.7572 189.846 103.389C189.619 103.843 188.767 104.639 187.972 105.036C186.608 105.832 185.473 105.661 175.533 103.503C160.311 100.208 157.301 99.8102 147.816 100.094C140.489 100.321 139.069 100.549 135.548 101.912C131.231 103.616 130.55 103.616 120.497 101.401C113.284 99.8102 103.231 100.435 83.0109 103.73C66.5966 106.4 64.7223 106.968 67.5622 108.274C68.0734 108.558 78.8648 108.899 91.5305 109.07C116.351 109.354 116.351 109.354 101.47 111.626C89.2018 113.501 71.4812 119.409 57.1684 126.396C47.5697 131.111 28.0884 143.665 29.1107 144.517C29.2243 144.574 44.2755 139.973 62.5641 134.235C80.8527 128.555 96.0174 123.896 96.3014 124.01C96.5854 124.124 94.9951 125.828 92.8368 127.873C89.6562 130.77 86.7027 132.645 78.1264 137.132C72.2195 140.257 65.7447 143.836 63.7 145.142C60.065 147.471 54.2717 152.641 54.7261 153.152C54.8965 153.266 58.1339 152.47 62.0529 151.334C65.9151 150.198 79.092 146.506 91.2465 143.097C103.458 139.689 113.738 136.735 114.136 136.621C115.612 136.11 113.681 138.439 106.354 146.165C102.265 150.425 97.8917 155.254 96.5854 156.901C93.9159 160.253 90.7921 166.161 91.0761 167.297C91.3033 168.433 104.764 160.083 115.669 151.959C120.667 148.267 128.676 141.791 133.447 137.587C138.218 133.383 142.25 130.088 142.364 130.145C142.477 130.259 144.181 134.974 146.226 140.598C149.406 149.516 151.735 158.208 151.11 158.719C150.997 158.833 147.078 160.367 142.364 162.184C134.81 165.138 130.607 167.183 133.844 166.274C138.501 164.968 161.504 163.036 178.998 162.412C189.789 162.071 199.729 161.673 201.148 161.503L203.704 161.219L201.432 163.264L199.161 165.366L187.688 165.195C179.054 165.025 176.158 165.195 176.158 165.65C176.158 166.104 177.635 166.502 180.02 166.729C182.121 166.956 184.848 167.297 186.097 167.524L188.369 167.922L182.405 170.081C168.206 175.307 155.029 182.18 138.672 193.031C127.142 200.7 120.27 206.948 117.998 211.891C117.203 213.595 116.691 215.072 116.805 215.185C116.919 215.299 122.939 212.118 130.209 208.085C140.944 202.177 195.98 174.852 196.434 175.193C196.548 175.25 196.321 176.216 195.98 177.295C194.446 182.578 193.765 188.316 193.708 196.098C193.708 203.483 194.39 212.856 195.242 217.003L195.582 218.423L197.286 216.435C198.195 215.356 200.694 210.982 202.796 206.778C209.441 193.315 211.258 191.213 217.052 189.509C220.914 188.429 233.523 186.895 239.089 186.895C242.383 186.895 243.292 187.066 243.576 187.861C244.087 189.225 241.815 190.815 231.592 196.098C211.826 206.267 198.706 216.946 193.197 227.342C191.72 230.069 191.55 230.637 192.402 230.183C193.026 229.898 199.899 226.263 207.68 222.059C219.948 215.526 253.97 199.223 254.424 199.677C254.481 199.734 250.846 206.38 246.302 214.447L238.01 229.16L236.363 239.669C235.397 245.464 234.488 250.86 234.318 251.656L233.977 253.076L235.795 251.372C238.294 249.042 241.758 244.043 246.302 236.318C248.971 231.773 251.414 228.535 254.197 225.808C258.627 221.377 262.375 218.821 262.773 220.014C262.887 220.355 263.398 223.877 263.909 227.797C264.42 231.716 264.988 235.409 265.159 236.034C265.386 236.886 265.045 236.715 263.852 235.352C262.432 233.818 261.637 233.477 258.116 232.966C255.901 232.625 253.686 232.341 253.288 232.341C252.89 232.341 255.276 235.011 258.57 238.192L264.591 243.987L267.26 256.768C268.737 263.812 270.838 272.106 271.974 275.231L273.962 280.911L274.416 296.079C274.7 304.429 275.098 313.007 275.268 315.109C275.609 318.574 275.382 319.881 273.167 327.777L270.668 336.639L271.633 339.877C272.542 343.001 272.542 343.513 271.236 353.568C269.759 365.327 267.658 372.882 265.954 372.428C265.443 372.257 261.24 371.348 256.525 370.382C249.199 368.849 244.712 367.372 243.008 365.838C242.781 365.668 247.211 363.85 252.834 361.861C258.457 359.93 262.943 358.169 262.83 358.055C262.262 357.487 244.996 359.135 237.214 360.441C226.48 362.259 216.938 364.475 213.871 365.838C211.883 366.69 211.088 367.429 210.35 369.246C209.27 371.746 208.362 372.03 205.749 370.667C203.534 369.53 199.615 363.054 195.866 354.42C195.128 352.715 193.31 349.989 191.891 348.398C188.88 344.933 187.915 342.377 187.915 337.718C187.915 334.026 188.937 331.413 191.436 328.743L192.913 327.095L191.493 327.493C186.381 328.686 184.961 328.686 182.121 327.38C180.588 326.698 179.225 326.187 179.111 326.3C178.998 326.414 179.963 328.232 181.27 330.277C183.144 333.287 183.939 335.333 184.961 339.991C185.643 343.286 186.097 345.955 185.87 345.899C185.7 345.899 183.996 344.081 182.121 341.922C179.282 338.627 169.626 330.958 160.595 324.823C159.687 324.198 162.299 318.518 167.014 311.076C170.649 305.282 171.898 302.612 175.363 292.898C177.578 286.592 180.872 278.185 182.633 274.151C184.393 270.118 185.756 266.766 185.643 266.653C185.586 266.539 181.838 269.607 177.351 273.413L169.172 280.343L162.527 292.5L155.825 304.657L155.427 312.496C155.2 316.87 154.973 320.392 154.859 320.392C154.745 320.392 145.488 313.803 134.299 305.736C123.11 297.669 113.624 290.853 113.227 290.625C111.58 289.66 114.192 293.522 118.339 298.237C126.404 307.44 131.402 311.644 147.078 322.21C152.587 325.903 156.847 328.913 156.62 328.913C156.393 328.913 151.792 327.664 146.453 326.13C127.085 320.563 112.375 317.325 96.9262 315.223C90.4513 314.314 84.3173 313.973 71.0836 313.803C61.5417 313.689 54.0445 313.689 54.3285 313.859C55.1805 314.257 86.8163 320.903 111.125 325.846C122.712 328.175 139.297 331.129 147.987 332.322C156.733 333.571 164.003 334.821 164.174 335.105C167.184 339.934 169.399 342.093 173.772 344.592C178.486 347.262 178.486 347.262 180.702 351.863C182.633 356.01 183.655 357.26 190.868 364.418C195.242 368.792 198.877 372.541 198.877 372.712C198.877 372.939 197.4 372.712 195.639 372.314C193.822 371.916 184.337 369.814 174.511 367.713L156.676 363.906L120.838 366.065C101.129 367.258 84.3741 368.337 83.5789 368.565C82.7838 368.735 88.577 369.19 96.3582 369.53C115.84 370.439 148.952 372.825 148.441 373.28C148.214 373.45 139.921 375.268 129.925 377.256L111.864 380.835L106.354 379.869C103.344 379.301 94.0295 377.881 85.5668 376.631C77.1609 375.382 69.4933 374.189 68.5277 374.018C65.0631 373.28 67.7326 374.416 78.1832 378.051C88.1795 381.517 89.145 381.914 91.6441 384.414L94.3703 387.141L88.9178 389.867C85.9076 391.401 83.5789 392.708 83.6357 392.821C83.7493 392.935 86.1916 392.594 88.9746 392.14C96.6422 390.776 109.705 390.833 113.681 392.196C117.146 393.389 121.292 395.321 120.951 395.662C120.894 395.775 118.111 395.434 114.817 394.98C110.898 394.412 103.799 394.071 94.0863 394.014L79.3191 393.957L67.9598 390.151C44.5027 382.312 23.999 377.427 10.3109 376.347L5.4832 375.95L8.03906 377.37C25.5325 386.743 37.5734 392.367 53.4766 398.502C63.0184 402.194 71.0268 405.432 71.3676 405.717C71.6516 405.944 61.0306 406.171 47.7401 406.171C34.4496 406.171 16.5586 406.341 7.98227 406.569L-7.58008 406.966L2.64336 408.557C8.26625 409.409 25.9869 411.397 42.0604 412.988C58.1339 414.522 71.3676 415.942 71.4812 415.999C71.5948 416.112 68.9253 417.021 65.5743 418.044C53.363 421.793 13.2644 435.597 14.5139 435.654C14.7411 435.711 29.8491 433.666 48.0241 431.109C83.5789 426.224 107.547 423.1 107.831 423.384C107.888 423.497 103.799 425.542 98.6301 427.985C85.1692 434.234 83.5221 434.575 67.4486 434.404C53.7038 434.291 51.6591 434.518 39.7317 437.188C29.5651 439.46 3.83609 447.697 -0.480466 449.969L-2.46836 451.049L0.371487 450.765C1.9618 450.594 13.4348 449.572 25.9301 448.492C38.4254 447.356 51.4319 446.22 54.8397 445.936C58.2475 445.595 61.0873 445.425 61.2577 445.538C61.3713 445.652 54.4421 450.708 45.809 456.729C37.2327 462.751 30.2466 467.807 30.3602 467.864C30.4738 467.977 35.1312 466.103 40.7541 463.773C46.3202 461.388 57.9635 456.957 66.5398 453.889C75.1162 450.821 82.9541 448.038 83.8629 447.64C87.2139 446.39 84.2037 448.208 65.1199 459.229L45.7522 470.363L38.0846 478.998C31.0418 486.951 15.6498 506.152 16.3314 506.152C17.013 506.152 45.525 487.632 65.0063 474.51C84.1469 461.615 87.4979 459.115 96.2446 451.276L106.014 442.528L106.411 444.629C106.582 445.822 107.718 453.775 108.967 462.24C110.16 470.761 111.239 477.748 111.409 477.748C111.58 477.748 112.545 475.248 113.454 472.238L115.215 466.671L114.533 456.161C114.192 450.367 113.965 445.595 113.965 445.482C114.022 445.425 115.896 446.731 118.055 448.435C120.213 450.14 125.779 454.003 130.493 457.07C135.15 460.138 141.512 464.512 144.579 466.898C147.703 469.227 150.088 470.761 149.918 470.306C149.747 469.852 148.668 466.557 147.475 462.978L145.317 456.445L139.069 449.458L132.822 442.471L137.309 438.267C142.023 433.893 150.656 428.667 156.563 426.622L159.687 425.542L160.823 427.019C162.129 428.667 162.186 430.371 161.163 436.108L160.425 440.142L166.673 461.956C170.081 473.885 173.091 483.94 173.318 484.167C173.545 484.394 174.795 481.497 176.158 477.634C178.259 471.67 178.827 469.113 179.906 460.308C180.702 453.548 181.042 448.322 180.872 445.254C180.588 440.994 180.702 440.426 181.724 439.517C182.86 438.494 182.973 438.494 186.495 440.028C188.937 441.107 192.061 443.38 196.378 447.186C199.899 450.253 202.852 452.753 203.023 452.753C203.193 452.753 203.193 452.298 203.023 451.73C202.909 451.162 203.25 450.14 203.818 449.401C204.783 448.208 205.067 448.151 207.396 448.776C210.406 449.515 211.997 450.821 215.234 455.082C217.222 457.695 218.585 458.774 223.697 461.558C230.853 465.364 234.829 468.318 239.373 473.147C244.541 478.6 243.008 480.816 235.567 478.657C231.705 477.521 231.478 477.521 232.5 478.714C234.261 480.816 234.091 480.872 227.389 480.929C221.936 480.986 220.119 481.213 217.336 482.293C213.644 483.656 211.769 484.906 214.212 484.394C218.074 483.542 229.831 482.747 234.886 483.031C241.304 483.372 246.87 485.019 250.278 487.632C254.708 491.041 252.834 492.234 236.249 496.551C221.652 500.357 208.873 504.277 195.469 509.106C183.882 513.252 180.758 514.616 179.679 515.979C178.827 517.002 179.793 516.888 192.629 514.389C198.081 513.309 206.544 511.775 211.372 510.98C223.924 508.878 244.314 505.129 250.221 503.822C253.345 503.141 256.809 502.743 259.252 502.857C262.773 503.027 263.341 503.198 264.307 504.504C265.897 506.663 264.818 508.424 259.706 511.946C251.016 517.854 244.541 522.853 241.304 525.977C235.965 531.147 236.079 531.374 242.724 529.102C245.904 528.022 248.744 527.17 248.971 527.17C249.199 527.17 247.154 530.067 244.371 533.589C238.578 540.974 234.829 546.655 233.068 550.859C232.387 552.449 230.456 558.528 228.752 564.379C227.048 570.23 225.23 575.456 224.662 576.081C222.788 578.183 219.891 577.501 209.441 572.673C197.57 567.162 192.572 565.174 185.359 563.015C176.783 560.459 169.683 559.096 139.581 554.097C136.854 553.642 134.469 553.358 134.355 553.472C134.242 553.585 147.703 559.266 164.23 566.083C180.758 572.957 194.162 578.637 194.106 578.751C193.992 578.865 191.607 578.581 188.88 578.183C180.304 576.933 151.11 577.274 135.832 578.751C121.803 580.171 117.146 580.853 116.294 581.705C115.896 582.103 116.975 582.273 119.361 582.273C121.406 582.273 131.856 582.898 142.648 583.693C153.439 584.489 169.172 585.227 177.578 585.454C194.617 585.795 197.968 586.25 201.716 588.408L204.272 589.942L202.284 590.056C201.205 590.169 193.083 589.658 184.223 588.92C169.91 587.783 167.241 587.67 160.482 588.295C156.222 588.692 152.701 589.09 152.53 589.204C152.246 589.544 161.22 591.078 171.898 592.555C192.743 595.396 201.603 597.611 198.82 599.372C197.57 600.167 195.469 599.997 190.868 598.747C180.02 595.793 173.318 594.203 170.478 593.919C167.468 593.578 168.036 593.919 183.03 601.985C195.582 608.688 200.58 611.074 208.134 613.801C213.303 615.676 217.506 617.266 217.392 617.323C217.336 617.437 213.417 617.721 208.759 618.062C197.4 618.857 190.13 619.993 182.973 622.038C179.679 623.004 171.273 624.765 164.344 626.015C139.978 630.389 130.38 632.32 119.929 634.876C108.513 637.66 87.2707 644.477 82.727 646.749L79.8871 648.169L83.8629 647.829C86.078 647.658 92.9504 646.749 99.1413 645.84C105.389 644.931 120.213 643.284 132.083 642.205C171.046 638.569 182.235 636.694 201.148 630.446C209.782 627.548 210.066 627.492 216.768 627.492C231.648 627.492 246.188 628.344 250.562 629.48C258.854 631.695 273.167 639.819 275.496 643.682C276.291 644.988 276.575 647.147 276.859 654.589C277.313 665.268 278.108 672.71 279.244 677.141C279.869 679.584 279.926 680.493 279.358 681.629C278.392 683.617 277.199 683.731 273.564 682.026C271.861 681.231 270.441 680.777 270.441 680.947C270.441 681.515 272.997 684.81 276.12 688.275C278.165 690.547 279.755 692.99 280.664 695.376C282.368 699.75 283.447 700.432 288.786 700.432C292.137 700.432 292.819 700.261 294.011 699.012C294.807 698.273 295.431 697.137 295.431 696.512C295.431 695.944 296.056 694.07 296.851 692.365C297.646 690.718 298.271 688.786 298.271 688.105C298.271 687.423 297.078 685.151 295.658 683.106C293.898 680.493 292.762 677.993 292.023 675.153C290.944 671.006 289.752 661.746 289.752 658.281L289.808 656.406L291.455 658.338C292.364 659.417 294.466 662.826 296.113 665.893C297.76 669.018 300.429 673.505 301.963 675.891C306.677 683.049 309.176 687.253 312.186 692.99C316.162 700.602 316.446 700.716 328.089 700.716C341.834 700.716 342.118 700.432 339.506 688.559C335.757 671.347 335.416 666.007 337.745 659.417C339.392 654.702 339.506 653.282 338.256 650.953C337.347 649.135 337.688 646.806 338.767 647.204C339.165 647.317 345.469 649.135 352.796 651.237C387.329 661.065 398.177 664.7 400.733 667.2C402.891 669.415 400.96 675.153 393.519 688.162C390.452 693.501 388.01 698.103 388.01 698.5C388.01 700.83 394.769 701.341 398.688 699.353C401.585 697.876 402.607 696.455 406.469 688.162C410.559 679.527 411.638 677.936 416.125 674.585C418.169 673.051 419.816 671.688 419.816 671.517C419.816 671.403 418.567 671.46 416.977 671.688C415.443 671.915 414.137 671.972 414.137 671.858C414.137 671.744 414.762 670.097 415.5 668.165C416.295 666.234 418.056 660.61 419.532 655.668C425.667 634.763 429.018 627.719 437.139 618.573C438.843 616.641 440.32 614.653 440.377 614.142C440.377 613.631 440.434 612.097 440.49 610.677C440.547 608.518 440.774 608.064 442.138 607.382C445.261 605.905 450.43 605.507 459.29 606.075C472.978 606.984 482.123 607.268 480.873 606.757C480.248 606.473 476.443 605.962 472.354 605.621C465.765 605.11 460.142 603.803 460.142 602.78C460.142 602.61 461.676 601.815 463.607 601.076C465.481 600.338 466.901 599.656 466.787 599.542C466.674 599.429 464.232 599.826 461.278 600.451C458.382 601.133 455.769 601.531 455.485 601.474C454.747 601.19 467.923 592.782 471.729 591.135L475.023 589.658L484.792 591.646C493.539 593.464 497.458 593.919 524.607 595.907C541.191 597.157 555.22 598.179 555.845 598.179C558.003 598.179 555.504 597.1 546.473 594.203C533.126 589.999 523.244 587.783 510.975 586.25C503.989 585.397 489.563 584.545 488.881 584.943C488.597 585.17 488.541 585 488.768 584.659C489.506 583.466 494.164 583.296 500.354 584.205C509.556 585.625 521.767 586.25 539.658 586.193C554.709 586.136 555.731 586.079 553.857 585.284C547.098 582.33 533.013 580.171 516.939 579.603C503.365 579.092 506.261 578.467 522.392 578.353C535.001 578.297 538.408 578.013 610.597 571.48C620.707 570.571 629.056 569.719 629.227 569.548C629.34 569.435 626.955 568.867 623.888 568.299C618.889 567.333 615.254 567.219 588.219 567.276C554.993 567.276 547.496 567.674 523.471 570.628C520.006 571.082 518.757 572.218 536.136 559.323C543.747 553.756 549.824 549.098 549.768 548.984C549.257 548.473 520.517 559.664 509.839 564.492L497.344 570.23L497.174 568.412C497.06 567.276 498.253 562.788 500.184 557.164C502.683 549.609 503.365 546.712 503.649 542.679C504.046 536.827 502.967 530.408 500.809 525.693C500.014 523.989 499.446 522.626 499.559 522.626C499.616 522.626 509.783 525.58 522.108 529.158C534.433 532.737 544.713 535.691 544.997 535.691C545.962 535.691 542.838 532.794 539.487 530.465C535.114 527.511 524.436 522.342 513.872 518.195C504.387 514.445 501.434 512.514 501.718 510.298C501.945 508.31 504.103 506.833 507.795 506.152C512.168 505.356 534.773 505.47 555.277 506.436C564.989 506.89 575.951 507.231 579.7 507.231L586.515 507.174L576.576 505.299C571.123 504.277 555.675 502.005 542.214 500.244C528.81 498.483 517.393 496.949 516.939 496.892C516.485 496.778 516.996 496.324 518.075 495.813C519.154 495.358 520.858 494.62 521.767 494.165C522.96 493.654 527.106 493.37 535.284 493.2C541.759 493.086 547.041 492.745 547.041 492.461C547.041 491.893 544.372 491.438 539.658 491.211L535.966 491.098L538.522 489.791L541.078 488.485L537.102 488.825C534.944 489.053 532.501 489.337 531.706 489.507C530.23 489.791 531.025 489.166 539.487 483.826C545.394 480.077 546.644 477.521 543.52 475.532C542.384 474.851 542.214 474.851 541.646 475.76C540.226 478.316 536.364 481.895 532.217 484.565C526.879 487.973 516.882 492.915 514.27 493.427C512.395 493.768 512.395 493.768 512.395 491.552C512.395 487.519 516.939 481.895 523.812 477.407C528.582 474.283 536.761 470.931 540.51 470.533C544.656 470.079 546.417 471.158 548.689 475.589C549.711 477.578 551.926 480.872 553.573 482.917C555.277 484.962 557.094 487.519 557.719 488.541L558.855 490.359L559.196 488.712C559.878 485.303 560.616 479.395 561.297 471.499L561.979 463.262L569.363 458.718C573.679 456.048 577.882 453.889 579.529 453.548C581.063 453.15 582.937 452.696 583.789 452.469L585.266 452.128L584.982 457.127C584.698 461.842 586.913 489.962 587.594 490.643C587.708 490.814 589.128 489.734 590.661 488.314C594.694 484.565 596.625 480.134 598.443 470.931C599.238 466.727 600.658 460.479 601.51 457.127L603.1 450.992L610.824 458.377C616.618 464.001 618.889 465.818 619.969 465.818C621.445 465.818 621.673 465.421 621.445 463.319C621.218 460.876 621.957 459.57 623.66 459.57C626.273 459.57 634.168 462.069 642.46 465.534C654.388 470.533 663.759 473.658 664.554 472.919C665.065 472.408 659.954 467.523 655.239 464.001C648.878 459.172 638.768 454.457 628.318 451.333C619.457 448.663 615.993 447.015 614.403 444.743C613.891 444.005 613.607 443.38 613.664 443.323C613.721 443.209 619.798 443.891 627.125 444.8C634.452 445.766 640.756 446.447 641.04 446.447C641.722 446.447 615.141 439.119 614.346 439.119C614.005 439.119 611.619 436.96 609.007 434.347C604.236 429.576 604.236 429.519 604.974 427.815C605.372 426.849 605.94 426.053 606.281 426.053C606.565 426.053 612.471 427.19 619.401 428.61C630.476 430.825 634.963 431.45 657.114 433.438C670.972 434.688 682.9 435.711 683.524 435.711C684.49 435.654 684.263 435.37 682.502 434.461C676.084 431.109 663.191 427.587 647.288 424.917C637.803 423.327 631.271 421.736 631.839 421.168C631.953 420.998 643.823 419.634 658.136 418.044C677.731 415.942 688.295 415.033 700.847 414.578C709.992 414.181 717.091 413.67 716.637 413.442C715.331 412.704 706.3 411.397 695.565 410.375C688.409 409.636 680.344 409.352 668.587 409.409C643.88 409.409 629.738 411.113 610.029 416.396C604.236 417.987 598.499 419.237 597.363 419.237C593.672 419.237 589.355 416.112 590.718 414.465C591.457 413.613 596.171 412.704 602.986 412.079C605.201 411.909 612.699 410.772 619.741 409.523C636.156 406.739 646.493 405.262 656.319 404.41C664.952 403.615 665.009 403.16 656.546 402.251C640.983 400.547 618.208 400.945 602.702 403.103C595.319 404.183 591.911 403.899 591.911 402.251C591.911 400.604 593.728 399.411 599.124 397.366C604.406 395.434 608.041 393.73 607.701 393.389C607.587 393.276 604.349 393.901 600.431 394.81C596.568 395.718 593.274 396.343 593.161 396.23C592.99 396.116 593.956 394.696 595.319 393.105C596.625 391.572 597.591 390.265 597.42 390.265C597.25 390.265 594.864 391.288 592.138 392.537L587.14 394.866L585.323 392.992C583.107 390.663 571.975 377.086 572.202 376.859C572.259 376.802 581.517 379.358 592.763 382.653C610.086 387.652 627.977 391.912 628.715 391.174C628.772 391.06 626.784 389.186 624.228 386.97C619.912 383.278 618.606 382.596 603.043 375.609C593.956 371.519 584.755 367.372 582.539 366.349L578.564 364.531L602.134 362.089C615.084 360.782 626.387 359.646 627.295 359.646C628.204 359.589 628.829 359.248 628.829 358.794C628.829 358.226 626.955 357.942 620.196 357.658C615.425 357.43 607.53 357.033 602.702 356.692C591.513 356.067 579.416 356.067 572.884 356.749C570.101 357.033 567.772 357.203 567.659 357.09C567.545 357.033 571.01 355.556 575.269 353.908C579.586 352.204 583.335 350.67 583.562 350.443C584.641 349.591 568.567 351.75 561.979 353.397C559.366 354.022 554.595 355.556 551.358 356.806C544.826 359.248 541.532 359.589 538.068 358.112C535.625 357.09 533.069 354.817 531.933 352.602C529.094 347.148 522.676 343.342 508.874 338.855C494.107 334.026 484.962 332.094 466.958 330.049C446.909 327.777 442.762 326.471 431.914 319.142C424.815 314.371 420.839 312.553 407.889 308.179C398.006 304.827 397.95 305.168 408.457 303.691L413.853 302.952L410.615 301.475L407.378 300.055L402.266 301.703C399.426 302.612 396.87 303.35 396.587 303.35C396.246 303.35 396.7 301.873 397.495 300.112C398.688 297.556 399.029 295.738 399.256 291.421C399.483 285.967 398.688 277.616 397.552 273.697C396.927 271.538 394.031 267.618 393.519 268.13C393.349 268.3 392.156 275.685 390.907 284.604C389.6 293.522 388.351 301.248 388.124 301.759C387.783 302.612 386.874 302.271 380.911 299.033C375.231 295.908 372.391 294.772 363.872 292.33L353.648 289.376L353.705 285.399C353.818 281.479 353.818 281.423 359.498 271.822L365.235 262.165L365.575 254.78C365.973 246.316 367.79 235.693 369.154 233.307C370.062 231.716 370.233 231.716 373.243 232.057C374.947 232.284 380.399 233.705 385.341 235.295C390.339 236.829 394.485 238.022 394.599 237.908C394.712 237.795 391.588 235.466 387.726 232.739C380.683 227.797 372.221 221.037 372.164 220.355C372.05 219.332 382.501 215.299 396.984 210.754C417.829 204.165 418.737 203.597 401.641 207.744C397.098 208.88 391.816 209.902 389.941 210.016C386.931 210.3 386.306 210.186 385.227 209.107L384.034 207.914L378.809 211.039C375.969 212.743 373.584 214.106 373.527 214.049C373.47 213.936 373.186 212.743 372.902 211.323C372.391 209.164 372.618 207.403 374.152 200.359C375.117 195.757 376.764 190.077 377.787 187.748C379.604 183.601 379.661 183.544 381.422 183.885C385.625 184.737 391.077 186.327 398.688 188.997C403.118 190.588 406.753 191.781 406.753 191.724C406.753 191.383 390.793 179.567 385.341 175.875L379.604 171.955L381.535 167.467C382.614 164.968 383.466 162.866 383.466 162.809C383.466 162.752 384.262 162.128 385.17 161.446L386.874 160.139L395.848 166.331C400.733 169.74 405.049 172.694 405.447 172.864C405.788 173.091 403.573 168.888 400.449 163.548C397.325 158.208 394.883 153.72 394.939 153.607C395.053 153.55 399.313 153.834 404.424 154.288L413.682 155.083L421.577 159.969C428.166 164.059 434.016 166.843 456.223 176.5C470.934 182.919 483.088 187.975 483.259 187.804C483.486 187.634 481.441 185.362 478.828 182.749C475.591 179.511 471.274 176.159 465.538 172.41C448.272 161.162 443.16 157.697 443.33 157.469C443.444 157.356 449.862 158.606 457.53 160.31L471.502 163.321L473.603 166.729C479.056 175.648 480.135 176.67 496.492 189.281C505.069 195.871 517.28 205.755 523.641 211.209C530.002 216.606 535.341 220.98 535.455 220.809C535.909 220.355 534.092 213.197 532.501 209.505C527.333 197.007 512.452 179.624 499.616 170.989C496.265 168.774 493.652 166.843 493.766 166.729C493.88 166.615 497.628 167.07 502.058 167.808C506.488 168.49 509.953 168.888 509.726 168.66C509.442 168.433 507.284 167.411 504.841 166.388C502.456 165.422 500.525 164.457 500.638 164.343C500.752 164.229 505.296 165.706 510.748 167.638C516.201 169.512 524.209 172.353 528.582 173.887C542.271 178.658 607.36 196.041 608.268 195.189C609.064 194.337 598.102 188.884 586.061 184.112C580.665 181.953 570.669 177.863 563.797 174.966C535.909 163.207 523.244 160.026 500.752 159.06C489.336 158.549 484.451 157.981 483.599 157.129C483.372 156.958 484.11 156.788 485.133 156.788C486.212 156.788 494.732 156.276 504.16 155.652C523.244 154.402 576.973 151.675 583.051 151.675C594.126 151.675 577.598 148.267 557.549 146.449C545.622 145.369 509.556 145.54 497.287 146.733C491.948 147.244 487.348 147.699 487.064 147.699C486.78 147.699 493.084 144.233 501.036 139.973L515.519 132.304L511.827 132.645C506.716 133.156 495.811 135.485 490.756 137.189C488.427 137.985 483.429 140.143 479.624 142.075C472.013 145.938 468.605 146.676 465.254 145.313C462.471 144.12 453.327 138.098 453.327 137.416C453.327 136.337 456.337 135.769 464.856 135.371C475.307 134.917 474.057 134.576 457.018 133.213L444.523 132.247L428.904 126.339C420.328 123.101 409.991 119.465 405.901 118.216C400.903 116.682 398.177 115.546 397.495 114.694C396.927 114.012 396.7 113.273 396.927 113.046C398.177 111.91 406.753 110.717 419.532 109.922C427.37 109.411 436.174 108.786 439.127 108.558L444.523 108.161L440.831 107.479C434.243 106.286 426.518 105.661 416.693 105.604C411.41 105.604 407.435 105.434 407.889 105.207C408.343 105.036 421.293 101.23 436.572 96.7426L464.402 88.5623L457.018 88.8464C452.986 89.0168 444.921 89.6417 439.127 90.2666C420.896 92.3116 416.465 92.5956 411.865 91.9708C405.731 91.1187 402.209 89.1304 402.209 86.4037C402.209 83.9042 412.944 70.5545 416.636 68.5094C417.942 67.7709 420.725 66.2371 422.827 65.0442C424.985 63.9081 426.632 62.8855 426.518 62.8287C426.405 62.7719 424.474 62.8287 422.259 62.9991C419.987 63.2264 418.113 63.2832 418.113 63.2264C418.113 63.1128 421.066 59.0794 424.644 54.194C430.494 46.241 436.117 40.3331 437.821 40.3331C439.695 40.3331 455.655 48.911 468.378 56.6935C476.5 61.6926 483.259 65.7259 483.315 65.6123C483.997 64.9306 479.567 58.625 475.25 54.0804C467.98 46.5251 447.136 28.2332 439.411 22.7797L436.004 20.337L439.127 20.6778C454.179 22.3252 512.055 26.7562 517.053 26.6994C518.643 26.6426 514.27 24.2567 509.669 22.6093C502.342 20.0529 484.565 16.0764 467.526 13.2361C458.836 11.7591 453.497 11.5319 423.963 11.3615C422.883 11.3615 421.634 10.907 420.952 10.2253C419.987 9.25956 419.873 8.63469 420.157 5.85114C420.441 2.95397 420.384 2.44271 419.305 1.47699C417.601 -0.0568023 413.512 -0.170417 408.457 1.13615ZM385.965 20.2802C381.081 26.4153 380.059 27.8923 375.912 34.8228C373.47 38.7993 371.539 42.2077 371.539 42.3213C371.539 42.435 376.992 39.3674 383.637 35.4477L395.678 28.4036L396.075 31.9824C396.246 33.9139 396.473 37.3223 396.587 39.5946C396.7 43.2871 396.53 43.9119 394.883 46.5819L393.065 49.5358L393.747 53.626C394.371 57.2048 394.315 58.3978 393.179 64.4193C392.44 68.339 390.85 73.7925 389.43 77.485L386.988 83.7905L381.138 83.5633C377.9 83.4497 370.006 82.8248 363.644 82.1431L352.001 80.9502L336.666 82.4272L321.274 83.9042L315.878 81.2342C310.312 78.4507 305.257 77.2577 295.488 76.3488L291.342 75.9512L286.741 66.6348C284.242 61.5222 282.311 57.2616 282.425 57.148C282.538 57.0344 287.025 58.341 292.307 59.9884C297.646 61.579 307.188 64.5329 313.606 66.4644C320.024 68.3958 327.522 70.6681 330.361 71.577C333.144 72.4859 335.53 73.1108 335.643 73.054C335.7 72.9404 328.771 68.2254 320.138 62.5447C311.562 56.864 304.519 52.149 304.519 52.0354C304.519 51.8081 320.649 51.9786 351.831 52.4898C359.271 52.6034 365.235 52.6034 365.121 52.433C364.951 52.3194 362.565 51.5809 359.782 50.7856C355.352 49.5358 319.229 43.7415 316.049 43.7415C313.89 43.7415 314.515 42.9462 318.604 40.5603C325.647 36.4134 329.225 34.9932 355.068 26.5858C371.255 21.3595 382.898 18.1215 387.385 17.667C387.783 17.667 387.158 18.8032 385.965 20.2802ZM418.283 25.2792C419.419 26.0745 420.384 26.9266 420.384 27.1538C420.384 30.4487 417.658 40.5035 413.569 52.433C408.627 66.7484 408.4 67.1461 404.424 72.7132C402.153 75.8375 400.222 78.2803 400.165 78.2234C400.051 78.1666 401.187 73.338 402.664 67.5437C404.992 58.341 405.617 56.5231 407.662 53.626L409.991 50.2743L408.911 47.5476C408.003 45.1617 407.946 44.3096 408.514 40.7307C409.366 35.3341 412.206 27.3811 414.023 25.3928C414.818 24.5407 415.613 23.859 415.841 23.859C416.011 23.859 417.09 24.4839 418.283 25.2792ZM431.176 33.5162C432.88 35.2205 432.539 37.3223 429.926 42.0373C427.711 46.0706 422.259 52.2626 420.952 52.2626C419.987 52.2626 420.839 48.3997 422.429 45.673C423.167 44.3664 425.099 42.1509 426.746 40.6739C429.699 38.1176 429.756 38.0608 428.109 38.0608C426.178 38.0608 424.36 36.6406 424.36 35.1636C424.36 32.4937 429.018 31.3576 431.176 33.5162ZM259.422 61.1813C261.126 64.0217 266.01 78.7915 265.783 80.3821C265.67 81.2342 265.159 81.5183 263.909 81.5183C262.432 81.5183 262.148 81.2342 261.24 78.7347C260.672 77.2577 258.911 74.531 257.377 72.8268C251.982 66.7484 251.13 62.8855 254.31 58.6818C255.73 56.8072 255.787 56.7504 256.923 57.7729C257.548 58.341 258.684 59.8747 259.422 61.1813ZM245.564 69.1343C246.756 70.3841 247.097 71.5202 247.438 74.7014C247.608 76.8601 248.176 80.1549 248.631 82.0295C249.142 83.8474 249.312 85.5516 249.028 85.8356C248.801 86.0628 245.62 87.3694 241.985 88.7328C236.135 90.8914 209.441 104.468 209.952 104.98C210.066 105.093 216.37 103.9 223.981 102.366C243.576 98.2764 243.519 98.3332 249.085 98.1627L254.14 97.9923L255.446 102.253C256.809 106.627 256.809 109.638 255.389 109.638C254.992 109.638 252.038 109.354 248.858 109.07C245.677 108.729 242.951 108.558 242.837 108.672C242.667 108.786 244.939 109.751 247.835 110.774C254.594 113.16 257.605 114.864 258.457 116.852C259.649 119.749 260.842 127.986 261.183 135.883C261.58 144.631 261.183 145.881 257.775 147.415C256.753 147.869 251.243 150.368 245.45 153.038C234.147 158.208 231.592 159.003 229.49 157.924C225.117 155.652 224.322 152.982 226.139 147.074C226.764 144.858 227.218 142.927 227.048 142.756C226.877 142.586 225.855 142.984 224.776 143.608C222.674 144.858 222.163 144.745 222.163 142.927C222.163 141.223 217.108 136.735 212.905 134.69C210.804 133.724 208.93 132.929 208.759 132.929C208.589 132.929 210.122 135.371 212.167 138.325C214.155 141.279 215.688 143.722 215.575 143.722C215.404 143.722 209.838 140.03 203.25 135.542L191.209 127.362L172.352 119.522C161.959 115.205 153.553 111.569 153.666 111.512C154.177 111.001 197.911 117.818 219.891 121.851C222.22 122.249 224.208 122.533 224.265 122.476C224.378 122.419 217.733 119.068 209.498 115.034C201.319 111.058 194.503 107.65 194.39 107.593C194.276 107.479 195.639 105.15 197.457 102.423C200.637 97.5947 201.148 97.0834 215.007 86.4605C227.445 76.9169 241.304 67.7709 243.519 67.6573C243.803 67.6005 244.768 68.2822 245.564 69.1343ZM310.482 89.5281C311.618 90.721 311.675 90.6642 306.791 98.0491C303.099 103.673 298.612 109.07 297.646 109.07C297.022 109.07 294.295 102.423 293.614 99.2989C292.989 96.3449 293.273 93.0501 294.239 91.5163C295.772 89.0736 308.438 87.5398 310.482 89.5281ZM360.748 92.3116C365.291 93.0501 371.653 93.8454 374.947 94.0158C383.41 94.4703 384.489 94.6975 384.886 96.0609C385.511 97.9923 383.126 99.867 375.117 103.787C367.336 107.593 364.042 108.502 361.997 107.422C360.293 106.513 349.388 91.9708 349.388 90.6074C349.388 90.4938 350.07 90.4938 350.979 90.6074C351.831 90.7778 356.204 91.5163 360.748 92.3116ZM274.984 95.3792C275.78 95.9473 277.54 98.3332 278.96 100.662C280.38 102.991 283.277 106.911 285.435 109.411C292.251 117.25 293.443 121.738 289.581 125.373C287.877 127.021 283.561 129.52 282.425 129.52C282.141 129.52 280.721 125.998 279.244 121.681C275.893 111.796 276.064 112.024 274.189 113.273C272.94 114.069 272.315 114.126 270.441 113.614C269.191 113.273 267.487 112.421 266.635 111.626C265.045 110.319 265.045 110.263 265.159 103.957C265.329 96.7426 265.897 95.2088 268.907 94.3567C271.122 93.7318 273.11 94.0726 274.984 95.3792ZM343.425 103.389C350.467 107.422 352.228 108.842 352.228 110.433C352.228 111.796 350.013 113.046 344.561 114.75C337.461 116.966 328.373 123.896 327.635 127.759C326.726 132.247 327.408 136.848 329.907 143.268C331.157 146.562 331.27 147.244 330.589 148.039C329.509 149.346 325.477 148.835 318.036 146.392C314.742 145.256 309.744 143.949 307.018 143.438C301.111 142.359 298.271 141.279 298.271 140.086C298.271 139.007 299.35 137.814 307.586 130.316C314.401 124.067 327.635 108.331 331.781 101.628L333.769 98.4468L336.041 99.4125C337.291 99.9806 340.642 101.742 343.425 103.389ZM156.279 104.241C169.626 105.775 198.195 112.308 200.296 114.296C200.637 114.637 200.58 114.694 200.013 114.523C197.116 113.557 166.73 107.138 157.983 105.661C152.19 104.696 147.248 103.843 146.907 103.673C145.658 103.219 149.52 103.446 156.279 104.241ZM166.957 119.068C174.568 122.079 186.381 128.555 185.643 129.35C185.529 129.407 180.929 127.702 175.363 125.544C169.797 123.328 163.549 121.283 161.504 120.942C157.983 120.374 157.528 120.09 155.257 117.534L152.871 114.807L158.04 116.227C160.879 116.966 164.912 118.272 166.957 119.068ZM388.578 118.159C396.416 119.749 411.751 124.294 413.569 125.601C414.25 126.055 414.194 126.112 413.285 125.885C411.127 125.317 397.382 122.022 384.034 118.954C371.596 116.057 371.028 115.887 375.515 116.171C378.184 116.341 384.034 117.25 388.578 118.159ZM134.355 117.364C135.718 118.727 135.491 121.397 133.844 123.044C130.266 126.623 124.416 128.1 110.841 128.725L102.606 129.066L104.594 127.532C107.377 125.43 114.42 121.908 121.86 118.954C128.732 116.284 132.765 115.773 134.355 117.364ZM272.315 119.352C273.905 120.602 275.78 124.294 276.745 128.157C277.767 132.19 275.155 137.303 270.952 139.518C269.362 140.314 269.362 140.314 269.078 138.496C268.907 137.473 268.51 132.929 268.169 128.384C267.487 120.261 267.544 120.147 268.737 119.181C270.327 117.875 270.554 117.932 272.315 119.352ZM375.799 123.84C378.014 124.521 379.831 125.203 379.945 125.26C380.002 125.317 379.547 126.566 378.923 128.043L377.787 130.713L374.89 128.271C371.539 125.43 369.097 121.51 371.142 122.249C371.482 122.419 373.641 123.101 375.799 123.84ZM150.542 128.214C152.587 132.304 153.269 139.064 151.735 140.03C151.508 140.143 150.883 137.644 150.372 134.463C149.804 131.281 149.236 128.1 149.066 127.362C148.611 125.43 149.293 125.885 150.542 128.214ZM132.765 130.543C131.175 133.61 126.006 138.098 120.213 141.45C117.998 142.7 118.679 142.018 130.436 131.111C133.163 128.555 133.901 128.384 132.765 130.543ZM408.684 131.793C413.966 133.383 418.397 134.747 418.51 134.803C418.624 134.917 413.91 135.996 408.059 137.132C402.153 138.325 395.28 139.746 392.668 140.314C388.01 141.279 387.953 141.279 387.158 140.086C386.022 138.553 386.022 138.553 388.181 133.781C389.771 130.088 390.168 129.577 391.702 129.35C396.757 128.668 399.37 129.066 408.684 131.793ZM175.931 130.884C186.097 132.02 191.607 133.44 198.025 136.564C202.398 138.666 209.611 144.006 208.93 144.631C208.816 144.745 200.069 144.063 189.505 143.154C178.884 142.188 169.967 141.45 169.626 141.507C169.342 141.507 176.839 144.177 186.381 147.358L203.704 153.209L193.197 153.607C187.404 153.834 179.906 154.345 176.442 154.799C168.547 155.879 164.174 155.879 162.811 154.856C161.845 154.175 161.731 153.379 161.845 147.074C161.902 143.211 161.731 139.121 161.447 138.041C161.107 136.962 160.539 134.974 160.198 133.667C159.573 131.736 159.63 131.168 160.255 130.372C161.163 129.293 161.277 129.293 175.931 130.884ZM355.92 134.803C357.169 135.769 360.577 138.837 363.474 141.677C370.062 148.153 370.233 149.46 364.723 152.243C363.531 152.868 361.316 154.743 359.839 156.504C356.829 159.969 354.386 161.105 351.206 160.48C346.492 159.628 342.005 155.879 342.005 152.925C342.005 152.073 342.516 150.312 343.141 149.005C343.709 147.699 345.129 143.608 346.264 139.973C347.4 136.337 348.593 132.701 348.877 131.963L349.388 130.543L351.547 131.849C352.683 132.531 354.67 133.894 355.92 134.803ZM288.616 135.201C289.07 135.996 289.013 136.848 288.388 138.269C287.48 140.484 286.457 141.166 282.766 142.018C277.597 143.154 275.496 140.484 278.96 137.189C282.254 134.008 287.423 132.986 288.616 135.201ZM443.955 141.45C449.521 142.87 453.781 144.972 456.791 147.699C459.006 149.687 459.12 149.971 457.87 149.687C455.882 149.289 417.204 143.722 416.409 143.722C413.569 143.722 421.691 140.939 426.916 140.086C430.097 139.632 439.695 140.37 443.955 141.45ZM282.254 152.357C282.368 153.152 281.63 156.617 280.607 160.026C279.415 164.116 278.676 167.979 278.449 171.728C278.222 175.761 277.881 177.409 277.256 177.806C276.064 178.545 275.836 178.545 274.416 177.352C273.508 176.613 273.053 175.364 272.656 172.41C272.372 170.194 271.917 167.411 271.577 166.161C270.554 161.957 270.895 157.185 272.315 155.027C273.848 152.698 278.051 150.425 280.38 150.653C281.743 150.766 282.141 151.107 282.254 152.357ZM261.808 158.037C262.659 158.89 262.716 163.832 261.921 165.366C260.899 167.183 258.173 168.263 255.446 167.865C253.061 167.467 252.89 167.581 249.142 170.933C245.052 174.625 243.008 175.307 241.361 173.375C240.168 172.012 238.066 167.808 238.066 166.729C238.066 165.536 240.793 163.945 246.302 161.957C248.801 160.991 252.379 159.628 254.254 158.833C257.945 157.242 260.728 156.958 261.808 158.037ZM307.87 162.696C310.255 165.195 315.878 173.262 315.878 174.114C315.878 175.761 313.436 176.67 309.063 176.67C305.144 176.67 304.576 176.557 303.326 175.193C302.02 173.83 301.963 173.262 301.793 166.047L301.565 158.378L303.894 159.685C305.144 160.367 306.904 161.73 307.87 162.696ZM367.563 161.9C368.358 162.696 368.699 163.775 368.699 165.65C368.699 168.036 368.642 168.206 367.45 167.865C364.383 166.899 362.452 165.252 362.452 163.605C362.452 160.878 365.519 159.855 367.563 161.9ZM333.769 166.672C335.359 167.354 336.95 168.376 337.347 168.888C339.165 171.046 336.779 173.148 331.952 173.716C329.793 173.943 329.339 173.773 327.522 171.955C325.477 169.91 325.079 168.32 326.102 166.388C326.954 164.854 330.191 164.968 333.769 166.672ZM234.602 171.671C235.567 172.637 236.646 174.341 236.987 175.42C237.612 177.238 237.555 177.522 236.419 178.431C233.466 180.817 219.494 183.43 218.471 181.783C218.074 181.158 222.106 174 223.697 172.58C225.571 170.876 228.07 169.853 230.456 169.853C232.387 169.853 233.182 170.194 234.602 171.671ZM262.148 172.523C262.375 173.716 262.659 175.136 262.83 175.704C263.114 176.613 262.659 176.727 257.434 176.613C254.254 176.557 251.698 176.386 251.698 176.159C251.698 175.818 260.728 170.535 261.41 170.478C261.637 170.421 261.978 171.387 262.148 172.523ZM362.224 176.727L364.61 177.352L365.235 181.783C365.859 186.1 365.859 186.555 363.644 196.098C361.429 205.812 358.873 213.027 358.305 211.323C358.021 210.584 357.397 206.551 356.374 198.484C356.09 196.155 356.09 196.098 357.965 195.701C360.975 195.076 360.975 194.905 357.34 192.463C351.376 188.486 348.593 182.805 351.035 179.511C351.66 178.602 352.228 177.579 352.228 177.295C352.228 177.011 351.092 175.932 349.672 174.909C348.252 173.887 347.116 172.864 347.116 172.637C347.116 172.41 350.013 173.091 353.534 174.171C356.999 175.25 360.975 176.386 362.224 176.727ZM344.845 182.237C345.64 182.862 346.492 183.998 346.832 184.907C347.287 186.214 347.173 186.611 346.037 187.52C344.22 188.997 341.21 188.884 337.631 187.236C332.804 184.964 332.86 181.783 337.631 180.76C340.358 180.192 342.743 180.704 344.845 182.237ZM310.71 190.929C314.515 191.497 317.582 192.803 317.582 193.769C317.582 194.053 316.617 194.735 315.481 195.246C313.833 195.928 312.186 196.041 308.495 195.814C302.133 195.36 298.555 194.28 298.555 192.86C298.555 190.474 303.326 189.679 310.71 190.929ZM344.22 193.769C347.684 194.337 349.502 195.36 350.865 197.405C351.944 199.052 352.683 205.642 351.774 205.642C351.433 205.642 349.615 203.938 347.741 201.779C345.526 199.336 344.277 198.314 344.277 198.939C344.277 199.734 343.822 199.961 342.175 199.961C336.609 199.961 328.601 197.973 326.102 195.985L324.682 194.848L326.556 195.189C327.976 195.473 328.373 195.36 328.373 194.621C328.373 192.747 335.7 192.292 344.22 193.769ZM301.452 205.187L306.166 208.653L304.121 212.402C302.928 214.447 300.145 219.105 297.817 222.684C292.251 231.262 285.435 243.816 283.788 248.531C283.106 250.576 282.368 252.451 282.141 252.621C281.97 252.849 281.8 242.339 281.8 229.274C281.8 207.346 282.141 202.517 283.22 208.255C283.39 209.391 284.072 211.947 284.697 213.936L285.833 217.628L288.048 216.038C289.865 214.731 290.831 213.197 293.216 208.028C294.863 204.562 296.283 201.665 296.454 201.665C296.567 201.665 298.839 203.256 301.452 205.187ZM315.765 212.856C315.992 214.447 308.665 225.411 306.052 227.399C303.44 229.387 300.543 230.807 300.543 230.069C300.543 228.421 308.267 216.151 311.505 212.572C313.038 210.868 315.537 211.039 315.765 212.856ZM272.031 221.661C273.678 234.216 275.552 251.258 275.268 251.542C274.644 252.167 271.861 241.203 270.554 232.852C269.191 224.047 269.078 222.343 269.532 217.401C269.816 214.39 270.213 211.891 270.384 211.891C270.611 211.891 271.293 216.322 272.031 221.661ZM342.118 219.957C347.116 221.264 350.979 223.536 351.49 225.411C351.944 227.229 350.808 231.205 347.968 237.738C343.936 247.054 343.765 248.361 344.958 259.041C345.753 266.369 345.072 270.118 340.528 284.149C338.824 289.376 337.461 294.147 337.461 294.659C337.461 295.227 336.836 296.988 336.098 298.635C334.394 302.271 333.542 302.498 323.262 302.1C314.345 301.703 312.754 301.078 312.811 298.124L312.868 296.022L307.756 299.487L302.701 303.009L294.636 298.806C290.263 296.533 286.344 294.431 285.946 294.147C285.605 293.863 285.151 292.159 284.924 290.398C284.64 287.899 285.208 283.524 287.423 270.686L290.263 254.212L293.5 247.622L296.738 240.976L310.994 235.806C318.832 232.966 326.84 230.126 328.828 229.444C330.816 228.762 332.349 228.137 332.236 228.024C332.122 227.91 326.897 229.103 320.706 230.58C305.995 234.159 305.655 234.273 305.655 233.591C305.655 232.171 310.482 227.172 314.004 224.843C323.546 218.537 331.384 217.174 342.118 219.957ZM361.316 297.158C363.02 297.897 366.371 299.714 368.699 301.305C371.028 302.896 374.322 304.713 375.969 305.395L378.923 306.588L372.959 309.258C366.371 312.155 365.746 312.269 364.723 311.019C363.815 309.94 361.884 309.94 361.884 311.019C361.884 311.474 362.565 313.121 363.417 314.598C364.837 317.154 364.894 317.552 364.269 319.597C363.304 322.835 360.748 325.618 356.829 327.72L353.364 329.538L352.853 328.232C352.569 327.493 352.171 325.334 351.944 323.403C351.547 319.597 350.24 317.325 348.082 316.643C346.492 316.189 344.845 314.768 344.845 313.859C344.845 313.519 345.867 311.814 347.116 310.167C349.275 307.327 349.388 306.872 349.388 303.236C349.388 299.26 349.956 297.442 351.603 296.079C352.853 295.056 357.453 295.568 361.316 297.158ZM290.376 303.861C293.216 305.111 295.999 306.531 296.624 307.099C298.498 308.804 297.987 310.678 294.863 313.689C291.683 316.757 290.888 317.041 290.888 314.996C290.888 313.405 288.729 311.701 287.139 311.985C286.344 312.098 286.003 311.644 285.719 309.883C284.981 305.452 284.583 301.646 284.867 301.646C285.037 301.646 287.537 302.668 290.376 303.861ZM317.752 308.804C322.978 309.997 328.487 312.496 329.737 314.2C331.1 316.132 330.873 317.722 328.657 322.665C327.578 325.05 325.363 331.072 323.773 336.071C322.183 341.013 320.479 345.842 320.024 346.751C318.548 349.591 316.503 351.068 314.004 351.068H311.789L312.13 354.022C313.152 363.395 313.152 363.793 311.959 366.52C311.334 368.053 310.482 369.246 310.085 369.246C309.687 369.246 305.882 369.644 301.679 370.042C297.476 370.496 291.285 371.007 287.934 371.235L281.8 371.632V365.895C281.8 361.123 282.254 358.112 284.356 348.682C285.776 342.377 286.912 335.901 286.912 334.253C286.912 328.402 287.082 328.118 292.932 324.539C295.886 322.721 298.271 321.074 298.271 320.903C298.271 320.676 297.533 320.392 296.567 320.165C295.602 319.995 294.863 319.483 294.863 319.029C294.863 316.7 302.36 309.599 305.939 308.52C308.665 307.724 313.322 307.838 317.752 308.804ZM388.124 309.542C389.884 309.883 394.031 311.417 397.382 313.007C400.733 314.598 406.81 317.097 410.956 318.518C415.045 319.881 419.93 321.699 421.804 322.551L425.212 324.085L422.656 324.369C420.271 324.653 420.725 324.823 428.904 326.868C438.787 329.368 478.317 342.831 492.232 348.455C500.582 351.807 501.15 352.147 499.332 352.431C498.253 352.602 485.19 353.397 470.366 354.192C443.16 355.669 428.336 356.862 425.212 357.828L423.508 358.283L425.212 359.021C426.178 359.419 431.403 359.93 437.707 360.214C443.671 360.498 461.165 361.748 476.613 362.998C492.062 364.247 508.363 365.554 512.793 365.952C519.438 366.463 520.801 366.69 520.29 367.315C519.949 367.769 514.27 370.78 507.624 374.132C496.322 379.812 492.062 382.369 485.53 387.538C481.157 390.947 475.989 393.56 471.388 394.753C468.946 395.378 462.017 396.23 454.974 396.798C442.138 397.764 436.174 398.729 432.198 400.433L429.756 401.456L434.016 401.854C436.344 402.081 446.625 402.706 456.848 403.331C473.717 404.353 489.336 406.057 492.232 407.25C493.028 407.591 492.403 407.875 489.677 408.386C474.853 411.284 448.84 419.18 434.64 425.201C422.94 430.144 403.913 439.858 404.595 440.596C404.708 440.653 415.67 438.324 428.904 435.37C453.611 429.86 467.355 427.019 478.942 424.917C485.928 423.668 505.182 420.941 505.409 421.168C505.466 421.225 497.06 426.565 486.723 433.041C476.329 439.517 468.037 444.8 468.264 444.8C468.548 444.8 474.114 443.039 480.759 440.88C494.675 436.336 516.542 429.235 518.643 428.61L520.063 428.212L518.643 429.746C517.848 430.541 515.349 432.643 513.134 434.347C510.862 436.052 507.056 438.835 504.728 440.596C499.616 444.459 492.63 451.617 488.825 457.013C486.042 460.876 480.93 470.363 481.384 470.761C481.782 471.158 486.155 468.716 493.084 464.398C505.75 456.388 508.874 454.798 511.714 454.798C514.27 454.741 514.383 454.855 515.065 456.729C515.406 457.809 515.746 460.479 515.746 462.637C515.803 467.466 515.065 468.716 509.328 473.431C505.239 476.782 494.618 486.894 494.902 487.121C495.016 487.178 498.083 486.383 501.831 485.303C505.523 484.224 508.647 483.485 508.76 483.599C508.874 483.713 509.101 484.565 509.272 485.474C509.499 486.894 509.101 487.632 506.034 490.927L502.456 494.79L497.06 494.222C494.107 493.938 481.725 493.143 469.514 492.461C446.113 491.211 439.979 491.325 425.269 493.37L419.703 494.165L411.922 490.189L404.197 486.212L408.741 486.553C411.24 486.723 416.636 487.121 420.668 487.405C429.926 488.144 462.812 489.053 478.488 489.109C489.336 489.109 490.301 489.053 490.131 488.144C489.904 486.78 484.906 485.247 466.106 480.588C438.105 473.658 421.123 470.647 406.015 469.965C401.414 469.795 397.836 469.397 398.063 469.17C399.71 467.523 408.855 463.944 424.928 458.718C445.489 452.014 447.76 451.162 447.477 450.253C446.625 447.583 420.896 451.333 395.167 457.865C391.475 458.774 387.84 459.57 387.045 459.57C385.114 459.57 383.069 457.241 382.614 454.684C380.967 445.027 378.128 438.892 373.3 434.461L370.119 431.564L369.551 440.312C368.983 448.549 368.87 449.231 367.336 451.446C366.427 452.81 365.575 453.889 365.462 453.889C364.439 453.889 360.918 451.333 356.545 447.413C351.035 442.414 340.585 434.802 333.201 430.314C330.702 428.78 328.601 427.474 328.487 427.417C328.26 427.303 327.238 413.385 327.408 413.215C327.465 413.158 330.589 414.238 334.337 415.658C348.65 420.998 350.07 421.452 349.388 420.657C349.048 420.202 345.299 417.532 341.039 414.635C332.917 409.068 330.305 406.796 329.453 404.637C328.714 402.592 328.828 397.309 329.68 396.627C332.804 394.128 344.788 396.173 378.241 404.978C383.637 406.398 389.26 407.648 398.234 409.352C401.869 410.034 385.625 402.138 374.663 397.934C365.973 394.582 358.873 392.367 346.264 389.072C334.564 386.061 329.793 384.13 329.169 382.198C328.146 378.847 332.69 378.108 356.034 378.108C364.78 378.051 371.88 377.881 371.766 377.654C370.914 376.234 361.372 374.302 346.321 372.371C339.79 371.575 333.599 370.553 332.633 370.098C329.396 368.792 329.339 366.463 332.576 360.896C333.599 359.078 335.814 355.045 337.518 351.92C341.664 344.251 347.571 338.116 352.512 336.355C357.681 334.48 358.419 333.969 358.987 331.924C359.328 330.731 361.316 328.118 364.042 325.278C366.825 322.324 369.097 319.256 370.062 317.211C372.732 311.587 374.493 310.394 381.479 309.599C383.353 309.372 384.886 309.144 384.886 309.088C384.886 309.088 386.363 309.258 388.124 309.542ZM345.98 319.256C348.48 320.619 349.332 330.39 347.287 334.31C345.81 337.094 341.834 340.9 338.597 342.547L336.211 343.74L336.609 340.729C337.12 336.469 338.37 331.697 340.074 327.323C340.869 325.221 341.778 322.778 342.118 321.926C342.743 320.392 344.049 318.688 344.617 318.688C344.788 318.688 345.413 318.972 345.98 319.256ZM527.163 378.563C527.163 378.733 526.197 380.608 525.061 382.766C523.471 385.607 521.71 387.709 518.586 390.435L514.326 394.185L498.026 394.355C489.109 394.469 481.952 394.355 482.179 394.185C482.407 394.014 489.847 390.947 498.764 387.368C509.385 383.164 516.882 380.494 520.631 379.699C527.163 378.279 527.163 378.279 527.163 378.563ZM193.765 380.267C193.765 380.381 191.379 381.971 188.54 383.732C185.643 385.55 180.077 389.356 176.271 392.14C172.409 394.923 167.184 398.332 164.742 399.695L160.198 402.138L154.973 399.979C150.656 398.275 131.515 387.538 132.424 387.368C132.595 387.368 146.283 385.72 162.811 383.789C179.395 381.801 193.083 380.153 193.367 380.097C193.594 380.097 193.765 380.153 193.765 380.267ZM560.559 383.107C567.432 386.629 570.215 389.924 569.419 393.617C569.192 394.753 569.022 397.195 569.135 399.127C569.306 402.99 568.567 404.126 565.955 403.785C564.478 403.615 564.364 403.387 564.364 401.342C564.364 400.093 564.592 398.502 564.819 397.764C565.216 396.741 565.103 396.514 564.081 396.514C559.934 396.514 557.322 392.424 557.265 385.834C557.265 383.619 557.378 381.744 557.549 381.744C557.719 381.744 559.082 382.369 560.559 383.107ZM247.835 386.288L253.118 389.129H250.675C248.233 389.129 246.643 390.208 245.109 392.821C244.598 393.787 244.314 393.219 243.462 389.413C242.951 386.913 242.326 384.584 242.213 384.187C241.758 383.05 242.156 383.221 247.835 386.288ZM547.78 383.959C549.427 384.584 553.005 389.867 554.255 393.446C554.709 394.866 554.993 396.116 554.879 396.23C554.709 396.4 552.494 395.718 549.938 394.81C545.451 393.162 541.191 392.48 540.396 393.276C540.226 393.503 540.623 394.298 541.362 395.094C542.725 396.571 547.212 398.218 549.824 398.218C551.301 398.218 554.993 401.286 554.993 402.592C554.993 404.012 552.664 404.637 548.745 404.24C543.861 403.785 534.83 401.513 531.763 399.979C527.617 397.82 528.753 395.832 538.181 388.788C545.906 382.994 545.622 383.164 547.78 383.959ZM206.26 396.627C205.238 400.774 203.818 405.376 203.08 406.853L201.716 409.523L196.491 407.762C193.594 406.796 191.095 405.887 190.925 405.773C190.811 405.66 194.503 401.74 199.161 397.082C203.818 392.424 207.737 388.731 207.85 388.845C208.021 388.958 207.283 392.48 206.26 396.627ZM101.754 399.581C106.922 400.661 114.192 402.194 117.941 402.99C127.085 404.921 132.651 405.546 143.784 405.887C153.95 406.228 155.143 406.398 155.143 407.591C155.143 409.636 150.656 410.261 142.364 409.239C138.615 408.841 131.231 408.443 125.893 408.443C109.705 408.443 98.6869 405.83 92.3824 400.604C88.0659 397.025 88.9746 396.968 101.754 399.581ZM288.332 401.854C290.092 402.763 291.569 404.524 294.693 409.295C300.316 417.93 302.474 420.657 305.2 422.645C306.507 423.611 307.643 424.292 307.699 424.179C307.813 424.065 307.643 420.259 307.245 415.658C306.904 411.056 306.791 407.137 306.961 406.966C307.643 406.285 311.902 407.989 312.982 409.409C314.401 411.17 314.572 416.567 313.493 429.576L312.868 437.926L310.085 436.449C307.131 434.859 286.287 415.885 282.766 411.681C280.267 408.557 279.528 406.853 279.528 403.899C279.528 399.809 283.05 399.013 288.332 401.854ZM252.266 406.114C255.56 408.102 267.658 419.464 267.998 420.884C268.169 421.623 267.998 423.043 267.601 424.008C266.294 427.076 266.351 432.814 267.828 444.913C269.418 457.752 269.702 468.091 268.566 470.363C267.601 472.351 265.102 473.374 261.296 473.431C256.696 473.487 254.992 471.726 252.55 464.114C251.982 462.41 250.164 458.036 248.517 454.457C245.393 447.64 244.428 444.8 245.223 444.8C245.507 444.8 248.46 445.709 251.868 446.731C255.219 447.811 257.945 448.492 257.945 448.322C257.945 448.095 254.708 445.652 250.846 442.868C239.884 435.029 237.101 431.45 235.795 423.611C235.17 419.521 234.999 407.875 235.681 407.875C235.908 407.932 238.578 411.17 241.701 415.09L247.324 422.247L248.347 420.884C249.255 419.748 249.426 418.441 249.426 412.249C249.426 407.932 249.653 405.035 249.994 405.035C250.278 405.035 251.3 405.489 252.266 406.114ZM192.856 421.509C198.195 423.554 200.296 426.849 197.741 429.178C197.116 429.746 196.548 430.087 196.434 429.973C196.321 429.86 194.901 427.928 193.197 425.769C188.937 420.259 189.051 420.373 189.391 420.373C189.619 420.373 191.152 420.884 192.856 421.509ZM563.513 430.996C567.432 436.563 571.18 440.255 572.884 440.255C574.304 440.255 575.44 435.881 575.44 430.541V425.429L579.586 428.667C585.209 433.154 588.446 436.279 589.469 438.21C590.207 439.63 590.207 439.914 589.469 440.653C588.333 441.846 568.454 446.504 564.024 446.674C559.139 446.845 558.401 446.163 556.129 439.46C554.311 433.893 554.084 432.132 555.05 429.632C555.618 428.099 558.287 424.917 558.912 424.917C559.082 424.917 561.184 427.644 563.513 430.996ZM134.128 432.132C131.856 434.575 129.357 436.904 128.505 437.358C125.665 438.949 118.793 437.983 117.998 435.881C117.373 434.404 118.736 432.927 122.371 431.28C126.745 429.178 136.798 426.849 138.047 427.587C138.161 427.644 136.4 429.689 134.128 432.132ZM293.898 435.37C299.975 438.324 305.541 441.391 308.154 443.38C310.539 445.197 312.47 446.731 312.47 446.845C312.47 446.959 311.675 450.594 310.71 454.912C309.403 460.876 309.063 463.433 309.347 465.875L309.687 469.056L306.393 469.681C304.178 470.136 299.918 470.193 293.443 469.909L283.788 469.511L283.05 466.103C282.254 462.126 282.141 457.127 282.652 444.516C282.936 435.768 283.39 430.598 283.731 430.598C283.845 430.598 288.388 432.757 293.898 435.37ZM220.289 433.495C223.356 434.461 227.616 436.165 229.717 437.301C234.091 439.517 235.454 441.221 238.805 448.435C239.998 450.935 242.213 455.252 243.803 458.036C247.154 464.001 249.426 469.625 249.426 472.067V473.828L247.608 472.863C244.768 471.386 240.509 467.068 235.965 461.103C231.932 455.764 228.581 452.696 225.969 451.844C223.697 451.105 220.573 448.72 219.153 446.618C213.701 438.437 210.747 433.325 211.031 432.586C211.485 431.28 214.155 431.564 220.289 433.495ZM207.283 434.972C208.986 436.449 216.54 449.344 215.688 449.344C215.064 449.344 211.031 447.413 208.021 445.652C203.023 442.698 200.58 440.142 200.58 437.699C200.58 434.404 204.67 432.757 207.283 434.972ZM330.248 437.926C333.485 440.198 336.439 443.323 342.8 451.333C346.208 455.593 348.252 458.661 348.252 459.513C348.252 460.819 348.139 460.876 344.731 460.592C340.017 460.195 333.201 457.411 330.589 454.855C328.544 452.81 327.351 449.742 327.181 446.22C327.01 442.414 327.238 436.279 327.578 436.279C327.749 436.279 328.941 437.017 330.248 437.926ZM531.536 441.789C531.422 442.073 530.57 445.311 529.718 449.06L528.128 455.877L524.834 459.115L521.596 462.296L521.199 459.399C519.836 449.628 521.256 445.822 527.447 442.641C529.718 441.448 531.99 440.994 531.536 441.789ZM349.218 467.182C356.318 470.136 362.452 472.976 362.906 473.431C366.371 476.839 344.788 478.657 337.631 475.532C333.428 473.658 332.236 472.124 331.724 467.977C330.816 460.081 332.065 460.024 349.218 467.182ZM268.964 480.077C272.031 483.713 269.986 487.916 264.988 488.371C262.319 488.655 262.035 488.541 260.615 486.837C258.229 484.054 258.74 480.02 261.524 478.884C262.205 478.6 263.852 478.373 265.159 478.373C267.09 478.316 267.771 478.6 268.964 480.077ZM301.793 480.872C309.233 482.009 310.198 482.236 310.198 483.145C310.198 484.224 306.109 485.644 300.997 486.326C295.488 487.121 286.117 486.155 284.526 484.735C283.22 483.542 283.22 481.384 284.526 480.645C286.003 479.793 295.261 479.907 301.793 480.872ZM334.848 490.643C334.621 491.211 334.28 495.188 334.11 499.505C333.826 506.436 333.656 507.458 332.69 508.197C331.497 509.049 329.737 508.765 328.43 507.515C327.465 506.606 326.954 501.039 327.465 497.346C327.919 494.392 330.021 491.609 332.633 490.473C334.962 489.45 335.416 489.507 334.848 490.643ZM393.122 500.812C394.826 501.323 396.87 502.459 397.836 503.425L399.54 505.072L399.142 510.242C398.972 513.082 398.688 515.582 398.518 515.695C398.177 516.093 365.291 510.582 365.291 510.185C365.348 509.219 377.219 502.402 381.763 500.698C384.546 499.676 389.487 499.732 393.122 500.812ZM310.994 501.948C313.209 504.106 311.448 506.776 306.961 508.026C302.928 509.162 295.261 510.128 290.49 510.128C285.435 510.128 285.776 509.049 291.739 506.208C301.225 501.664 309.006 499.96 310.994 501.948ZM449.976 507.344C455.712 509.901 481.271 519.217 482.634 519.217C482.747 519.217 482.861 520.467 482.861 521.944C482.861 524.614 482.691 524.898 477.92 530.181C475.137 533.135 472.751 535.634 472.581 535.634C472.41 535.691 473.092 532.68 474.114 529.045C475.137 525.352 475.932 522.342 475.875 522.228C475.761 522.171 474.057 523.137 472.07 524.443L468.435 526.716L467.185 525.182L465.992 523.648L465.708 526.261C465.538 527.681 465.084 529.272 464.686 529.726C464.175 530.351 464.004 533.192 464.061 540.122L464.118 549.609L461.903 552.108L459.745 554.665L456.394 552.79C452.759 550.745 431.63 536.146 431.914 535.918C432.028 535.805 436.401 536.998 441.626 538.588C446.909 540.122 451.282 541.315 451.395 541.202C451.509 541.088 448.101 538.588 443.785 535.634L436.004 530.295V527.852C436.004 526.545 435.833 525.466 435.606 525.466C435.322 525.466 435.152 525.693 435.152 525.92C435.152 526.204 434.811 526.829 434.413 527.397C433.675 528.42 433.448 528.363 430.494 526.488C427.768 524.727 426.916 523.648 423.338 517.57C421.123 513.82 419.476 510.696 419.646 510.696C419.816 510.696 425.894 512.968 433.107 515.752C444.977 520.353 451.566 522.626 452.872 522.626C453.156 522.626 452.872 521.66 452.247 520.467C451.623 519.274 448.442 516.036 444.807 512.968C439.468 508.367 436.288 504.845 436.288 503.482C436.288 503.311 437.651 503.311 439.298 503.538C441.229 503.709 445.205 505.186 449.976 507.344ZM491.778 505.356C493.028 505.697 493.028 505.754 492.119 507.288L491.21 508.878L485.53 506.947C482.407 505.867 479.68 504.845 479.51 504.675C479.112 504.22 489.904 504.845 491.778 505.356ZM307.813 518.308C310.766 519.331 310.766 520.581 307.756 523.478C304.746 526.375 294.523 532.226 291.739 532.68C290.092 532.964 289.524 532.737 288.218 531.317C286.23 529.215 283.504 523.762 283.504 521.887C283.504 519.672 285.776 518.081 289.808 517.513C294.409 516.888 304.973 517.343 307.813 518.308ZM266.067 522.626C267.885 524.216 267.998 524.557 268.566 529.556C268.907 532.794 268.907 537.964 268.623 543.019L268.112 551.2L263.739 555.801C261.353 558.357 257.207 563.072 254.594 566.367C251.982 569.662 249.483 572.729 249.028 573.184C248.29 573.922 248.233 572.957 248.574 566.083C248.915 558.187 248.971 558.016 254.14 540.633L259.308 523.137L261.296 522.058C263.966 520.637 263.852 520.637 266.067 522.626ZM491.381 526.375C491.778 527.454 491.892 529.272 491.664 530.408C491.324 532.396 486.894 544.042 481.839 556.426C478.204 565.288 477.749 567.39 478.147 572.957C478.544 578.581 477.92 580.512 474.682 584.205L472.24 586.988L469.287 580.796C466.844 575.74 466.163 573.638 465.595 569.321L464.856 564.038L472.41 553.642C476.557 547.905 480.475 541.826 481.214 540.179C482.691 536.657 489.79 524.387 490.358 524.33C490.529 524.33 491.04 525.239 491.381 526.375ZM391.02 527.511C396.984 528.931 405.504 531.26 409.82 532.68L417.715 535.294L422.827 539.895C425.61 542.394 428.79 545.235 429.869 546.144L431.857 547.791L431.46 545.008C431.233 543.474 431.176 542.338 431.346 542.508C434.754 545.86 442.308 556.312 445.659 562.22L449.862 569.719L448.669 573.866C447.76 577.047 446.227 580.001 441.797 586.818C434.186 598.577 434.016 598.69 437.935 589.999C438.9 587.84 439.639 586.022 439.525 585.909C439.411 585.795 437.991 586.25 436.344 586.988L433.334 588.238L430.835 585.511L428.336 582.728V586.761C428.336 588.976 428.166 590.794 427.995 590.794C427.768 590.794 425.894 589.374 423.735 587.67C421.634 585.966 419.76 584.545 419.589 584.545C419.476 584.545 421.293 588.806 423.679 594.032C426.007 599.258 427.938 603.803 427.938 604.144C427.938 604.428 426.859 606.53 425.553 608.745C424.133 611.245 421.975 616.585 420.1 622.322C418.397 627.548 414.023 638.91 410.331 647.601L403.686 663.394L400.789 662.258C397.211 660.837 392.44 658.224 380.967 651.351C371.823 645.84 363.02 641.977 348.366 637.092C344.845 635.899 341.323 634.308 340.528 633.57C339.165 632.32 339.108 632.093 339.903 630.957C340.358 630.275 341.721 629.366 342.913 628.912C344.901 628.23 347.344 628.4 368.131 630.73C380.797 632.15 391.248 633.229 391.361 633.115C391.418 633.002 389.203 631.695 386.306 630.275C379.775 626.98 363.247 621.47 353.932 619.482C345.015 617.55 342.743 616.641 341.721 614.596C340.585 612.438 340.642 607.893 341.948 601.531C342.573 598.577 343.368 593.237 343.709 589.658C344.163 584.659 344.845 581.535 346.548 576.536C347.798 572.957 348.82 569.662 348.82 569.207C348.82 568.81 348.139 567.56 347.344 566.481C345.015 563.47 344.901 560.289 346.889 556.312C349.161 551.768 357.681 542.963 361.656 541.031C367.109 538.361 369.267 539.554 377.048 549.666C381.763 555.744 391.248 564.89 396.416 568.299C398.688 569.832 400.619 570.968 400.733 570.855C400.846 570.741 398.745 563.981 396.075 555.858L391.304 541.088L385.795 533.703C379.718 525.58 379.263 524.898 379.775 524.898C379.945 524.898 385 526.091 391.02 527.511ZM333.769 528.079L335.303 530.749L335.019 545.576C334.735 558.585 334.564 560.857 333.542 564.038L332.349 567.617L333.656 571.991C334.848 576.081 334.905 576.82 334.451 586.988C334.11 595.623 333.656 599.429 332.065 606.871L330.191 616.073L330.134 595.566L330.077 575.059L328.089 569.719C326.102 564.379 326.102 564.379 326.102 554.665C326.102 549.325 326.386 541.656 326.67 537.623L327.294 530.295L329.68 527.852C330.929 526.545 332.065 525.466 332.122 525.466C332.179 525.466 332.917 526.659 333.769 528.079ZM309.176 555.176C305.598 572.218 305.314 573.184 304.121 573.184C303.099 573.184 302.758 572.729 302.474 571.025C301.906 568.128 301.906 564.208 302.36 561.823C302.758 559.948 302.644 559.777 300.032 557.96C297.362 556.142 297.306 556.085 296.056 550.688C295.374 547.678 294.92 545.121 295.034 544.951C295.374 544.61 312.754 536.941 312.868 537.055C312.925 537.111 311.278 545.292 309.176 555.176ZM287.537 552.279C287.877 552.961 288.275 555.517 288.445 558.073C288.672 562.05 289.013 563.129 290.66 565.913C291.739 567.674 293.898 573.127 295.488 578.126C299.577 590.965 303.269 601.928 304.86 605.734C308.381 614.085 307.302 616.187 298.782 617.778C290.376 619.368 287.366 618.118 288.275 613.403C289.354 607.609 289.354 607.495 287.253 601.247C284.981 594.203 284.299 591.476 283.163 584.261C282.198 578.013 281.516 555.971 282.254 553.585C282.766 551.768 284.81 550.347 286.173 550.859C286.571 551.029 287.196 551.654 287.537 552.279ZM269.191 577.842C269.305 594.203 269.191 596.304 268.169 601.019L267.033 606.246L269.305 610.393C271.52 614.369 271.577 614.653 271.577 619.936V625.39L267.771 621.3C262.092 615.278 257.832 609.37 256.525 605.678C255.844 603.917 255.105 602.496 254.765 602.496C254.481 602.553 253.458 602.78 252.493 602.951C250.903 603.292 250.675 603.178 249.994 601.644C248.971 599.088 249.596 597.668 253.686 592.782C260.331 585 266.408 570.116 266.465 561.652C266.465 559.721 266.635 559.493 267.771 559.664L269.021 559.834L269.191 577.842ZM460.256 580.569C462.3 582.103 464.288 587.102 463.891 589.317C463.664 590.34 462.698 591.93 461.676 592.896C459.006 595.452 450.032 601.076 447.306 601.928C444.921 602.667 443.103 602.156 443.103 600.792C443.103 600.395 445.091 596.873 447.59 593.01C450.032 589.09 452.588 584.829 453.27 583.58C455.314 579.546 457.7 578.524 460.256 580.569ZM215.575 602.837C218.244 604.712 235.454 618.062 237.726 619.936L238.918 621.016L237.214 620.618C233.92 619.936 228.638 617.039 223.583 613.233C220.8 611.074 216.427 608.064 213.928 606.53C208.759 603.349 208.191 602.724 209.498 601.701C211.031 600.565 212.792 600.906 215.575 602.837ZM243.065 601.985C247.04 603.86 264.761 622.663 264.761 624.992C264.761 625.39 263.739 625.446 262.092 625.219L259.365 624.822L263.909 627.378C267.942 629.707 272.713 633.911 272.713 635.161C272.713 635.842 268.85 634.138 266.01 632.207C262.432 629.764 259.479 628.344 255.446 627.151C250.335 625.56 249.028 624.31 246.245 618.232C244.825 615.164 242.724 611.813 241.304 610.222C236.59 605.166 235.681 602.61 238.237 601.588C240.054 600.849 240.793 600.906 243.065 601.985ZM303.326 637.49C307.245 639.08 310.653 640.557 310.88 640.728C311.05 640.898 310.994 644.193 310.653 647.942L310.085 654.873L312.698 659.474C315.083 663.621 315.537 665.098 317.866 676.062C319.286 682.708 320.365 688.162 320.252 688.275C320.195 688.332 318.093 683.958 315.651 678.504C311.221 668.62 311.164 668.563 306.791 664.473C301.509 659.588 294.182 649.305 290.888 642.091C288.786 637.66 288.672 636.978 289.24 635.501C289.922 633.854 290.036 633.854 293.046 634.195C294.75 634.422 299.35 635.899 303.326 637.49Z" fill="#26A458"/>
</svg>
